{"glyphs":{"0":{"ha":900,"x_min":0,"x_max":0,"o":"m 54 646 l 54 342 b 450 -21 54 118 199 -21 b 846 342 701 -21 846 118 l 846 646 b 450 1007 846 867 701 1007 b 54 646 199 1007 54 867 z m 571 657 l 571 331 b 450 222 571 261 525 222 b 329 331 375 222 329 261 l 329 657 b 450 764 329 725 375 764 b 571 657 525 764 571 725 z "},"1":{"ha":624,"x_min":0,"x_max":0,"o":"m 481 986 l 397 986 b 314 963 361 986 346 982 l 43 807 b 15 726 6 783 -6 765 l 81 608 b 171 585 101 569 125 560 l 264 638 l 264 58 b 324 0 264 15 279 0 l 481 0 b 539 58 525 0 539 15 l 539 928 b 481 986 539 971 525 986 z "},"2":{"ha":851,"x_min":0,"x_max":0,"o":"m 54 764 b 90 689 38 724 50 704 l 238 635 b 313 672 279 621 293 629 b 433 764 343 738 375 764 b 528 672 493 764 528 725 b 314 479 528 567 425 526 b 44 169 185 424 44 358 l 44 58 b 104 0 44 15 60 0 l 729 0 b 789 58 774 0 789 15 l 789 175 b 729 235 789 219 774 235 l 331 235 l 331 243 b 494 315 331 278 419 290 b 808 685 706 390 808 469 b 442 1007 808 863 675 1007 b 54 764 228 1007 111 908 z "},"3":{"ha":869,"x_min":0,"x_max":0,"o":"m 797 719 b 454 1007 797 893 676 1007 b 44 764 228 1007 103 919 b 82 689 31 724 40 703 l 218 640 b 293 678 260 626 278 635 b 424 768 318 740 346 768 b 518 692 488 768 518 744 b 424 615 518 636 476 615 l 363 615 b 304 556 318 615 304 600 l 304 440 b 363 382 304 397 318 382 l 447 382 b 539 300 507 382 539 360 b 431 218 539 244 503 218 b 290 308 353 218 313 249 b 215 346 274 351 257 361 l 79 297 b 42 222 38 283 26 263 b 451 -21 99 67 226 -21 b 826 283 706 -21 826 92 b 689 517 826 383 783 467 b 797 719 758 563 797 632 z "},"4":{"ha":913,"x_min":0,"x_max":0,"o":"m 831 410 l 760 410 l 760 928 b 701 986 760 971 744 986 l 564 986 b 474 944 518 986 501 976 l 51 440 b 21 346 24 408 21 392 l 21 254 b 79 196 21 211 36 196 l 500 196 l 500 58 b 558 0 500 15 514 0 l 701 0 b 760 58 744 0 760 15 l 760 196 l 831 196 b 889 254 874 196 889 211 l 889 351 b 831 410 889 394 874 410 z m 500 410 l 306 410 l 500 644 z "},"5":{"ha":851,"x_min":0,"x_max":0,"o":"m 713 988 l 204 988 b 111 904 139 988 118 967 l 68 492 b 129 424 64 444 79 424 l 418 424 b 529 329 490 424 529 392 b 426 226 529 260 490 226 b 292 304 347 226 313 254 b 219 339 275 347 257 353 l 71 283 b 35 208 31 268 19 250 b 439 -21 93 53 215 -21 b 815 317 679 -21 815 126 b 451 647 815 501 707 647 l 358 647 l 368 744 l 713 744 b 772 803 757 744 772 758 l 772 928 b 713 988 772 972 757 988 z "},"6":{"ha":904,"x_min":0,"x_max":0,"o":"m 328 615 l 328 635 b 461 764 328 725 369 764 b 599 699 536 764 576 743 b 675 660 621 658 633 644 l 807 711 b 844 786 849 726 860 744 b 457 1007 786 936 663 1007 b 54 633 194 1007 54 872 l 54 353 b 457 -21 54 114 193 -21 b 860 306 708 -21 860 94 b 472 626 860 522 739 626 b 328 615 408 626 363 622 z m 328 322 l 328 375 b 457 392 351 383 393 392 b 586 304 554 392 586 363 b 457 214 586 247 554 214 b 328 322 363 214 328 254 z "},"7":{"ha":789,"x_min":0,"x_max":0,"o":"m 713 986 l 83 986 b 24 928 39 986 24 971 l 24 803 b 83 743 24 758 39 743 l 453 743 l 133 58 b 163 0 117 22 119 0 l 315 0 b 425 51 389 0 404 8 l 754 751 b 771 833 769 785 771 800 l 771 928 b 713 986 771 971 757 986 z "},"8":{"ha":900,"x_min":0,"x_max":0,"o":"m 75 710 b 179 493 75 606 117 536 b 42 263 114 453 42 378 b 449 -21 42 92 157 -21 b 857 289 740 -21 857 107 b 726 524 857 410 801 479 b 825 728 774 564 825 628 b 449 1007 825 906 694 1007 b 75 710 218 1007 75 899 z m 553 704 b 493 606 553 657 525 626 l 451 617 b 353 704 389 635 353 654 b 450 778 353 750 383 778 b 553 704 519 778 553 750 z m 571 286 b 447 206 571 239 536 206 b 317 289 356 206 317 236 b 386 396 317 343 353 374 b 571 286 510 360 571 351 z "},"9":{"ha":904,"x_min":0,"x_max":0,"o":"m 576 371 l 576 351 b 443 222 576 261 535 222 b 306 288 368 222 328 243 b 229 326 283 328 271 342 l 97 275 b 60 200 56 260 44 242 b 447 -21 118 50 242 -21 b 850 353 710 -21 850 114 l 850 633 b 447 1007 850 872 711 1007 b 44 681 196 1007 44 892 b 432 360 44 464 165 360 b 576 371 496 360 542 364 z m 576 664 l 576 611 b 447 594 553 603 511 594 b 318 682 350 594 318 624 b 447 772 318 739 350 772 b 576 664 542 772 576 732 z "}," ":{"ha":250,"x_min":0,"x_max":0,"o":""},"A":{"ha":956,"x_min":0,"x_max":0,"o":"m 950 57 l 629 940 b 557 986 615 976 597 986 l 399 986 b 326 938 358 986 340 978 l 7 57 b 44 0 -7 19 1 0 l 190 0 b 292 58 260 0 278 15 l 324 158 l 624 158 l 656 58 b 760 0 667 15 688 0 l 910 0 b 950 57 951 0 964 19 z m 510 539 l 561 376 l 388 376 l 439 540 b 465 733 467 633 465 733 l 479 733 b 510 539 479 733 482 633 z "},"Á":{"ha":956,"x_min":0,"x_max":0,"o":"m 492 1269 l 296 1157 b 293 1104 272 1143 271 1131 l 331 1058 b 394 1051 346 1039 361 1042 l 647 1129 b 654 1185 681 1142 679 1157 l 583 1265 b 492 1269 556 1296 524 1288 z m 950 57 l 629 940 b 557 986 615 976 597 986 l 399 986 b 326 938 358 986 340 978 l 7 57 b 44 0 -7 19 1 0 l 190 0 b 292 58 260 0 278 15 l 324 158 l 624 158 l 656 58 b 760 0 667 15 688 0 l 910 0 b 950 57 951 0 964 19 z m 510 539 l 561 376 l 388 376 l 439 540 b 465 733 467 633 465 733 l 479 733 b 510 539 479 733 482 633 z "},"Ă":{"ha":956,"x_min":0,"x_max":0,"o":"m 724 1194 b 700 1243 735 1221 726 1233 l 603 1279 b 553 1261 575 1288 567 1285 b 478 1215 535 1231 513 1215 b 401 1261 442 1215 418 1231 b 349 1278 388 1285 379 1289 l 257 1243 b 233 1194 231 1232 224 1221 b 478 1047 269 1100 356 1047 b 724 1194 601 1047 688 1100 z m 950 57 l 629 940 b 557 986 615 976 597 986 l 399 986 b 326 938 358 986 340 978 l 7 57 b 44 0 -7 19 1 0 l 190 0 b 292 58 260 0 278 15 l 324 158 l 624 158 l 656 58 b 760 0 667 15 688 0 l 910 0 b 950 57 951 0 964 19 z m 510 539 l 561 376 l 388 376 l 439 540 b 465 733 467 633 465 733 l 479 733 b 510 539 479 733 482 633 z "},"Â":{"ha":956,"x_min":0,"x_max":0,"o":"m 507 1278 l 463 1278 b 356 1236 403 1278 393 1274 l 214 1094 b 235 1047 192 1072 190 1047 l 344 1047 b 435 1078 396 1047 411 1050 l 478 1126 l 518 1076 b 610 1047 539 1050 556 1047 l 726 1047 b 747 1094 772 1047 769 1072 l 606 1236 b 507 1278 568 1274 556 1278 z m 950 57 l 629 940 b 557 986 615 976 597 986 l 399 986 b 326 938 358 986 340 978 l 7 57 b 44 0 -7 19 1 0 l 190 0 b 292 58 260 0 278 15 l 324 158 l 624 158 l 656 58 b 760 0 667 15 688 0 l 910 0 b 950 57 951 0 964 19 z m 510 539 l 561 376 l 388 376 l 439 540 b 465 733 467 633 465 733 l 479 733 b 510 539 479 733 482 633 z "},"Ä":{"ha":956,"x_min":0,"x_max":0,"o":"m 333 1269 l 322 1269 b 222 1171 246 1269 222 1246 l 222 1153 b 322 1054 222 1079 246 1054 l 333 1054 b 436 1153 411 1054 436 1079 l 436 1171 b 333 1269 436 1246 411 1269 z m 632 1269 l 622 1269 b 519 1171 544 1269 519 1246 l 519 1153 b 622 1054 519 1079 544 1054 l 632 1054 b 733 1153 710 1054 733 1079 l 733 1171 b 632 1269 733 1246 710 1269 z m 950 57 l 629 940 b 557 986 615 976 597 986 l 399 986 b 326 938 358 986 340 978 l 7 57 b 44 0 -7 19 1 0 l 190 0 b 292 58 260 0 278 15 l 324 158 l 624 158 l 656 58 b 760 0 667 15 688 0 l 910 0 b 950 57 951 0 964 19 z m 510 539 l 561 376 l 388 376 l 439 540 b 465 733 467 633 465 733 l 479 733 b 510 539 479 733 482 633 z "},"À":{"ha":956,"x_min":0,"x_max":0,"o":"m 376 1269 l 306 1186 b 314 1131 282 1157 279 1142 l 565 1053 b 629 1058 599 1042 615 1040 l 668 1106 b 664 1158 689 1131 689 1144 l 468 1274 b 376 1269 436 1292 403 1300 z m 950 57 l 629 940 b 557 986 615 976 597 986 l 399 986 b 326 938 358 986 340 978 l 7 57 b 44 0 -7 19 1 0 l 190 0 b 292 58 260 0 278 15 l 324 158 l 624 158 l 656 58 b 760 0 667 15 688 0 l 910 0 b 950 57 951 0 964 19 z m 510 539 l 561 376 l 388 376 l 439 540 b 465 733 467 633 465 733 l 479 733 b 510 539 479 733 482 633 z "},"Ā":{"ha":956,"x_min":0,"x_max":0,"o":"m 647 1239 l 308 1239 b 258 1189 274 1239 258 1229 l 258 1131 b 308 1081 258 1090 269 1081 l 647 1081 b 697 1131 686 1081 697 1090 l 697 1189 b 647 1239 697 1229 686 1239 z m 950 57 l 629 940 b 557 986 615 976 597 986 l 399 986 b 326 938 358 986 340 978 l 7 57 b 44 0 -7 19 1 0 l 190 0 b 292 58 260 0 278 15 l 324 158 l 624 158 l 656 58 b 760 0 667 15 688 0 l 910 0 b 950 57 951 0 964 19 z m 510 539 l 561 376 l 388 376 l 439 540 b 465 733 467 633 465 733 l 479 733 b 510 539 479 733 482 633 z "},"Ą":{"ha":956,"x_min":0,"x_max":0,"o":"m 557 986 l 400 986 b 328 938 360 986 342 978 l 7 57 b 44 0 -7 19 1 0 l 192 0 b 292 58 260 0 279 15 l 324 158 l 625 158 l 656 58 b 756 0 668 15 683 1 b 651 -249 682 -74 635 -165 b 800 -342 667 -326 735 -342 b 954 -293 856 -342 915 -324 b 963 -251 968 -283 971 -272 l 933 -186 b 901 -178 928 -172 915 -168 b 875 -186 892 -183 883 -186 b 850 -161 861 -186 853 -176 b 946 7 846 -131 868 -64 b 951 56 958 18 960 32 l 629 940 b 557 986 617 976 597 986 z m 511 539 l 561 376 l 388 376 l 439 540 b 467 733 467 633 467 733 l 479 733 b 511 539 479 733 482 633 z "},"Å":{"ha":956,"x_min":0,"x_max":0,"o":"m 278 1057 b 331 933 278 1006 296 964 l 7 57 b 44 0 -7 19 1 0 l 190 0 b 292 58 260 0 278 15 l 324 158 l 624 158 l 656 58 b 760 0 667 15 688 0 l 910 0 b 950 57 951 0 964 19 l 626 935 b 678 1057 661 964 678 1007 b 481 1240 678 1169 597 1240 b 278 1057 363 1240 278 1174 z m 536 1054 b 481 999 536 1019 513 999 b 418 1054 443 999 418 1022 b 481 1111 418 1089 443 1111 b 536 1054 513 1111 536 1089 z m 511 539 l 561 376 l 388 376 l 438 540 b 465 731 465 633 465 731 l 479 731 b 511 539 479 731 483 633 z "},"Ǻ":{"ha":954,"x_min":0,"x_max":0,"o":"m 501 1364 l 328 1286 b 313 1242 304 1276 292 1261 l 349 1206 b 410 1201 363 1193 378 1194 l 644 1260 b 651 1300 675 1267 674 1279 l 588 1363 b 501 1364 563 1385 532 1378 z m 276 1001 b 325 897 276 960 294 922 l 6 57 b 43 0 -10 19 0 0 l 189 0 b 290 58 258 0 276 15 l 322 158 l 622 158 l 654 58 b 758 0 665 15 686 0 l 908 0 b 949 57 950 0 964 19 l 631 897 b 678 1001 663 924 678 960 b 479 1183 678 1113 596 1183 b 276 1001 363 1183 276 1117 z m 535 1004 b 481 947 535 969 511 947 b 419 1004 443 947 419 972 b 481 1061 419 1039 443 1061 b 535 1004 511 1061 535 1039 z m 508 539 l 560 376 l 386 376 l 438 540 b 464 733 465 633 464 733 l 478 733 b 508 539 478 733 481 633 z "},"Ã":{"ha":956,"x_min":0,"x_max":0,"o":"m 681 1263 l 597 1263 b 571 1236 576 1263 571 1256 b 550 1206 571 1214 563 1206 b 361 1263 504 1206 468 1263 b 229 1092 281 1263 229 1224 b 261 1060 229 1071 238 1060 l 346 1060 b 372 1088 365 1060 372 1068 b 393 1118 372 1108 381 1118 b 578 1060 439 1118 475 1060 b 714 1231 665 1060 714 1101 b 681 1263 714 1253 707 1263 z m 950 57 l 629 940 b 557 986 615 976 597 986 l 399 986 b 326 938 358 986 340 978 l 7 57 b 44 0 -7 19 1 0 l 190 0 b 292 58 260 0 278 15 l 324 158 l 624 158 l 656 58 b 760 0 667 15 688 0 l 910 0 b 950 57 951 0 964 19 z m 510 539 l 561 376 l 388 376 l 439 540 b 465 733 467 633 465 733 l 479 733 b 510 539 479 733 482 633 z "},"Æ":{"ha":1257,"x_min":0,"x_max":0,"o":"m 1164 243 l 881 243 l 881 376 l 1079 376 b 1138 436 1122 376 1138 392 l 1138 561 b 1079 619 1138 604 1122 619 l 881 619 l 881 743 l 1153 743 b 1211 803 1197 743 1211 758 l 1211 928 b 1153 986 1211 971 1197 986 l 646 986 b 574 938 606 986 596 974 l -1 57 b 36 0 -21 22 -7 0 l 179 0 b 288 51 253 0 265 15 l 347 146 l 625 146 l 625 58 b 685 0 625 15 640 0 l 1164 0 b 1222 58 1208 0 1222 15 l 1222 185 b 1164 243 1222 229 1208 243 z m 625 356 l 482 356 l 625 582 z "},"Ǽ":{"ha":1257,"x_min":0,"x_max":0,"o":"m 906 1269 l 710 1157 b 706 1104 686 1143 685 1131 l 744 1058 b 808 1051 758 1039 775 1042 l 1060 1129 b 1068 1185 1094 1142 1093 1157 l 997 1265 b 906 1269 969 1296 938 1288 z m 1164 243 l 881 243 l 881 376 l 1079 376 b 1138 436 1122 376 1138 392 l 1138 561 b 1079 619 1138 604 1122 619 l 881 619 l 881 743 l 1153 743 b 1211 803 1197 743 1211 758 l 1211 928 b 1153 986 1211 971 1197 986 l 646 986 b 574 938 606 986 596 974 l -1 57 b 36 0 -21 22 -7 0 l 179 0 b 288 51 253 0 265 15 l 347 146 l 625 146 l 625 58 b 685 0 625 15 640 0 l 1164 0 b 1222 58 1208 0 1222 15 l 1222 185 b 1164 243 1222 229 1208 243 z m 625 356 l 482 356 l 625 582 z "},"B":{"ha":914,"x_min":0,"x_max":0,"o":"m 536 988 l 129 988 b 69 928 85 988 69 972 l 69 58 b 129 0 69 15 85 0 l 542 0 b 883 275 738 0 883 96 b 743 514 883 396 832 475 l 743 519 b 843 724 814 568 843 631 b 536 988 843 893 728 988 z m 564 686 b 479 611 564 632 535 611 l 344 611 l 344 764 l 479 764 b 564 686 535 764 564 740 z m 594 307 b 506 225 594 249 565 225 l 344 225 l 344 388 l 506 388 b 594 307 565 388 594 363 z "},"C":{"ha":904,"x_min":0,"x_max":0,"o":"m 46 618 l 46 368 b 474 -21 46 128 200 -21 b 879 222 688 -21 821 67 b 842 297 893 263 883 283 l 693 350 b 618 313 651 365 635 356 b 474 222 596 253 551 222 b 321 367 364 222 321 269 l 321 619 b 474 764 321 717 364 764 b 618 674 551 764 593 736 b 693 636 633 631 650 624 l 842 689 b 879 764 883 703 893 724 b 474 1007 821 919 688 1007 b 46 618 200 1007 46 858 z "},"Ć":{"ha":904,"x_min":0,"x_max":0,"o":"m 490 1269 l 294 1157 b 290 1104 269 1143 269 1131 l 329 1058 b 393 1051 343 1039 360 1042 l 644 1129 b 653 1185 678 1142 676 1157 l 582 1265 b 490 1269 554 1296 522 1288 z m 46 618 l 46 368 b 474 -21 46 128 200 -21 b 879 222 688 -21 821 67 b 842 297 893 263 883 283 l 693 350 b 618 313 651 365 635 356 b 474 222 596 253 551 222 b 321 367 364 222 321 269 l 321 619 b 474 764 321 717 364 764 b 618 674 551 764 593 736 b 693 636 633 631 650 624 l 842 689 b 879 764 883 703 893 724 b 474 1007 821 919 688 1007 b 46 618 200 1007 46 858 z "},"Č":{"ha":904,"x_min":0,"x_max":0,"o":"m 719 1278 l 614 1278 b 522 1247 563 1278 546 1274 l 482 1200 l 439 1247 b 349 1278 418 1274 403 1278 l 232 1278 b 215 1229 186 1278 193 1251 l 356 1088 b 457 1047 393 1050 404 1047 l 494 1047 b 599 1088 550 1047 561 1050 l 738 1229 b 719 1278 760 1251 765 1278 z m 46 618 l 46 368 b 474 -21 46 128 200 -21 b 879 222 688 -21 821 67 b 842 297 893 263 883 283 l 693 350 b 618 313 651 365 635 356 b 474 222 596 253 551 222 b 321 367 364 222 321 269 l 321 619 b 474 764 321 717 364 764 b 618 674 551 764 593 736 b 693 636 633 631 650 624 l 842 689 b 879 764 883 703 893 724 b 474 1007 821 919 688 1007 b 46 618 200 1007 46 858 z "},"Ç":{"ha":904,"x_min":0,"x_max":0,"o":"m 842 297 l 693 350 b 618 313 651 365 635 356 b 474 222 596 253 551 222 b 321 367 364 222 321 269 l 321 619 b 474 764 321 717 364 764 b 618 674 551 764 593 736 b 693 636 633 631 650 624 l 842 689 b 879 764 883 703 893 724 b 474 1007 821 919 688 1007 b 46 618 200 1007 46 858 l 46 368 b 401 -17 46 150 174 7 l 357 -118 b 375 -160 343 -147 349 -160 l 404 -160 b 463 -190 450 -161 463 -169 b 415 -222 463 -208 450 -222 b 338 -201 382 -222 363 -214 b 294 -224 307 -185 294 -197 l 294 -282 b 332 -325 294 -303 303 -314 b 435 -340 367 -337 403 -340 b 644 -201 532 -340 632 -311 b 529 -64 653 -126 608 -65 l 517 -64 l 535 -18 b 879 222 713 -4 826 81 b 842 297 893 263 883 283 z "},"Ĉ":{"ha":904,"x_min":0,"x_max":0,"o":"m 504 1278 l 460 1278 b 353 1236 401 1278 390 1274 l 211 1094 b 233 1047 190 1072 188 1047 l 342 1047 b 432 1078 394 1047 410 1050 l 476 1126 l 515 1076 b 608 1047 536 1050 553 1047 l 725 1047 b 746 1094 769 1047 768 1072 l 603 1236 b 504 1278 565 1274 554 1278 z m 46 618 l 46 368 b 474 -21 46 128 200 -21 b 879 222 688 -21 821 67 b 842 297 893 263 883 283 l 693 350 b 618 313 651 365 635 356 b 474 222 596 253 551 222 b 321 367 364 222 321 269 l 321 619 b 474 764 321 717 364 764 b 618 674 551 764 593 736 b 693 636 633 631 650 624 l 842 689 b 879 764 883 703 893 724 b 474 1007 821 919 688 1007 b 46 618 200 1007 46 858 z "},"Ċ":{"ha":904,"x_min":0,"x_max":0,"o":"m 481 1271 l 472 1271 b 367 1167 390 1271 367 1247 l 367 1156 b 472 1051 367 1075 390 1051 l 481 1051 b 583 1156 561 1051 583 1075 l 583 1167 b 481 1271 583 1247 561 1271 z m 46 618 l 46 368 b 474 -21 46 128 200 -21 b 879 222 688 -21 821 67 b 842 297 893 263 883 283 l 693 350 b 618 313 651 365 635 356 b 474 222 596 253 551 222 b 321 367 364 222 321 269 l 321 619 b 474 764 321 717 364 764 b 618 674 551 764 593 736 b 693 636 633 631 650 624 l 842 689 b 879 764 883 703 893 724 b 474 1007 821 919 688 1007 b 46 618 200 1007 46 858 z "},"D":{"ha":940,"x_min":0,"x_max":0,"o":"m 468 986 l 129 986 b 69 928 85 986 69 971 l 69 58 b 129 0 69 15 85 0 l 468 0 b 894 389 742 0 894 150 l 894 597 b 468 986 894 838 742 986 z m 619 593 l 619 393 b 458 243 619 294 571 243 l 344 243 l 344 743 l 458 743 b 619 593 571 743 619 692 z "},"Ð":{"ha":981,"x_min":0,"x_max":0,"o":"m 508 986 l 169 986 b 111 928 126 986 111 971 l 111 589 l 47 589 b 13 553 24 589 13 581 l 13 447 b 47 411 13 418 21 411 l 111 411 l 111 58 b 169 0 111 15 126 0 l 508 0 b 936 389 783 0 936 150 l 936 597 b 508 986 936 838 783 986 z m 661 593 l 661 393 b 499 243 661 294 613 243 l 386 243 l 386 411 l 500 411 b 533 447 526 411 533 418 l 533 553 b 500 589 533 581 526 589 l 386 589 l 386 743 l 499 743 b 661 593 613 743 661 692 z "},"Ď":{"ha":940,"x_min":0,"x_max":0,"o":"m 683 1278 l 578 1278 b 486 1247 525 1278 508 1274 l 444 1200 l 403 1247 b 311 1278 381 1274 367 1278 l 194 1278 b 178 1229 150 1278 157 1251 l 318 1088 b 419 1047 356 1050 367 1047 l 458 1047 b 561 1088 513 1047 524 1050 l 701 1229 b 683 1278 722 1251 728 1278 z m 468 986 l 129 986 b 69 928 85 986 69 971 l 69 58 b 129 0 69 15 85 0 l 468 0 b 894 389 742 0 894 150 l 894 597 b 468 986 894 838 742 986 z m 619 593 l 619 393 b 458 243 619 294 571 243 l 344 243 l 344 743 l 458 743 b 619 593 571 743 619 692 z "},"Đ":{"ha":981,"x_min":0,"x_max":0,"o":"m 508 986 l 169 986 b 111 928 126 986 111 971 l 111 589 l 47 589 b 13 553 24 589 13 581 l 13 447 b 47 411 13 418 21 411 l 111 411 l 111 58 b 169 0 111 15 126 0 l 508 0 b 936 389 783 0 936 150 l 936 597 b 508 986 936 838 783 986 z m 661 593 l 661 393 b 499 243 661 294 613 243 l 386 243 l 386 411 l 500 411 b 533 447 526 411 533 418 l 533 553 b 500 589 533 581 526 589 l 386 589 l 386 743 l 499 743 b 661 593 613 743 661 692 z "},"E":{"ha":817,"x_min":0,"x_max":0,"o":"m 711 986 l 129 986 b 69 928 85 986 69 971 l 69 58 b 129 0 69 15 85 0 l 724 0 b 782 58 767 0 782 15 l 782 185 b 724 243 782 229 767 243 l 344 243 l 344 376 l 638 376 b 697 436 682 376 697 392 l 697 561 b 638 619 697 604 682 619 l 344 619 l 344 743 l 711 743 b 771 803 756 743 771 758 l 771 928 b 711 986 771 971 756 986 z "},"É":{"ha":817,"x_min":0,"x_max":0,"o":"m 435 1269 l 239 1157 b 235 1104 215 1143 214 1131 l 274 1058 b 338 1051 288 1039 304 1042 l 589 1129 b 597 1185 624 1142 622 1157 l 526 1265 b 435 1269 499 1296 467 1288 z m 711 986 l 129 986 b 69 928 85 986 69 971 l 69 58 b 129 0 69 15 85 0 l 724 0 b 782 58 767 0 782 15 l 782 185 b 724 243 782 229 767 243 l 344 243 l 344 376 l 638 376 b 697 436 682 376 697 392 l 697 561 b 638 619 697 604 682 619 l 344 619 l 344 743 l 711 743 b 771 803 756 743 771 758 l 771 928 b 711 986 771 971 756 986 z "},"Ĕ":{"ha":817,"x_min":0,"x_max":0,"o":"m 667 1194 b 643 1243 676 1221 669 1233 l 546 1279 b 496 1261 517 1288 510 1285 b 421 1215 478 1231 456 1215 b 344 1261 385 1215 361 1231 b 292 1278 331 1285 322 1289 l 200 1243 b 176 1194 174 1232 167 1221 b 421 1047 211 1100 299 1047 b 667 1194 544 1047 631 1100 z m 711 986 l 129 986 b 69 928 85 986 69 971 l 69 58 b 129 0 69 15 85 0 l 724 0 b 782 58 767 0 782 15 l 782 185 b 724 243 782 229 767 243 l 344 243 l 344 376 l 638 376 b 697 436 682 376 697 392 l 697 561 b 638 619 697 604 682 619 l 344 619 l 344 743 l 711 743 b 771 803 756 743 771 758 l 771 928 b 711 986 771 971 756 986 z "},"Ě":{"ha":817,"x_min":0,"x_max":0,"o":"m 665 1278 l 560 1278 b 468 1247 507 1278 490 1274 l 426 1200 l 385 1247 b 293 1278 363 1274 349 1278 l 176 1278 b 160 1229 131 1278 138 1251 l 300 1088 b 401 1047 338 1050 349 1047 l 439 1047 b 543 1088 494 1047 506 1050 l 682 1229 b 665 1278 704 1251 710 1278 z m 711 986 l 129 986 b 69 928 85 986 69 971 l 69 58 b 129 0 69 15 85 0 l 724 0 b 782 58 767 0 782 15 l 782 185 b 724 243 782 229 767 243 l 344 243 l 344 376 l 638 376 b 697 436 682 376 697 392 l 697 561 b 638 619 697 604 682 619 l 344 619 l 344 743 l 711 743 b 771 803 756 743 771 758 l 771 928 b 711 986 771 971 756 986 z "},"Ê":{"ha":817,"x_min":0,"x_max":0,"o":"m 449 1278 l 404 1278 b 299 1236 346 1278 335 1274 l 157 1094 b 178 1047 135 1072 132 1047 l 286 1047 b 378 1078 339 1047 354 1050 l 421 1126 l 461 1076 b 553 1047 481 1050 497 1047 l 669 1047 b 690 1094 714 1047 713 1072 l 549 1236 b 449 1278 510 1274 499 1278 z m 711 986 l 129 986 b 69 928 85 986 69 971 l 69 58 b 129 0 69 15 85 0 l 724 0 b 782 58 767 0 782 15 l 782 185 b 724 243 782 229 767 243 l 344 243 l 344 376 l 638 376 b 697 436 682 376 697 392 l 697 561 b 638 619 697 604 682 619 l 344 619 l 344 743 l 711 743 b 771 803 756 743 771 758 l 771 928 b 711 986 771 971 756 986 z "},"Ë":{"ha":817,"x_min":0,"x_max":0,"o":"m 276 1269 l 265 1269 b 165 1171 189 1269 165 1246 l 165 1153 b 265 1054 165 1079 189 1054 l 276 1054 b 378 1153 353 1054 378 1079 l 378 1171 b 276 1269 378 1246 353 1269 z m 575 1269 l 565 1269 b 463 1171 488 1269 463 1246 l 463 1153 b 565 1054 463 1079 488 1054 l 575 1054 b 675 1153 651 1054 675 1079 l 675 1171 b 575 1269 675 1246 651 1269 z m 711 986 l 129 986 b 69 928 85 986 69 971 l 69 58 b 129 0 69 15 85 0 l 724 0 b 782 58 767 0 782 15 l 782 185 b 724 243 782 229 767 243 l 344 243 l 344 376 l 638 376 b 697 436 682 376 697 392 l 697 561 b 638 619 697 604 682 619 l 344 619 l 344 743 l 711 743 b 771 803 756 743 771 758 l 771 928 b 711 986 771 971 756 986 z "},"Ė":{"ha":817,"x_min":0,"x_max":0,"o":"m 425 1271 l 417 1271 b 313 1167 336 1271 313 1247 l 313 1156 b 417 1051 313 1075 336 1051 l 425 1051 b 528 1156 506 1051 528 1075 l 528 1167 b 425 1271 528 1247 506 1271 z m 711 986 l 129 986 b 69 928 85 986 69 971 l 69 58 b 129 0 69 15 85 0 l 724 0 b 782 58 767 0 782 15 l 782 185 b 724 243 782 229 767 243 l 344 243 l 344 376 l 638 376 b 697 436 682 376 697 392 l 697 561 b 638 619 697 604 682 619 l 344 619 l 344 743 l 711 743 b 771 803 756 743 771 758 l 771 928 b 711 986 771 971 756 986 z "},"È":{"ha":817,"x_min":0,"x_max":0,"o":"m 319 1269 l 249 1186 b 256 1131 225 1157 222 1142 l 508 1053 b 572 1058 542 1042 557 1040 l 610 1106 b 607 1158 632 1131 632 1144 l 411 1274 b 319 1269 379 1292 346 1300 z m 711 986 l 129 986 b 69 928 85 986 69 971 l 69 58 b 129 0 69 15 85 0 l 724 0 b 782 58 767 0 782 15 l 782 185 b 724 243 782 229 767 243 l 344 243 l 344 376 l 638 376 b 697 436 682 376 697 392 l 697 561 b 638 619 697 604 682 619 l 344 619 l 344 743 l 711 743 b 771 803 756 743 771 758 l 771 928 b 711 986 771 971 756 986 z "},"Ē":{"ha":817,"x_min":0,"x_max":0,"o":"m 589 1239 l 251 1239 b 201 1189 215 1239 201 1229 l 201 1131 b 251 1081 201 1090 211 1081 l 589 1081 b 640 1131 629 1081 640 1090 l 640 1189 b 589 1239 640 1229 629 1239 z m 711 986 l 129 986 b 69 928 85 986 69 971 l 69 58 b 129 0 69 15 85 0 l 724 0 b 782 58 767 0 782 15 l 782 185 b 724 243 782 229 767 243 l 344 243 l 344 376 l 638 376 b 697 436 682 376 697 392 l 697 561 b 638 619 697 604 682 619 l 344 619 l 344 743 l 711 743 b 771 803 756 743 771 758 l 771 928 b 711 986 771 971 756 986 z "},"Ę":{"ha":817,"x_min":0,"x_max":0,"o":"m 711 986 l 129 986 b 69 928 85 986 69 971 l 69 58 b 129 0 69 15 85 0 l 579 0 b 472 -246 506 -69 456 -164 b 621 -339 488 -318 553 -339 b 775 -292 678 -339 735 -324 b 782 -250 788 -281 790 -271 l 754 -185 b 721 -176 747 -171 736 -167 b 697 -183 713 -182 706 -183 b 672 -160 683 -183 674 -174 b 768 13 664 -103 717 -47 b 782 58 778 24 782 36 l 782 185 b 724 243 782 229 767 243 l 344 243 l 344 376 l 638 376 b 697 436 682 376 697 392 l 697 561 b 638 619 697 604 682 619 l 344 619 l 344 743 l 711 743 b 771 803 756 743 771 758 l 771 928 b 711 986 771 971 756 986 z "},"F":{"ha":799,"x_min":0,"x_max":0,"o":"m 711 986 l 129 986 b 69 928 85 986 69 971 l 69 58 b 129 0 69 15 85 0 l 286 0 b 344 58 331 0 344 15 l 344 339 l 638 339 b 697 399 682 339 697 354 l 697 524 b 638 582 697 567 682 582 l 344 582 l 344 743 l 711 743 b 771 803 756 743 771 758 l 771 928 b 711 986 771 971 756 986 z "},"G":{"ha":940,"x_min":0,"x_max":0,"o":"m 842 567 l 490 567 b 432 507 447 567 432 551 l 432 403 b 490 344 432 358 447 344 l 624 344 l 624 317 b 474 222 624 257 567 222 b 321 367 364 222 321 269 l 321 619 b 474 764 321 717 364 764 b 618 674 551 764 593 736 b 693 636 633 631 650 622 l 842 689 b 879 764 883 703 893 724 b 474 1007 821 919 688 1007 b 46 618 200 1007 46 858 l 46 368 b 474 -21 46 128 200 -21 b 900 324 747 -21 900 128 l 900 507 b 842 567 900 551 886 567 z "},"Ğ":{"ha":940,"x_min":0,"x_max":0,"o":"m 719 1208 b 696 1257 729 1235 722 1247 l 599 1293 b 549 1275 569 1301 563 1299 b 474 1229 531 1244 508 1229 b 397 1275 438 1229 414 1244 b 344 1292 383 1299 375 1303 l 253 1257 b 229 1208 226 1246 219 1235 b 474 1061 264 1114 351 1061 b 719 1208 597 1061 683 1114 z m 842 567 l 490 567 b 432 507 447 567 432 551 l 432 403 b 490 344 432 358 447 344 l 624 344 l 624 317 b 474 222 624 257 567 222 b 321 367 364 222 321 269 l 321 619 b 474 764 321 717 364 764 b 618 674 551 764 593 736 b 693 636 633 631 650 622 l 842 689 b 879 764 883 703 893 724 b 474 1007 821 919 688 1007 b 46 618 200 1007 46 858 l 46 368 b 474 -21 46 128 200 -21 b 900 324 747 -21 900 128 l 900 507 b 842 567 900 551 886 567 z "},"Ĝ":{"ha":940,"x_min":0,"x_max":0,"o":"m 501 1292 l 457 1292 b 351 1250 399 1292 388 1288 l 210 1108 b 231 1061 188 1086 185 1061 l 339 1061 b 431 1092 392 1061 407 1064 l 474 1140 l 514 1090 b 606 1061 533 1064 550 1061 l 722 1061 b 743 1108 767 1061 765 1086 l 601 1250 b 501 1292 563 1288 551 1292 z m 842 567 l 490 567 b 432 507 447 567 432 551 l 432 403 b 490 344 432 358 447 344 l 624 344 l 624 317 b 474 222 624 257 567 222 b 321 367 364 222 321 269 l 321 619 b 474 764 321 717 364 764 b 618 674 551 764 593 736 b 693 636 633 631 650 622 l 842 689 b 879 764 883 703 893 724 b 474 1007 821 919 688 1007 b 46 618 200 1007 46 858 l 46 368 b 474 -21 46 128 200 -21 b 900 324 747 -21 900 128 l 900 507 b 842 567 900 551 886 567 z "},"Ģ":{"ha":940,"x_min":0,"x_max":0,"o":"m 842 567 l 490 567 b 432 507 447 567 432 551 l 432 403 b 490 344 432 358 447 344 l 624 344 l 624 317 b 474 222 624 257 567 222 b 321 367 364 222 321 269 l 321 619 b 474 764 321 717 364 764 b 618 674 551 764 593 736 b 693 636 633 631 650 622 l 842 689 b 879 764 883 703 893 724 b 474 1007 821 919 688 1007 b 46 618 200 1007 46 858 l 46 368 b 474 -21 46 128 200 -21 b 900 324 747 -21 900 128 l 900 507 b 842 567 900 551 886 567 z m 542 -315 l 608 -125 b 561 -67 622 -89 610 -67 l 436 -67 b 375 -125 394 -67 381 -83 l 353 -319 b 390 -361 349 -350 360 -361 l 478 -361 b 542 -315 515 -361 531 -347 z "},"Ġ":{"ha":940,"x_min":0,"x_max":0,"o":"m 478 1285 l 469 1285 b 365 1181 389 1285 365 1261 l 365 1169 b 469 1065 365 1089 389 1065 l 478 1065 b 581 1169 558 1065 581 1089 l 581 1181 b 478 1285 581 1261 558 1285 z m 842 567 l 490 567 b 432 507 447 567 432 551 l 432 403 b 490 344 432 358 447 344 l 624 344 l 624 317 b 474 222 624 257 567 222 b 321 367 364 222 321 269 l 321 619 b 474 764 321 717 364 764 b 618 674 551 764 593 736 b 693 636 633 631 650 622 l 842 689 b 879 764 883 703 893 724 b 474 1007 821 919 688 1007 b 46 618 200 1007 46 858 l 46 368 b 474 -21 46 128 200 -21 b 900 324 747 -21 900 128 l 900 507 b 842 567 900 551 886 567 z "},"H":{"ha":958,"x_min":0,"x_max":0,"o":"m 831 988 l 672 988 b 614 928 629 988 614 972 l 614 621 l 344 621 l 344 928 b 286 988 344 972 331 988 l 129 988 b 69 928 85 988 69 972 l 69 58 b 129 0 69 15 85 0 l 286 0 b 344 58 331 0 344 15 l 344 378 l 614 378 l 614 58 b 672 0 614 15 629 0 l 831 0 b 889 58 874 0 889 15 l 889 928 b 831 988 889 972 874 988 z "},"Ħ":{"ha":1003,"x_min":0,"x_max":0,"o":"m 963 874 l 910 874 l 910 928 b 851 988 910 972 896 988 l 694 988 b 635 928 650 988 635 972 l 635 874 l 367 874 l 367 928 b 307 988 367 972 351 988 l 150 988 b 92 928 106 988 92 972 l 92 874 l 40 874 b 7 838 18 874 7 865 l 7 763 b 40 726 7 733 14 726 l 92 726 l 92 58 b 150 0 92 15 106 0 l 307 0 b 367 58 351 0 367 15 l 367 378 l 635 378 l 635 58 b 694 0 635 15 650 0 l 851 0 b 910 58 896 0 910 15 l 910 726 l 963 726 b 996 763 989 726 996 733 l 996 838 b 963 874 996 865 989 874 z m 635 621 l 367 621 l 367 726 l 635 726 z "},"Ĥ":{"ha":958,"x_min":0,"x_max":0,"o":"m 508 1278 l 464 1278 b 357 1236 404 1278 394 1274 l 215 1094 b 236 1047 193 1072 192 1047 l 346 1047 b 436 1078 397 1047 413 1050 l 479 1126 l 519 1076 b 613 1047 540 1050 557 1047 l 728 1047 b 750 1094 774 1047 771 1072 l 607 1236 b 508 1278 569 1274 557 1278 z m 831 988 l 672 988 b 614 928 629 988 614 972 l 614 621 l 344 621 l 344 928 b 286 988 344 972 331 988 l 129 988 b 69 928 85 988 69 972 l 69 58 b 129 0 69 15 85 0 l 286 0 b 344 58 331 0 344 15 l 344 378 l 614 378 l 614 58 b 672 0 614 15 629 0 l 831 0 b 889 58 874 0 889 15 l 889 928 b 831 988 889 972 874 988 z "},"I":{"ha":415,"x_min":0,"x_max":0,"o":"m 69 931 l 69 56 b 125 0 69 14 83 0 l 289 0 b 344 56 331 0 344 14 l 344 931 b 289 986 344 972 331 986 l 125 986 b 69 931 83 986 69 972 z "},"Ĳ":{"ha":1228,"x_min":0,"x_max":0,"o":"m 1108 988 l 947 988 b 890 929 904 988 890 972 l 890 342 b 789 222 890 261 857 222 b 681 307 733 222 704 251 b 603 340 664 349 644 356 l 458 289 b 421 214 417 274 407 254 b 782 -21 476 65 592 -21 b 1165 343 1035 -21 1165 115 l 1165 929 b 1108 988 1165 972 1150 988 z m 69 931 l 69 56 b 125 0 69 14 83 0 l 289 0 b 344 56 331 0 344 14 l 344 931 b 289 986 344 972 331 986 l 125 986 b 69 931 83 986 69 972 z "},"Í":{"ha":415,"x_min":0,"x_max":0,"o":"m 222 1269 l 26 1157 b 22 1104 1 1143 1 1131 l 61 1058 b 125 1051 75 1039 92 1042 l 376 1129 b 385 1185 410 1142 408 1157 l 314 1265 b 222 1269 286 1296 254 1288 z m 69 931 l 69 56 b 125 0 69 14 83 0 l 289 0 b 344 56 331 0 344 14 l 344 931 b 289 986 344 972 331 986 l 125 986 b 69 931 83 986 69 972 z "},"Ĭ":{"ha":415,"x_min":0,"x_max":0,"o":"m 454 1194 b 431 1243 464 1221 457 1233 l 332 1279 b 283 1261 304 1288 297 1285 b 208 1215 265 1231 243 1215 b 132 1261 172 1215 149 1231 b 79 1278 118 1285 108 1289 l -12 1243 b -36 1194 -39 1232 -47 1221 b 208 1047 -1 1100 86 1047 b 454 1194 331 1047 418 1100 z m 69 931 l 69 56 b 125 0 69 14 83 0 l 289 0 b 344 56 331 0 344 14 l 344 931 b 289 986 344 972 331 986 l 125 986 b 69 931 83 986 69 972 z "},"Î":{"ha":415,"x_min":0,"x_max":0,"o":"m 236 1278 l 192 1278 b 85 1236 133 1278 122 1274 l -57 1094 b -35 1047 -78 1072 -81 1047 l 74 1047 b 164 1078 126 1047 142 1050 l 208 1126 l 247 1076 b 340 1047 268 1050 285 1047 l 457 1047 b 478 1094 501 1047 500 1072 l 335 1236 b 236 1278 297 1274 286 1278 z m 69 931 l 69 56 b 125 0 69 14 83 0 l 289 0 b 344 56 331 0 344 14 l 344 931 b 289 986 344 972 331 986 l 125 986 b 69 931 83 986 69 972 z "},"Ï":{"ha":415,"x_min":0,"x_max":0,"o":"m 64 1269 l 53 1269 b -47 1171 -25 1269 -47 1246 l -47 1153 b 53 1054 -47 1079 -25 1054 l 64 1054 b 165 1153 140 1054 165 1079 l 165 1171 b 64 1269 165 1246 140 1269 z m 363 1269 l 353 1269 b 250 1171 275 1269 250 1246 l 250 1153 b 353 1054 250 1079 275 1054 l 363 1054 b 463 1153 439 1054 463 1079 l 463 1171 b 363 1269 463 1246 439 1269 z m 69 931 l 69 56 b 125 0 69 14 83 0 l 289 0 b 344 56 331 0 344 14 l 344 931 b 289 986 344 972 331 986 l 125 986 b 69 931 83 986 69 972 z "},"İ":{"ha":415,"x_min":0,"x_max":0,"o":"m 213 1271 l 204 1271 b 99 1167 122 1271 99 1247 l 99 1156 b 204 1051 99 1075 122 1051 l 213 1051 b 315 1156 293 1051 315 1075 l 315 1167 b 213 1271 315 1247 293 1271 z m 69 931 l 69 56 b 125 0 69 14 83 0 l 289 0 b 344 56 331 0 344 14 l 344 931 b 289 986 344 972 331 986 l 125 986 b 69 931 83 986 69 972 z "},"Ì":{"ha":415,"x_min":0,"x_max":0,"o":"m 107 1269 l 36 1186 b 43 1131 13 1157 10 1142 l 296 1053 b 360 1058 328 1042 344 1040 l 397 1106 b 394 1158 419 1131 419 1144 l 199 1274 b 107 1269 167 1292 133 1300 z m 69 931 l 69 56 b 125 0 69 14 83 0 l 289 0 b 344 56 331 0 344 14 l 344 931 b 289 986 344 972 331 986 l 125 986 b 69 931 83 986 69 972 z "},"Ī":{"ha":415,"x_min":0,"x_max":0,"o":"m 376 1239 l 38 1239 b -11 1189 3 1239 -11 1229 l -11 1131 b 38 1081 -11 1090 -1 1081 l 376 1081 b 428 1131 417 1081 428 1090 l 428 1189 b 376 1239 428 1229 417 1239 z m 69 931 l 69 56 b 125 0 69 14 83 0 l 289 0 b 344 56 331 0 344 14 l 344 931 b 289 986 344 972 331 986 l 125 986 b 69 931 83 986 69 972 z "},"Į":{"ha":415,"x_min":0,"x_max":0,"o":"m 360 -251 l 331 -186 b 299 -178 325 -172 313 -168 b 272 -186 289 -183 281 -186 b 247 -161 258 -186 250 -176 b 326 6 243 -131 254 -69 b 344 56 340 17 344 31 l 344 931 b 289 986 344 972 331 986 l 125 986 b 69 931 83 986 69 972 l 69 63 b 149 0 69 18 83 0 b 49 -249 76 -74 32 -165 b 197 -342 64 -326 132 -342 b 351 -293 253 -342 313 -324 b 360 -251 365 -283 368 -272 z "},"Ĩ":{"ha":415,"x_min":0,"x_max":0,"o":"m 411 1263 l 328 1263 b 300 1236 307 1263 300 1256 b 281 1206 300 1214 293 1206 b 92 1263 235 1206 197 1263 b -42 1092 11 1263 -42 1224 b -10 1060 -42 1071 -33 1060 l 76 1060 b 103 1088 96 1060 103 1068 b 124 1118 103 1108 110 1118 b 307 1060 169 1118 204 1060 b 443 1231 396 1060 443 1101 b 411 1263 443 1253 436 1263 z m 69 931 l 69 56 b 125 0 69 14 83 0 l 289 0 b 344 56 331 0 344 14 l 344 931 b 289 986 344 972 331 986 l 125 986 b 69 931 83 986 69 972 z "},"J":{"ha":815,"x_min":0,"x_max":0,"o":"m 694 988 l 535 988 b 476 929 490 988 476 972 l 476 342 b 375 222 476 261 443 222 b 267 307 319 222 290 251 b 189 340 250 349 231 356 l 44 289 b 8 214 4 274 -7 254 b 369 -21 63 65 178 -21 b 751 343 621 -21 751 115 l 751 929 b 694 988 751 972 738 988 z "},"Ĵ":{"ha":815,"x_min":0,"x_max":0,"o":"m 643 1278 l 599 1278 b 492 1236 540 1278 529 1274 l 350 1094 b 371 1047 328 1072 326 1047 l 481 1047 b 571 1078 532 1047 547 1050 l 614 1126 l 654 1076 b 747 1047 675 1050 692 1047 l 864 1047 b 885 1094 908 1047 907 1072 l 742 1236 b 643 1278 704 1274 692 1278 z m 694 988 l 535 988 b 476 929 490 988 476 972 l 476 342 b 375 222 476 261 443 222 b 267 307 319 222 290 251 b 189 340 250 349 231 356 l 44 289 b 8 214 4 274 -7 254 b 369 -21 63 65 178 -21 b 751 343 621 -21 751 115 l 751 929 b 694 988 751 972 738 988 z "},"K":{"ha":910,"x_min":0,"x_max":0,"o":"m 894 68 l 711 415 b 626 522 688 463 661 497 l 879 925 b 846 986 901 961 888 986 l 686 986 b 575 935 614 986 601 978 l 375 619 l 344 619 l 344 928 b 286 986 344 971 331 986 l 129 986 b 69 928 85 986 69 971 l 69 58 b 129 0 69 15 85 0 l 286 0 b 344 58 331 0 344 15 l 344 376 l 369 376 b 464 307 422 376 442 351 l 585 58 b 708 0 608 10 635 0 l 858 0 b 894 68 904 0 914 31 z "},"Ķ":{"ha":910,"x_min":0,"x_max":0,"o":"m 894 68 l 711 415 b 626 522 688 463 661 497 l 879 925 b 846 986 901 961 888 986 l 686 986 b 575 935 614 986 601 978 l 375 619 l 344 619 l 344 928 b 286 986 344 971 331 986 l 129 986 b 69 928 85 986 69 971 l 69 58 b 129 0 69 15 85 0 l 286 0 b 344 58 331 0 344 15 l 344 376 l 369 376 b 464 307 422 376 442 351 l 585 58 b 708 0 608 10 635 0 l 858 0 b 894 68 904 0 914 31 z m 519 -315 l 586 -125 b 539 -67 600 -89 588 -67 l 415 -67 b 353 -125 372 -67 358 -83 l 331 -319 b 368 -361 328 -350 338 -361 l 457 -361 b 519 -315 493 -361 508 -347 z "},"L":{"ha":753,"x_min":0,"x_max":0,"o":"m 286 986 l 129 986 b 69 928 85 986 69 971 l 69 58 b 129 0 69 15 85 0 l 679 0 b 738 58 722 0 738 15 l 738 185 b 679 243 738 229 722 243 l 344 243 l 344 928 b 286 986 344 971 331 986 z "},"Ĺ":{"ha":753,"x_min":0,"x_max":0,"o":"m 222 1269 l 26 1157 b 22 1104 1 1143 1 1131 l 61 1058 b 125 1051 75 1039 92 1042 l 376 1129 b 385 1185 410 1142 408 1157 l 314 1265 b 222 1269 286 1296 254 1288 z m 286 986 l 129 986 b 69 928 85 986 69 971 l 69 58 b 129 0 69 15 85 0 l 679 0 b 738 58 722 0 738 15 l 738 185 b 679 243 738 229 722 243 l 344 243 l 344 928 b 286 986 344 971 331 986 z "},"Ľ":{"ha":757,"x_min":0,"x_max":0,"o":"m 285 986 l 128 986 b 69 928 83 986 69 971 l 69 58 b 128 0 69 15 83 0 l 678 0 b 736 58 722 0 736 15 l 736 185 b 678 243 736 229 722 243 l 344 243 l 344 928 b 285 986 344 971 329 986 z m 614 713 l 694 932 b 647 986 707 968 696 986 l 522 986 b 461 932 479 986 465 974 l 435 701 b 468 665 432 674 438 665 l 549 665 b 614 713 589 665 600 676 z "},"Ļ":{"ha":753,"x_min":0,"x_max":0,"o":"m 286 986 l 129 986 b 69 928 85 986 69 971 l 69 58 b 129 0 69 15 85 0 l 679 0 b 738 58 722 0 738 15 l 738 185 b 679 243 738 229 722 243 l 344 243 l 344 928 b 286 986 344 971 331 986 z m 444 -315 l 511 -125 b 464 -67 525 -89 514 -67 l 340 -67 b 279 -125 299 -67 283 -83 l 256 -319 b 293 -361 253 -350 263 -361 l 382 -361 b 444 -315 418 -361 433 -347 z "},"Ŀ":{"ha":757,"x_min":0,"x_max":0,"o":"m 286 986 l 129 986 b 69 928 85 986 69 971 l 69 58 b 129 0 69 15 85 0 l 679 0 b 738 58 722 0 738 15 l 738 185 b 679 243 738 229 722 243 l 344 243 l 344 928 b 286 986 344 971 331 986 z m 582 694 l 532 694 b 429 592 454 694 429 669 l 429 539 b 532 436 429 461 454 436 l 582 436 b 685 539 660 436 685 461 l 685 592 b 582 694 685 669 660 694 z "},"Ł":{"ha":819,"x_min":0,"x_max":0,"o":"m 744 243 l 411 243 l 411 468 l 640 571 b 658 621 663 581 669 597 l 624 690 b 567 708 613 714 599 724 l 411 639 l 411 928 b 351 986 411 971 396 986 l 194 986 b 136 928 150 986 136 971 l 136 517 l 7 458 b -11 408 -15 449 -22 431 l 24 338 b 81 321 36 314 49 306 l 136 344 l 136 58 b 194 0 136 15 150 0 l 744 0 b 803 58 789 0 803 15 l 803 185 b 744 243 803 229 789 243 z "},"M":{"ha":1146,"x_min":0,"x_max":0,"o":"m 1017 988 l 878 988 b 800 943 832 988 819 981 l 571 494 l 342 944 b 260 988 322 979 308 988 l 129 988 b 69 929 85 988 69 974 l 69 57 b 129 0 69 14 85 0 l 271 0 b 331 57 315 0 331 14 l 331 254 b 274 619 331 350 324 419 l 288 619 b 374 390 301 571 344 443 l 456 233 b 522 193 471 203 485 193 l 615 193 b 682 233 653 193 667 206 l 760 390 b 853 619 789 447 839 574 l 868 619 b 807 256 815 435 807 347 l 807 57 b 865 0 807 14 821 0 l 1017 0 b 1076 57 1061 0 1076 14 l 1076 929 b 1017 988 1076 974 1061 988 z "},"N":{"ha":972,"x_min":0,"x_max":0,"o":"m 844 986 l 703 986 b 644 928 658 986 644 971 l 644 700 b 707 349 644 558 663 492 l 696 349 b 579 603 651 454 640 507 l 351 958 b 293 986 339 978 325 986 l 129 986 b 69 928 85 986 69 971 l 69 58 b 129 0 69 15 85 0 l 269 0 b 329 58 314 0 329 15 l 329 285 b 283 643 329 439 313 510 l 294 643 b 417 357 332 518 356 453 l 631 28 b 688 0 643 8 658 0 l 844 0 b 903 58 888 0 903 15 l 903 928 b 844 986 903 971 888 986 z "},"Ń":{"ha":972,"x_min":0,"x_max":0,"o":"m 504 1269 l 308 1157 b 306 1104 285 1143 283 1131 l 343 1058 b 407 1051 358 1039 374 1042 l 660 1129 b 667 1185 693 1142 692 1157 l 596 1265 b 504 1269 568 1296 536 1288 z m 844 986 l 703 986 b 644 928 658 986 644 971 l 644 700 b 707 349 644 558 663 492 l 696 349 b 579 603 651 454 640 507 l 351 958 b 293 986 339 978 325 986 l 129 986 b 69 928 85 986 69 971 l 69 58 b 129 0 69 15 85 0 l 269 0 b 329 58 314 0 329 15 l 329 285 b 283 643 329 439 313 510 l 294 643 b 417 357 332 518 356 453 l 631 28 b 688 0 643 8 658 0 l 844 0 b 903 58 888 0 903 15 l 903 928 b 844 986 903 971 888 986 z "},"Ň":{"ha":972,"x_min":0,"x_max":0,"o":"m 735 1278 l 629 1278 b 538 1247 576 1278 560 1274 l 496 1200 l 454 1247 b 363 1278 432 1274 418 1278 l 246 1278 b 229 1229 201 1278 208 1251 l 369 1088 b 471 1047 407 1050 418 1047 l 510 1047 b 613 1088 564 1047 575 1050 l 753 1229 b 735 1278 774 1251 779 1278 z m 844 986 l 703 986 b 644 928 658 986 644 971 l 644 700 b 707 349 644 558 663 492 l 696 349 b 579 603 651 454 640 507 l 351 958 b 293 986 339 978 325 986 l 129 986 b 69 928 85 986 69 971 l 69 58 b 129 0 69 15 85 0 l 269 0 b 329 58 314 0 329 15 l 329 285 b 283 643 329 439 313 510 l 294 643 b 417 357 332 518 356 453 l 631 28 b 688 0 643 8 658 0 l 844 0 b 903 58 888 0 903 15 l 903 928 b 844 986 903 971 888 986 z "},"Ņ":{"ha":972,"x_min":0,"x_max":0,"o":"m 844 986 l 703 986 b 644 928 658 986 644 971 l 644 700 b 707 349 644 558 663 492 l 696 349 b 579 603 651 454 640 507 l 351 958 b 293 986 339 978 325 986 l 129 986 b 69 928 85 986 69 971 l 69 58 b 129 0 69 15 85 0 l 269 0 b 329 58 314 0 329 15 l 329 285 b 283 643 329 439 313 510 l 294 643 b 417 357 332 518 356 453 l 631 28 b 688 0 643 8 658 0 l 844 0 b 903 58 888 0 903 15 l 903 928 b 844 986 903 971 888 986 z m 544 -315 l 611 -125 b 564 -67 625 -89 614 -67 l 440 -67 b 379 -125 399 -67 383 -83 l 356 -319 b 393 -361 353 -350 363 -361 l 482 -361 b 544 -315 518 -361 533 -347 z "},"Ŋ":{"ha":972,"x_min":0,"x_max":0,"o":"m 844 986 l 703 986 b 644 928 658 986 644 971 l 644 700 b 707 349 644 558 663 492 l 696 349 b 579 603 651 454 640 507 l 351 958 b 293 986 339 978 325 986 l 129 986 b 69 928 85 986 69 971 l 69 58 b 129 0 69 15 85 0 l 269 0 b 329 58 314 0 329 15 l 329 285 b 283 643 329 439 313 510 l 294 643 b 417 357 332 518 356 453 l 640 15 l 640 3 b 550 -92 640 -58 617 -92 b 494 -147 508 -92 494 -106 l 494 -265 b 550 -319 494 -306 508 -319 b 903 -14 783 -319 903 -226 l 903 928 b 844 986 903 971 888 986 z "},"Ñ":{"ha":972,"x_min":0,"x_max":0,"o":"m 693 1263 l 610 1263 b 583 1236 589 1263 583 1256 b 563 1206 583 1214 575 1206 b 374 1263 517 1206 481 1263 b 242 1092 293 1263 242 1224 b 274 1060 242 1071 250 1060 l 358 1060 b 385 1088 378 1060 385 1068 b 406 1118 385 1108 393 1118 b 590 1060 451 1118 488 1060 b 726 1231 678 1060 726 1101 b 693 1263 726 1253 719 1263 z m 844 986 l 703 986 b 644 928 658 986 644 971 l 644 700 b 707 349 644 558 663 492 l 696 349 b 579 603 651 454 640 507 l 351 958 b 293 986 339 978 325 986 l 129 986 b 69 928 85 986 69 971 l 69 58 b 129 0 69 15 85 0 l 269 0 b 329 58 314 0 329 15 l 329 285 b 283 643 329 439 313 510 l 294 643 b 417 357 332 518 356 453 l 631 28 b 688 0 643 8 658 0 l 844 0 b 903 58 888 0 903 15 l 903 928 b 844 986 903 971 888 986 z "},"O":{"ha":947,"x_min":0,"x_max":0,"o":"m 46 618 l 46 368 b 474 -21 46 128 199 -21 b 900 368 747 -21 900 128 l 900 618 b 474 1007 900 858 747 1007 b 46 618 199 1007 46 858 z m 625 631 l 625 356 b 474 222 625 268 569 222 b 321 356 376 222 321 268 l 321 631 b 474 764 321 718 376 764 b 625 631 569 764 625 718 z "},"Ó":{"ha":947,"x_min":0,"x_max":0,"o":"m 488 1283 l 292 1171 b 288 1118 268 1157 267 1144 l 326 1072 b 390 1065 340 1053 357 1056 l 642 1143 b 650 1199 676 1156 675 1171 l 579 1279 b 488 1283 551 1310 519 1301 z m 46 618 l 46 368 b 474 -21 46 128 199 -21 b 900 368 747 -21 900 128 l 900 618 b 474 1007 900 858 747 1007 b 46 618 199 1007 46 858 z m 625 631 l 625 356 b 474 222 625 268 569 222 b 321 356 376 222 321 268 l 321 631 b 474 764 321 718 376 764 b 625 631 569 764 625 718 z "},"Ŏ":{"ha":947,"x_min":0,"x_max":0,"o":"m 719 1208 b 696 1257 729 1235 722 1247 l 599 1293 b 549 1275 569 1301 563 1299 b 474 1229 531 1244 508 1229 b 397 1275 438 1229 414 1244 b 344 1292 383 1299 375 1303 l 253 1257 b 229 1208 226 1246 219 1235 b 474 1061 264 1114 351 1061 b 719 1208 597 1061 683 1114 z m 46 618 l 46 368 b 474 -21 46 128 199 -21 b 900 368 747 -21 900 128 l 900 618 b 474 1007 900 858 747 1007 b 46 618 199 1007 46 858 z m 625 631 l 625 356 b 474 222 625 268 569 222 b 321 356 376 222 321 268 l 321 631 b 474 764 321 718 376 764 b 625 631 569 764 625 718 z "},"Ô":{"ha":947,"x_min":0,"x_max":0,"o":"m 501 1292 l 457 1292 b 351 1250 399 1292 388 1288 l 210 1108 b 231 1061 188 1086 185 1061 l 339 1061 b 431 1092 392 1061 407 1064 l 474 1140 l 514 1090 b 606 1061 533 1064 550 1061 l 722 1061 b 743 1108 767 1061 765 1086 l 601 1250 b 501 1292 563 1288 551 1292 z m 46 618 l 46 368 b 474 -21 46 128 199 -21 b 900 368 747 -21 900 128 l 900 618 b 474 1007 900 858 747 1007 b 46 618 199 1007 46 858 z m 625 631 l 625 356 b 474 222 625 268 569 222 b 321 356 376 222 321 268 l 321 631 b 474 764 321 718 376 764 b 625 631 569 764 625 718 z "},"Ö":{"ha":947,"x_min":0,"x_max":0,"o":"m 329 1283 l 318 1283 b 218 1185 242 1283 218 1260 l 218 1167 b 318 1068 218 1093 242 1068 l 329 1068 b 431 1167 406 1068 431 1093 l 431 1185 b 329 1283 431 1260 406 1283 z m 628 1283 l 618 1283 b 515 1185 540 1283 515 1260 l 515 1167 b 618 1068 515 1093 540 1068 l 628 1068 b 728 1167 704 1068 728 1093 l 728 1185 b 628 1283 728 1260 704 1283 z m 46 618 l 46 368 b 474 -21 46 128 199 -21 b 900 368 747 -21 900 128 l 900 618 b 474 1007 900 858 747 1007 b 46 618 199 1007 46 858 z m 625 631 l 625 356 b 474 222 625 268 569 222 b 321 356 376 222 321 268 l 321 631 b 474 764 321 718 376 764 b 625 631 569 764 625 718 z "},"Ò":{"ha":947,"x_min":0,"x_max":0,"o":"m 372 1283 l 301 1200 b 308 1144 278 1171 275 1156 l 561 1067 b 625 1072 594 1056 610 1054 l 663 1119 b 660 1172 685 1144 685 1158 l 464 1288 b 372 1283 432 1306 399 1314 z m 46 618 l 46 368 b 474 -21 46 128 199 -21 b 900 368 747 -21 900 128 l 900 618 b 474 1007 900 858 747 1007 b 46 618 199 1007 46 858 z m 625 631 l 625 356 b 474 222 625 268 569 222 b 321 356 376 222 321 268 l 321 631 b 474 764 321 718 376 764 b 625 631 569 764 625 718 z "},"Ő":{"ha":947,"x_min":0,"x_max":0,"o":"m 318 1260 l 219 1128 b 236 1075 203 1104 201 1082 l 299 1064 b 360 1085 322 1057 333 1063 l 517 1217 b 501 1275 543 1240 539 1267 l 408 1296 b 318 1260 367 1304 342 1293 z m 593 1260 l 488 1126 b 504 1074 469 1104 469 1081 l 565 1060 b 626 1081 590 1054 601 1060 l 796 1208 b 781 1268 825 1231 818 1257 l 685 1293 b 593 1260 643 1304 619 1292 z m 46 618 l 46 368 b 474 -21 46 128 199 -21 b 900 368 747 -21 900 128 l 900 618 b 474 1007 900 858 747 1007 b 46 618 199 1007 46 858 z m 625 631 l 625 356 b 474 222 625 268 569 222 b 321 356 376 222 321 268 l 321 631 b 474 764 321 718 376 764 b 625 631 569 764 625 718 z "},"Ō":{"ha":947,"x_min":0,"x_max":0,"o":"m 642 1253 l 304 1253 b 254 1203 268 1253 254 1243 l 254 1144 b 304 1094 254 1104 264 1094 l 642 1094 b 693 1144 682 1094 693 1104 l 693 1203 b 642 1253 693 1243 682 1253 z m 46 618 l 46 368 b 474 -21 46 128 199 -21 b 900 368 747 -21 900 128 l 900 618 b 474 1007 900 858 747 1007 b 46 618 199 1007 46 858 z m 625 631 l 625 356 b 474 222 625 268 569 222 b 321 356 376 222 321 268 l 321 631 b 474 764 321 718 376 764 b 625 631 569 764 625 718 z "},"Ø":{"ha":947,"x_min":0,"x_max":0,"o":"m 908 1046 l 775 1046 b 728 1024 749 1046 742 1044 l 690 967 b 474 1007 631 993 558 1007 b 46 618 199 1007 46 858 l 46 368 b 129 111 46 264 75 176 l 36 -32 b 47 -58 26 -46 29 -58 l 178 -58 b 226 -36 210 -58 213 -57 l 261 17 b 474 -21 319 -8 392 -21 b 900 368 747 -19 900 128 l 900 618 b 821 869 900 719 874 806 l 921 1021 b 908 1046 929 1035 926 1046 z m 556 747 l 324 392 b 321 428 322 404 321 415 l 321 631 b 474 764 321 718 376 764 b 556 747 506 764 533 758 z m 396 236 l 624 586 b 625 553 625 576 625 564 l 625 356 b 474 222 625 268 569 222 b 396 236 443 222 418 228 z "},"Ǿ":{"ha":947,"x_min":0,"x_max":0,"o":"m 489 1283 l 293 1171 b 289 1118 268 1157 267 1144 l 326 1072 b 392 1065 342 1053 358 1056 l 643 1143 b 651 1199 676 1156 675 1171 l 581 1279 b 489 1283 551 1310 521 1301 z m 908 1046 l 775 1046 b 728 1024 749 1046 742 1044 l 690 967 b 474 1007 631 993 558 1007 b 46 618 199 1007 46 858 l 46 368 b 129 111 46 264 75 176 l 36 -32 b 47 -58 26 -46 29 -58 l 178 -58 b 226 -36 210 -58 213 -57 l 261 17 b 474 -21 319 -8 392 -21 b 900 368 747 -19 900 128 l 900 618 b 821 869 900 719 874 806 l 921 1021 b 908 1046 929 1035 926 1046 z m 556 747 l 324 392 b 321 428 322 404 321 415 l 321 631 b 474 764 321 718 376 764 b 556 747 506 764 533 758 z m 396 236 l 624 586 b 625 553 625 576 625 564 l 625 356 b 474 222 625 268 569 222 b 396 236 443 222 418 228 z "},"Õ":{"ha":947,"x_min":0,"x_max":0,"o":"m 676 1276 l 593 1276 b 567 1250 572 1276 567 1269 b 546 1219 567 1228 558 1219 b 357 1276 500 1219 464 1276 b 224 1106 276 1276 224 1238 b 257 1074 224 1085 232 1074 l 342 1074 b 368 1101 361 1074 368 1082 b 389 1132 368 1122 376 1132 b 574 1074 435 1132 471 1074 b 708 1244 661 1074 708 1115 b 676 1276 708 1267 701 1276 z m 46 618 l 46 368 b 474 -21 46 128 199 -21 b 900 368 747 -21 900 128 l 900 618 b 474 1007 900 858 747 1007 b 46 618 199 1007 46 858 z m 625 631 l 625 356 b 474 222 625 268 569 222 b 321 356 376 222 321 268 l 321 631 b 474 764 321 718 376 764 b 625 631 569 764 625 718 z "},"Œ":{"ha":1228,"x_min":0,"x_max":0,"o":"m 1135 243 l 832 243 l 832 376 l 1049 376 b 1108 436 1093 376 1108 392 l 1108 561 b 1049 619 1108 604 1093 619 l 832 619 l 832 743 l 1124 743 b 1182 803 1167 743 1182 758 l 1182 928 b 1124 986 1182 971 1167 986 l 635 986 b 474 1007 588 1000 533 1007 b 46 618 199 1007 46 858 l 46 368 b 474 -21 46 128 199 -21 b 646 0 538 -21 592 -17 l 1135 0 b 1193 58 1179 0 1193 15 l 1193 185 b 1135 243 1193 229 1179 243 z m 321 356 l 321 631 b 474 764 321 718 376 764 b 557 747 506 764 533 758 l 557 239 b 474 222 533 228 506 222 b 321 356 376 222 321 268 z "},"P":{"ha":899,"x_min":0,"x_max":0,"o":"m 513 986 l 129 986 b 69 928 85 986 69 971 l 69 58 b 129 0 69 15 85 0 l 286 0 b 344 58 331 0 344 15 l 344 296 l 515 296 b 871 639 731 296 871 419 b 513 986 871 860 729 986 z m 482 539 l 344 539 l 344 743 l 482 743 b 586 640 547 743 586 701 b 482 539 586 579 547 539 z "},"Þ":{"ha":883,"x_min":0,"x_max":0,"o":"m 493 861 l 343 861 l 343 928 b 285 986 343 971 329 986 l 128 986 b 69 928 83 986 69 971 l 69 58 b 128 0 69 15 83 0 l 285 0 b 343 58 329 0 343 15 l 343 139 l 493 139 b 861 499 717 139 861 275 b 493 861 861 724 717 861 z m 458 382 l 343 382 l 343 618 l 458 618 b 576 500 532 618 576 567 b 458 382 576 432 532 382 z "},"Q":{"ha":965,"x_min":0,"x_max":0,"o":"m 913 49 l 836 139 b 900 368 879 200 900 276 l 900 618 b 474 1007 900 858 747 1007 b 46 618 199 1007 46 858 l 46 368 b 474 -21 46 128 199 -21 b 631 -1 532 -21 585 -14 l 721 -108 b 803 -115 749 -142 771 -143 l 906 -35 b 913 49 939 -4 940 15 z m 321 356 l 321 631 b 474 764 321 718 376 764 b 625 631 569 764 625 718 l 625 356 b 474 222 625 268 569 222 b 321 356 376 222 321 268 z "},"R":{"ha":918,"x_min":0,"x_max":0,"o":"m 525 986 l 129 986 b 69 928 85 986 69 971 l 69 58 b 129 0 69 15 85 0 l 286 0 b 344 58 331 0 344 15 l 344 328 l 376 328 b 481 257 433 328 457 304 l 569 67 b 697 0 592 18 624 0 l 847 0 b 883 68 893 0 903 31 l 758 306 b 721 365 747 328 735 347 b 871 651 815 418 871 515 b 525 986 871 867 735 986 z m 586 653 b 494 560 586 596 553 560 l 344 560 l 344 743 l 494 743 b 586 653 554 743 586 708 z "},"Ŕ":{"ha":918,"x_min":0,"x_max":0,"o":"m 457 1269 l 261 1157 b 257 1104 236 1143 235 1131 l 294 1058 b 360 1051 310 1039 326 1042 l 611 1129 b 619 1185 644 1142 643 1157 l 549 1265 b 457 1269 519 1296 489 1288 z m 525 986 l 129 986 b 69 928 85 986 69 971 l 69 58 b 129 0 69 15 85 0 l 286 0 b 344 58 331 0 344 15 l 344 328 l 376 328 b 481 257 433 328 457 304 l 569 67 b 697 0 592 18 624 0 l 847 0 b 883 68 893 0 903 31 l 758 306 b 721 365 747 328 735 347 b 871 651 815 418 871 515 b 525 986 871 867 735 986 z m 586 653 b 494 560 586 596 553 560 l 344 560 l 344 743 l 494 743 b 586 653 554 743 586 708 z "},"Ř":{"ha":918,"x_min":0,"x_max":0,"o":"m 686 1278 l 581 1278 b 489 1247 529 1278 513 1274 l 449 1200 l 406 1247 b 314 1278 385 1274 369 1278 l 197 1278 b 182 1229 153 1278 160 1251 l 322 1088 b 424 1047 358 1050 371 1047 l 461 1047 b 565 1088 517 1047 528 1050 l 704 1229 b 686 1278 726 1251 732 1278 z m 525 986 l 129 986 b 69 928 85 986 69 971 l 69 58 b 129 0 69 15 85 0 l 286 0 b 344 58 331 0 344 15 l 344 328 l 376 328 b 481 257 433 328 457 304 l 569 67 b 697 0 592 18 624 0 l 847 0 b 883 68 893 0 903 31 l 758 306 b 721 365 747 328 735 347 b 871 651 815 418 871 515 b 525 986 871 867 735 986 z m 586 653 b 494 560 586 596 553 560 l 344 560 l 344 743 l 494 743 b 586 653 554 743 586 708 z "},"Ŗ":{"ha":918,"x_min":0,"x_max":0,"o":"m 525 986 l 129 986 b 69 928 85 986 69 971 l 69 58 b 129 0 69 15 85 0 l 286 0 b 344 58 331 0 344 15 l 344 328 l 376 328 b 481 257 433 328 457 304 l 569 67 b 697 0 592 18 624 0 l 847 0 b 883 68 893 0 903 31 l 758 306 b 721 365 747 328 735 347 b 871 651 815 418 871 515 b 525 986 871 867 735 986 z m 586 653 b 494 560 586 596 553 560 l 344 560 l 344 743 l 494 743 b 586 653 554 743 586 708 z m 526 -315 l 594 -125 b 547 -67 607 -89 596 -67 l 422 -67 b 361 -125 381 -67 367 -83 l 339 -319 b 375 -361 335 -350 346 -361 l 464 -361 b 526 -315 501 -361 515 -347 z "},"S":{"ha":899,"x_min":0,"x_max":0,"o":"m 39 696 b 429 375 39 426 267 397 b 592 293 521 363 592 347 b 443 214 592 233 536 214 b 286 288 365 214 311 239 b 204 318 265 328 246 332 l 74 271 b 36 194 33 256 21 236 b 440 -21 89 50 233 -21 b 871 296 686 -21 871 92 b 501 619 871 558 663 597 b 319 704 401 632 319 644 b 451 776 319 753 357 776 b 592 704 515 776 565 757 b 667 675 614 664 629 658 l 806 735 b 839 813 847 751 858 772 b 451 1007 774 946 657 1007 b 39 696 186 1007 39 879 z "},"Ś":{"ha":899,"x_min":0,"x_max":0,"o":"m 464 1283 l 268 1171 b 264 1118 243 1157 243 1144 l 303 1072 b 367 1065 317 1053 333 1056 l 618 1143 b 626 1199 651 1156 650 1171 l 556 1279 b 464 1283 528 1310 496 1301 z m 39 696 b 429 375 39 426 267 397 b 592 293 521 363 592 347 b 443 214 592 233 536 214 b 286 288 365 214 311 239 b 204 318 265 328 246 332 l 74 271 b 36 194 33 256 21 236 b 440 -21 89 50 233 -21 b 871 296 686 -21 871 92 b 501 619 871 558 663 597 b 319 704 401 632 319 644 b 451 776 319 753 357 776 b 592 704 515 776 565 757 b 667 675 614 664 629 658 l 806 735 b 839 813 847 751 858 772 b 451 1007 774 946 657 1007 b 39 696 186 1007 39 879 z "},"Š":{"ha":899,"x_min":0,"x_max":0,"o":"m 693 1292 l 588 1292 b 496 1261 536 1292 519 1288 l 456 1214 l 413 1261 b 322 1292 392 1288 376 1292 l 206 1292 b 189 1243 160 1292 167 1265 l 329 1101 b 431 1061 367 1064 378 1061 l 468 1061 b 572 1101 524 1061 535 1064 l 711 1243 b 693 1292 733 1265 739 1292 z m 39 696 b 429 375 39 426 267 397 b 592 293 521 363 592 347 b 443 214 592 233 536 214 b 286 288 365 214 311 239 b 204 318 265 328 246 332 l 74 271 b 36 194 33 256 21 236 b 440 -21 89 50 233 -21 b 871 296 686 -21 871 92 b 501 619 871 558 663 597 b 319 704 401 632 319 644 b 451 776 319 753 357 776 b 592 704 515 776 565 757 b 667 675 614 664 629 658 l 806 735 b 839 813 847 751 858 772 b 451 1007 774 946 657 1007 b 39 696 186 1007 39 879 z "},"Ş":{"ha":897,"x_min":0,"x_max":0,"o":"m 501 619 b 319 704 401 632 319 644 b 450 776 319 753 357 776 b 592 704 514 776 564 757 b 667 675 613 664 628 658 l 806 735 b 839 813 847 751 858 772 b 450 1007 772 946 656 1007 b 39 696 186 1007 39 879 b 429 375 39 426 267 397 b 592 293 519 363 592 347 b 442 214 592 233 536 214 b 286 288 364 214 310 239 b 204 318 264 328 246 332 l 72 271 b 36 194 32 256 21 236 b 397 -19 85 61 213 -11 l 353 -118 b 372 -160 340 -147 346 -160 l 400 -160 b 458 -190 446 -161 458 -169 b 411 -222 458 -208 446 -222 b 335 -201 378 -222 358 -214 b 290 -224 303 -185 290 -197 l 292 -282 b 328 -325 292 -303 299 -314 b 432 -340 363 -337 399 -340 b 640 -201 529 -340 628 -311 b 526 -64 649 -126 604 -65 l 513 -64 l 532 -15 b 871 296 732 10 871 118 b 501 619 871 558 661 597 z "},"Ŝ":{"ha":899,"x_min":0,"x_max":0,"o":"m 478 1292 l 433 1292 b 326 1250 375 1292 364 1288 l 185 1108 b 207 1061 164 1086 161 1061 l 315 1061 b 406 1092 368 1061 383 1064 l 450 1140 l 489 1090 b 582 1061 510 1064 526 1061 l 699 1061 b 719 1108 743 1061 742 1086 l 576 1250 b 478 1292 539 1288 528 1292 z m 39 696 b 429 375 39 426 267 397 b 592 293 521 363 592 347 b 443 214 592 233 536 214 b 286 288 365 214 311 239 b 204 318 265 328 246 332 l 74 271 b 36 194 33 256 21 236 b 440 -21 89 50 233 -21 b 871 296 686 -21 871 92 b 501 619 871 558 663 597 b 319 704 401 632 319 644 b 451 776 319 753 357 776 b 592 704 515 776 565 757 b 667 675 614 664 629 658 l 806 735 b 839 813 847 751 858 772 b 451 1007 774 946 657 1007 b 39 696 186 1007 39 879 z "},"Ș":{"ha":899,"x_min":0,"x_max":0,"o":"m 39 696 b 429 375 39 426 267 397 b 592 293 521 363 592 347 b 443 214 592 233 536 214 b 286 288 365 214 311 239 b 204 318 265 328 246 332 l 74 271 b 36 194 33 256 21 236 b 440 -21 89 50 233 -21 b 871 296 686 -21 871 92 b 501 619 871 558 663 597 b 319 704 401 632 319 644 b 451 776 319 753 357 776 b 592 704 515 776 565 757 b 667 675 614 664 629 658 l 806 735 b 839 813 847 751 858 772 b 451 1007 774 946 657 1007 b 39 696 186 1007 39 879 z m 515 -315 l 582 -125 b 535 -67 596 -89 583 -67 l 410 -67 b 349 -125 368 -67 354 -83 l 326 -319 b 364 -361 322 -350 333 -361 l 451 -361 b 515 -315 489 -361 504 -347 z "},"T":{"ha":838,"x_min":0,"x_max":0,"o":"m 763 986 l 75 986 b 17 928 31 986 17 971 l 17 803 b 75 743 17 758 31 743 l 282 743 l 282 58 b 340 0 282 15 296 0 l 497 0 b 557 58 542 0 557 15 l 557 743 l 763 743 b 822 803 807 743 822 758 l 822 928 b 763 986 822 971 807 986 z "},"Ŧ":{"ha":853,"x_min":0,"x_max":0,"o":"m 771 986 l 83 986 b 24 928 39 986 24 971 l 24 803 b 83 743 24 758 39 743 l 289 743 l 289 517 l 157 517 b 122 481 133 517 122 508 l 122 388 b 157 350 122 357 131 350 l 289 350 l 289 58 b 349 0 289 15 304 0 l 506 0 b 564 58 550 0 564 15 l 564 350 l 697 350 b 732 388 724 350 732 357 l 732 481 b 697 517 732 508 724 517 l 564 517 l 564 743 l 771 743 b 829 803 815 743 829 758 l 829 928 b 771 986 829 971 815 986 z "},"Ť":{"ha":838,"x_min":0,"x_max":0,"o":"m 664 1278 l 558 1278 b 467 1247 506 1278 489 1274 l 425 1200 l 383 1247 b 292 1278 361 1274 347 1278 l 175 1278 b 158 1229 129 1278 136 1251 l 299 1088 b 400 1047 336 1050 347 1047 l 438 1047 b 542 1088 493 1047 504 1050 l 681 1229 b 664 1278 703 1251 708 1278 z m 763 986 l 75 986 b 17 928 31 986 17 971 l 17 803 b 75 743 17 758 31 743 l 282 743 l 282 58 b 340 0 282 15 296 0 l 497 0 b 557 58 542 0 557 15 l 557 743 l 763 743 b 822 803 807 743 822 758 l 822 928 b 763 986 822 971 807 986 z "},"U":{"ha":961,"x_min":0,"x_max":0,"o":"m 338 350 l 338 928 b 278 986 338 971 322 986 l 121 986 b 63 928 76 986 63 971 l 63 363 b 481 -21 63 129 207 -21 b 900 363 756 -21 900 129 l 900 928 b 840 986 900 971 885 986 l 683 986 b 625 928 639 986 625 971 l 625 350 b 481 222 625 268 576 222 b 338 350 385 222 338 268 z "},"Ú":{"ha":961,"x_min":0,"x_max":0,"o":"m 494 1269 l 299 1157 b 296 1104 275 1143 274 1131 l 333 1058 b 397 1051 349 1039 365 1042 l 650 1129 b 657 1185 683 1142 682 1157 l 586 1265 b 494 1269 558 1296 526 1288 z m 338 350 l 338 928 b 278 986 338 971 322 986 l 121 986 b 63 928 76 986 63 971 l 63 363 b 481 -21 63 129 207 -21 b 900 363 756 -21 900 129 l 900 928 b 840 986 900 971 885 986 l 683 986 b 625 928 639 986 625 971 l 625 350 b 481 222 625 268 576 222 b 338 350 385 222 338 268 z "},"Ŭ":{"ha":961,"x_min":0,"x_max":0,"o":"m 728 1194 b 703 1243 738 1221 731 1233 l 606 1279 b 557 1261 578 1288 571 1285 b 481 1215 539 1231 517 1215 b 406 1261 444 1215 422 1231 b 351 1278 392 1285 382 1289 l 260 1243 b 236 1194 233 1232 226 1221 b 481 1047 272 1100 358 1047 b 728 1194 604 1047 692 1100 z m 338 350 l 338 928 b 278 986 338 971 322 986 l 121 986 b 63 928 76 986 63 971 l 63 363 b 481 -21 63 129 207 -21 b 900 363 756 -21 900 129 l 900 928 b 840 986 900 971 885 986 l 683 986 b 625 928 639 986 625 971 l 625 350 b 481 222 625 268 576 222 b 338 350 385 222 338 268 z "},"Û":{"ha":961,"x_min":0,"x_max":0,"o":"m 510 1278 l 465 1278 b 358 1236 406 1278 396 1274 l 217 1094 b 238 1047 194 1072 193 1047 l 347 1047 b 438 1078 399 1047 414 1050 l 481 1126 l 521 1076 b 614 1047 542 1050 558 1047 l 729 1047 b 751 1094 775 1047 772 1072 l 608 1236 b 510 1278 571 1274 558 1278 z m 338 350 l 338 928 b 278 986 338 971 322 986 l 121 986 b 63 928 76 986 63 971 l 63 363 b 481 -21 63 129 207 -21 b 900 363 756 -21 900 129 l 900 928 b 840 986 900 971 885 986 l 683 986 b 625 928 639 986 625 971 l 625 350 b 481 222 625 268 576 222 b 338 350 385 222 338 268 z "},"Ü":{"ha":961,"x_min":0,"x_max":0,"o":"m 336 1269 l 326 1269 b 226 1171 249 1269 226 1246 l 226 1153 b 326 1054 226 1079 249 1054 l 336 1054 b 439 1153 414 1054 439 1079 l 439 1171 b 336 1269 439 1246 414 1269 z m 635 1269 l 625 1269 b 524 1171 549 1269 524 1246 l 524 1153 b 625 1054 524 1079 549 1054 l 635 1054 b 736 1153 713 1054 736 1079 l 736 1171 b 635 1269 736 1246 713 1269 z m 338 350 l 338 928 b 278 986 338 971 322 986 l 121 986 b 63 928 76 986 63 971 l 63 363 b 481 -21 63 129 207 -21 b 900 363 756 -21 900 129 l 900 928 b 840 986 900 971 885 986 l 683 986 b 625 928 639 986 625 971 l 625 350 b 481 222 625 268 576 222 b 338 350 385 222 338 268 z "},"Ù":{"ha":961,"x_min":0,"x_max":0,"o":"m 379 1269 l 308 1186 b 317 1131 285 1157 283 1142 l 568 1053 b 632 1058 601 1042 618 1040 l 671 1106 b 667 1158 692 1131 692 1144 l 471 1274 b 379 1269 439 1292 406 1300 z m 338 350 l 338 928 b 278 986 338 971 322 986 l 121 986 b 63 928 76 986 63 971 l 63 363 b 481 -21 63 129 207 -21 b 900 363 756 -21 900 129 l 900 928 b 840 986 900 971 885 986 l 683 986 b 625 928 639 986 625 971 l 625 350 b 481 222 625 268 576 222 b 338 350 385 222 338 268 z "},"Ű":{"ha":961,"x_min":0,"x_max":0,"o":"m 325 1246 l 226 1114 b 244 1061 210 1090 210 1068 l 306 1050 b 367 1071 331 1043 340 1049 l 524 1203 b 508 1261 551 1226 546 1253 l 415 1282 b 325 1246 374 1290 349 1279 z m 601 1246 l 496 1113 b 511 1060 478 1090 478 1067 l 572 1046 b 635 1067 597 1040 608 1046 l 803 1194 b 789 1254 832 1217 826 1243 l 692 1279 b 601 1246 651 1290 626 1278 z m 338 350 l 338 928 b 278 986 338 971 322 986 l 121 986 b 63 928 76 986 63 971 l 63 363 b 481 -21 63 129 207 -21 b 900 363 756 -21 900 129 l 900 928 b 840 986 900 971 885 986 l 683 986 b 625 928 639 986 625 971 l 625 350 b 481 222 625 268 576 222 b 338 350 385 222 338 268 z "},"Ū":{"ha":961,"x_min":0,"x_max":0,"o":"m 650 1239 l 311 1239 b 261 1189 276 1239 261 1229 l 261 1131 b 311 1081 261 1090 272 1081 l 650 1081 b 700 1131 690 1081 700 1090 l 700 1189 b 650 1239 700 1229 690 1239 z m 338 350 l 338 928 b 278 986 338 971 322 986 l 121 986 b 63 928 76 986 63 971 l 63 363 b 481 -21 63 129 207 -21 b 900 363 756 -21 900 129 l 900 928 b 840 986 900 971 885 986 l 683 986 b 625 928 639 986 625 971 l 625 350 b 481 222 625 268 576 222 b 338 350 385 222 338 268 z "},"Ų":{"ha":961,"x_min":0,"x_max":0,"o":"m 840 986 l 683 986 b 625 928 639 986 625 971 l 625 350 b 481 222 625 268 576 222 b 338 350 385 222 338 268 l 338 928 b 278 986 338 971 322 986 l 121 986 b 63 928 76 986 63 971 l 63 363 b 481 -21 63 129 207 -21 b 540 -18 501 -21 521 -21 b 451 -253 476 -90 436 -181 b 590 -342 464 -321 524 -342 b 746 -293 646 -342 706 -324 b 753 -251 758 -283 761 -272 l 725 -186 b 692 -178 718 -172 707 -168 b 667 -186 682 -183 674 -186 b 640 -161 653 -186 643 -176 b 781 72 636 -131 672 -35 b 900 363 858 139 900 239 l 900 928 b 840 986 900 971 885 986 z "},"Ů":{"ha":961,"x_min":0,"x_max":0,"o":"m 301 1188 b 483 1026 301 1086 378 1026 b 660 1188 586 1026 660 1088 b 483 1350 660 1288 588 1350 b 301 1188 378 1350 301 1290 z m 531 1188 b 483 1140 531 1158 511 1140 b 431 1188 450 1140 431 1160 b 483 1238 431 1218 450 1238 b 531 1188 511 1238 531 1218 z m 338 350 l 338 928 b 278 986 338 971 322 986 l 121 986 b 63 928 76 986 63 971 l 63 363 b 481 -21 63 129 207 -21 b 900 363 756 -21 900 129 l 900 928 b 840 986 900 971 885 986 l 683 986 b 625 928 639 986 625 971 l 625 350 b 481 222 625 268 576 222 b 338 350 385 222 338 268 z "},"Ũ":{"ha":961,"x_min":0,"x_max":0,"o":"m 685 1263 l 600 1263 b 574 1236 581 1263 574 1256 b 553 1206 574 1214 567 1206 b 365 1263 508 1206 471 1263 b 232 1092 285 1263 232 1224 b 264 1060 232 1071 240 1060 l 349 1060 b 376 1088 368 1060 376 1068 b 396 1118 376 1108 383 1118 b 581 1060 442 1118 478 1060 b 717 1231 669 1060 717 1101 b 685 1263 717 1253 710 1263 z m 338 350 l 338 928 b 278 986 338 971 322 986 l 121 986 b 63 928 76 986 63 971 l 63 363 b 481 -21 63 129 207 -21 b 900 363 756 -21 900 129 l 900 928 b 840 986 900 971 885 986 l 683 986 b 625 928 639 986 625 971 l 625 350 b 481 222 625 268 576 222 b 338 350 385 222 338 268 z "},"V":{"ha":947,"x_min":0,"x_max":0,"o":"m 903 986 l 746 986 b 646 928 678 986 657 971 l 514 451 b 485 274 490 369 485 274 l 472 274 b 442 453 472 274 464 371 l 310 928 b 206 986 299 971 276 986 l 47 986 b 7 929 6 986 -7 967 l 315 46 b 388 0 328 10 347 0 l 561 0 b 633 49 601 0 619 8 l 940 929 b 903 986 954 967 944 986 z "},"W":{"ha":1304,"x_min":0,"x_max":0,"o":"m 1249 986 l 1094 986 b 1015 935 1044 986 1024 978 l 957 571 b 936 325 946 494 938 364 l 925 325 b 899 571 924 367 915 492 l 814 935 b 736 986 804 978 779 986 l 586 986 b 508 935 542 986 518 979 l 422 571 b 396 325 406 496 396 367 l 386 325 b 367 571 386 364 379 499 l 306 935 b 228 986 297 978 276 986 l 57 986 b 19 929 14 986 10 968 l 239 46 b 311 0 247 8 271 0 l 471 0 b 543 49 510 0 532 8 l 617 369 b 647 619 636 460 644 540 l 658 619 b 685 369 660 540 667 457 l 760 46 b 832 0 768 10 792 0 l 994 0 b 1065 49 1033 0 1056 8 l 1286 929 b 1249 986 1296 968 1292 986 z "},"Ẃ":{"ha":1304,"x_min":0,"x_max":0,"o":"m 675 1269 l 479 1157 b 475 1104 456 1143 454 1131 l 514 1058 b 578 1051 528 1039 544 1042 l 829 1129 b 838 1185 864 1142 863 1157 l 767 1265 b 675 1269 739 1296 707 1288 z m 1249 986 l 1094 986 b 1015 935 1044 986 1024 978 l 957 571 b 936 325 946 494 938 364 l 925 325 b 899 571 924 367 915 492 l 814 935 b 736 986 804 978 779 986 l 586 986 b 508 935 542 986 518 979 l 422 571 b 396 325 406 496 396 367 l 386 325 b 367 571 386 364 379 499 l 306 935 b 228 986 297 978 276 986 l 57 986 b 19 929 14 986 10 968 l 239 46 b 311 0 247 8 271 0 l 471 0 b 543 49 510 0 532 8 l 617 369 b 647 619 636 460 644 540 l 658 619 b 685 369 660 540 667 457 l 760 46 b 832 0 768 10 792 0 l 994 0 b 1065 49 1033 0 1056 8 l 1286 929 b 1249 986 1296 968 1292 986 z "},"Ŵ":{"ha":1304,"x_min":0,"x_max":0,"o":"m 689 1278 l 644 1278 b 539 1236 586 1278 575 1274 l 397 1094 b 418 1047 375 1072 372 1047 l 526 1047 b 618 1078 579 1047 594 1050 l 661 1126 l 701 1076 b 793 1047 721 1050 738 1047 l 910 1047 b 931 1094 954 1047 953 1072 l 789 1236 b 689 1278 750 1274 739 1278 z m 1249 986 l 1094 986 b 1015 935 1044 986 1024 978 l 957 571 b 936 325 946 494 938 364 l 925 325 b 899 571 924 367 915 492 l 814 935 b 736 986 804 978 779 986 l 586 986 b 508 935 542 986 518 979 l 422 571 b 396 325 406 496 396 367 l 386 325 b 367 571 386 364 379 499 l 306 935 b 228 986 297 978 276 986 l 57 986 b 19 929 14 986 10 968 l 239 46 b 311 0 247 8 271 0 l 471 0 b 543 49 510 0 532 8 l 617 369 b 647 619 636 460 644 540 l 658 619 b 685 369 660 540 667 457 l 760 46 b 832 0 768 10 792 0 l 994 0 b 1065 49 1033 0 1056 8 l 1286 929 b 1249 986 1296 968 1292 986 z "},"Ẅ":{"ha":1304,"x_min":0,"x_max":0,"o":"m 517 1269 l 506 1269 b 406 1171 429 1269 406 1246 l 406 1153 b 506 1054 406 1079 429 1054 l 517 1054 b 618 1153 593 1054 618 1079 l 618 1171 b 517 1269 618 1246 593 1269 z m 815 1269 l 806 1269 b 703 1171 728 1269 703 1246 l 703 1153 b 806 1054 703 1079 728 1054 l 815 1054 b 915 1153 892 1054 915 1079 l 915 1171 b 815 1269 915 1246 892 1269 z m 1249 986 l 1094 986 b 1015 935 1044 986 1024 978 l 957 571 b 936 325 946 494 938 364 l 925 325 b 899 571 924 367 915 492 l 814 935 b 736 986 804 978 779 986 l 586 986 b 508 935 542 986 518 979 l 422 571 b 396 325 406 496 396 367 l 386 325 b 367 571 386 364 379 499 l 306 935 b 228 986 297 978 276 986 l 57 986 b 19 929 14 986 10 968 l 239 46 b 311 0 247 8 271 0 l 471 0 b 543 49 510 0 532 8 l 617 369 b 647 619 636 460 644 540 l 658 619 b 685 369 660 540 667 457 l 760 46 b 832 0 768 10 792 0 l 994 0 b 1065 49 1033 0 1056 8 l 1286 929 b 1249 986 1296 968 1292 986 z "},"Ẁ":{"ha":1304,"x_min":0,"x_max":0,"o":"m 560 1269 l 489 1186 b 496 1131 465 1157 463 1142 l 749 1053 b 813 1058 782 1042 797 1040 l 850 1106 b 847 1158 872 1131 872 1144 l 651 1274 b 560 1269 619 1292 586 1300 z m 1249 986 l 1094 986 b 1015 935 1044 986 1024 978 l 957 571 b 936 325 946 494 938 364 l 925 325 b 899 571 924 367 915 492 l 814 935 b 736 986 804 978 779 986 l 586 986 b 508 935 542 986 518 979 l 422 571 b 396 325 406 496 396 367 l 386 325 b 367 571 386 364 379 499 l 306 935 b 228 986 297 978 276 986 l 57 986 b 19 929 14 986 10 968 l 239 46 b 311 0 247 8 271 0 l 471 0 b 543 49 510 0 532 8 l 617 369 b 647 619 636 460 644 540 l 658 619 b 685 369 660 540 667 457 l 760 46 b 832 0 768 10 792 0 l 994 0 b 1065 49 1033 0 1056 8 l 1286 929 b 1249 986 1296 968 1292 986 z "},"X":{"ha":922,"x_min":0,"x_max":0,"o":"m 910 58 l 621 503 l 896 931 b 868 986 915 961 907 986 l 690 986 b 583 938 626 986 610 983 l 460 724 l 335 938 b 219 986 308 981 292 986 l 54 986 b 25 931 14 986 6 961 l 297 503 l 13 58 b 42 0 -10 25 0 0 l 213 0 b 328 51 288 0 301 8 l 456 279 l 588 51 b 701 0 614 4 631 0 l 881 0 b 910 58 924 0 932 28 z "},"Y":{"ha":938,"x_min":0,"x_max":0,"o":"m 897 986 l 738 986 b 624 935 669 986 650 983 l 471 651 l 322 935 b 207 986 296 983 276 986 l 40 986 b 11 928 -3 986 -8 960 l 331 382 l 331 58 b 390 0 331 15 346 0 l 547 0 b 606 58 592 0 606 15 l 606 382 l 926 928 b 897 986 944 960 939 986 z "},"Ý":{"ha":938,"x_min":0,"x_max":0,"o":"m 488 1269 l 292 1157 b 288 1104 267 1143 267 1131 l 326 1058 b 390 1051 340 1039 357 1042 l 642 1129 b 650 1185 675 1142 674 1157 l 579 1265 b 488 1269 551 1296 519 1288 z m 897 986 l 738 986 b 624 935 669 986 650 983 l 471 651 l 322 935 b 207 986 296 983 276 986 l 40 986 b 11 928 -3 986 -8 960 l 331 382 l 331 58 b 390 0 331 15 346 0 l 547 0 b 606 58 592 0 606 15 l 606 382 l 926 928 b 897 986 944 960 939 986 z "},"Ŷ":{"ha":938,"x_min":0,"x_max":0,"o":"m 501 1278 l 457 1278 b 350 1236 399 1278 388 1274 l 208 1094 b 231 1047 188 1072 185 1047 l 339 1047 b 429 1078 392 1047 407 1050 l 474 1126 l 513 1076 b 606 1047 533 1050 550 1047 l 722 1047 b 743 1094 767 1047 765 1072 l 600 1236 b 501 1278 563 1274 551 1278 z m 897 986 l 738 986 b 624 935 669 986 650 983 l 471 651 l 322 935 b 207 986 296 983 276 986 l 40 986 b 11 928 -3 986 -8 960 l 331 382 l 331 58 b 390 0 331 15 346 0 l 547 0 b 606 58 592 0 606 15 l 606 382 l 926 928 b 897 986 944 960 939 986 z "},"Ÿ":{"ha":938,"x_min":0,"x_max":0,"o":"m 329 1269 l 318 1269 b 218 1171 240 1269 218 1246 l 218 1153 b 318 1054 218 1079 240 1054 l 329 1054 b 431 1153 406 1054 431 1079 l 431 1171 b 329 1269 431 1246 406 1269 z m 628 1269 l 618 1269 b 515 1171 540 1269 515 1246 l 515 1153 b 618 1054 515 1079 540 1054 l 628 1054 b 728 1153 704 1054 728 1079 l 728 1171 b 628 1269 728 1246 704 1269 z m 897 986 l 738 986 b 624 935 669 986 650 983 l 471 651 l 322 935 b 207 986 296 983 276 986 l 40 986 b 11 928 -3 986 -8 960 l 331 382 l 331 58 b 390 0 331 15 346 0 l 547 0 b 606 58 592 0 606 15 l 606 382 l 926 928 b 897 986 944 960 939 986 z "},"Ỳ":{"ha":938,"x_min":0,"x_max":0,"o":"m 372 1269 l 301 1186 b 308 1131 278 1157 275 1142 l 561 1053 b 625 1058 593 1042 610 1040 l 663 1106 b 660 1158 685 1131 685 1144 l 464 1274 b 372 1269 432 1292 399 1300 z m 897 986 l 738 986 b 624 935 669 986 650 983 l 471 651 l 322 935 b 207 986 296 983 276 986 l 40 986 b 11 928 -3 986 -8 960 l 331 382 l 331 58 b 390 0 331 15 346 0 l 547 0 b 606 58 592 0 606 15 l 606 382 l 926 928 b 897 986 944 960 939 986 z "},"Z":{"ha":849,"x_min":0,"x_max":0,"o":"m 746 986 l 101 986 b 43 928 58 986 43 971 l 43 803 b 101 743 43 758 58 743 l 440 743 l 56 201 b 36 143 43 185 36 167 l 36 58 b 94 0 36 15 51 0 l 753 0 b 811 58 797 0 811 15 l 811 185 b 753 243 811 229 797 243 l 401 243 l 786 783 b 804 844 799 801 804 818 l 804 928 b 746 986 804 971 790 986 z "},"Ź":{"ha":849,"x_min":0,"x_max":0,"o":"m 446 1269 l 250 1157 b 247 1104 226 1143 225 1131 l 285 1058 b 349 1051 300 1039 315 1042 l 601 1129 b 608 1185 635 1142 633 1157 l 538 1265 b 446 1269 510 1296 478 1288 z m 746 986 l 101 986 b 43 928 58 986 43 971 l 43 803 b 101 743 43 758 58 743 l 440 743 l 56 201 b 36 143 43 185 36 167 l 36 58 b 94 0 36 15 51 0 l 753 0 b 811 58 797 0 811 15 l 811 185 b 753 243 811 229 797 243 l 401 243 l 786 783 b 804 844 799 801 804 818 l 804 928 b 746 986 804 971 790 986 z "},"Ž":{"ha":849,"x_min":0,"x_max":0,"o":"m 676 1278 l 571 1278 b 479 1247 518 1278 501 1274 l 438 1200 l 396 1247 b 304 1278 374 1274 360 1278 l 188 1278 b 171 1229 143 1278 150 1251 l 311 1088 b 413 1047 349 1050 360 1047 l 451 1047 b 554 1088 506 1047 517 1050 l 694 1229 b 676 1278 715 1251 721 1278 z m 746 986 l 101 986 b 43 928 58 986 43 971 l 43 803 b 101 743 43 758 58 743 l 440 743 l 56 201 b 36 143 43 185 36 167 l 36 58 b 94 0 36 15 51 0 l 753 0 b 811 58 797 0 811 15 l 811 185 b 753 243 811 229 797 243 l 401 243 l 786 783 b 804 844 799 801 804 818 l 804 928 b 746 986 804 971 790 986 z "},"Ż":{"ha":849,"x_min":0,"x_max":0,"o":"m 436 1271 l 428 1271 b 324 1167 347 1271 324 1247 l 324 1156 b 428 1051 324 1075 347 1051 l 436 1051 b 540 1156 517 1051 540 1075 l 540 1167 b 436 1271 540 1247 517 1271 z m 746 986 l 101 986 b 43 928 58 986 43 971 l 43 803 b 101 743 43 758 58 743 l 440 743 l 56 201 b 36 143 43 185 36 167 l 36 58 b 94 0 36 15 51 0 l 753 0 b 811 58 797 0 811 15 l 811 185 b 753 243 811 229 797 243 l 401 243 l 786 783 b 804 844 799 801 804 818 l 804 928 b 746 986 804 971 790 986 z "},"Ț":{"ha":838,"x_min":0,"x_max":0,"o":"m 763 986 l 75 986 b 17 928 31 986 17 971 l 17 803 b 75 743 17 758 31 743 l 282 743 l 282 58 b 340 0 282 15 296 0 l 497 0 b 557 58 542 0 557 15 l 557 743 l 763 743 b 822 803 807 743 822 758 l 822 928 b 763 986 822 971 807 986 z m 465 -315 l 538 -125 b 488 -67 551 -89 539 -67 l 356 -67 b 290 -125 311 -67 296 -83 l 265 -319 b 306 -361 263 -350 274 -361 l 399 -361 b 465 -315 438 -361 454 -347 z "},"a":{"ha":956,"x_min":0,"x_max":0,"o":"m 950 57 l 629 940 b 557 986 615 976 597 986 l 399 986 b 326 938 358 986 340 978 l 7 57 b 44 0 -7 19 1 0 l 190 0 b 292 58 260 0 278 15 l 324 158 l 624 158 l 656 58 b 760 0 667 15 688 0 l 910 0 b 950 57 951 0 964 19 z m 510 539 l 561 376 l 388 376 l 439 540 b 465 733 467 633 465 733 l 479 733 b 510 539 479 733 482 633 z "},"á":{"ha":956,"x_min":0,"x_max":0,"o":"m 492 1269 l 296 1157 b 293 1104 272 1143 271 1131 l 331 1058 b 394 1051 346 1039 361 1042 l 647 1129 b 654 1185 681 1142 679 1157 l 583 1265 b 492 1269 556 1296 524 1288 z m 950 57 l 629 940 b 557 986 615 976 597 986 l 399 986 b 326 938 358 986 340 978 l 7 57 b 44 0 -7 19 1 0 l 190 0 b 292 58 260 0 278 15 l 324 158 l 624 158 l 656 58 b 760 0 667 15 688 0 l 910 0 b 950 57 951 0 964 19 z m 510 539 l 561 376 l 388 376 l 439 540 b 465 733 467 633 465 733 l 479 733 b 510 539 479 733 482 633 z "},"ă":{"ha":956,"x_min":0,"x_max":0,"o":"m 724 1194 b 700 1243 735 1221 726 1233 l 603 1279 b 553 1261 575 1288 567 1285 b 478 1215 535 1231 513 1215 b 401 1261 442 1215 418 1231 b 349 1278 388 1285 379 1289 l 257 1243 b 233 1194 231 1232 224 1221 b 478 1047 269 1100 356 1047 b 724 1194 601 1047 688 1100 z m 950 57 l 629 940 b 557 986 615 976 597 986 l 399 986 b 326 938 358 986 340 978 l 7 57 b 44 0 -7 19 1 0 l 190 0 b 292 58 260 0 278 15 l 324 158 l 624 158 l 656 58 b 760 0 667 15 688 0 l 910 0 b 950 57 951 0 964 19 z m 510 539 l 561 376 l 388 376 l 439 540 b 465 733 467 633 465 733 l 479 733 b 510 539 479 733 482 633 z "},"â":{"ha":956,"x_min":0,"x_max":0,"o":"m 507 1278 l 463 1278 b 356 1236 403 1278 393 1274 l 214 1094 b 235 1047 192 1072 190 1047 l 344 1047 b 435 1078 396 1047 411 1050 l 478 1126 l 518 1076 b 610 1047 539 1050 556 1047 l 726 1047 b 747 1094 772 1047 769 1072 l 606 1236 b 507 1278 568 1274 556 1278 z m 950 57 l 629 940 b 557 986 615 976 597 986 l 399 986 b 326 938 358 986 340 978 l 7 57 b 44 0 -7 19 1 0 l 190 0 b 292 58 260 0 278 15 l 324 158 l 624 158 l 656 58 b 760 0 667 15 688 0 l 910 0 b 950 57 951 0 964 19 z m 510 539 l 561 376 l 388 376 l 439 540 b 465 733 467 633 465 733 l 479 733 b 510 539 479 733 482 633 z "},"ä":{"ha":956,"x_min":0,"x_max":0,"o":"m 333 1269 l 322 1269 b 222 1171 246 1269 222 1246 l 222 1153 b 322 1054 222 1079 246 1054 l 333 1054 b 436 1153 411 1054 436 1079 l 436 1171 b 333 1269 436 1246 411 1269 z m 632 1269 l 622 1269 b 519 1171 544 1269 519 1246 l 519 1153 b 622 1054 519 1079 544 1054 l 632 1054 b 733 1153 710 1054 733 1079 l 733 1171 b 632 1269 733 1246 710 1269 z m 950 57 l 629 940 b 557 986 615 976 597 986 l 399 986 b 326 938 358 986 340 978 l 7 57 b 44 0 -7 19 1 0 l 190 0 b 292 58 260 0 278 15 l 324 158 l 624 158 l 656 58 b 760 0 667 15 688 0 l 910 0 b 950 57 951 0 964 19 z m 510 539 l 561 376 l 388 376 l 439 540 b 465 733 467 633 465 733 l 479 733 b 510 539 479 733 482 633 z "},"à":{"ha":956,"x_min":0,"x_max":0,"o":"m 376 1269 l 306 1186 b 314 1131 282 1157 279 1142 l 565 1053 b 629 1058 599 1042 615 1040 l 668 1106 b 664 1158 689 1131 689 1144 l 468 1274 b 376 1269 436 1292 403 1300 z m 950 57 l 629 940 b 557 986 615 976 597 986 l 399 986 b 326 938 358 986 340 978 l 7 57 b 44 0 -7 19 1 0 l 190 0 b 292 58 260 0 278 15 l 324 158 l 624 158 l 656 58 b 760 0 667 15 688 0 l 910 0 b 950 57 951 0 964 19 z m 510 539 l 561 376 l 388 376 l 439 540 b 465 733 467 633 465 733 l 479 733 b 510 539 479 733 482 633 z "},"ā":{"ha":956,"x_min":0,"x_max":0,"o":"m 647 1239 l 308 1239 b 258 1189 274 1239 258 1229 l 258 1131 b 308 1081 258 1090 269 1081 l 647 1081 b 697 1131 686 1081 697 1090 l 697 1189 b 647 1239 697 1229 686 1239 z m 950 57 l 629 940 b 557 986 615 976 597 986 l 399 986 b 326 938 358 986 340 978 l 7 57 b 44 0 -7 19 1 0 l 190 0 b 292 58 260 0 278 15 l 324 158 l 624 158 l 656 58 b 760 0 667 15 688 0 l 910 0 b 950 57 951 0 964 19 z m 510 539 l 561 376 l 388 376 l 439 540 b 465 733 467 633 465 733 l 479 733 b 510 539 479 733 482 633 z "},"ą":{"ha":956,"x_min":0,"x_max":0,"o":"m 557 986 l 400 986 b 328 938 360 986 342 978 l 7 57 b 44 0 -7 19 1 0 l 192 0 b 292 58 260 0 279 15 l 324 158 l 625 158 l 656 58 b 756 0 668 15 683 1 b 651 -249 682 -74 635 -165 b 800 -342 667 -326 735 -342 b 954 -293 856 -342 915 -324 b 963 -251 968 -283 971 -272 l 933 -186 b 901 -178 928 -172 915 -168 b 875 -186 892 -183 883 -186 b 850 -161 861 -186 853 -176 b 946 7 846 -131 868 -64 b 951 56 958 18 960 32 l 629 940 b 557 986 617 976 597 986 z m 511 539 l 561 376 l 388 376 l 439 540 b 467 733 467 633 467 733 l 479 733 b 511 539 479 733 482 633 z "},"å":{"ha":956,"x_min":0,"x_max":0,"o":"m 278 1057 b 331 933 278 1006 296 964 l 7 57 b 44 0 -7 19 1 0 l 190 0 b 292 58 260 0 278 15 l 324 158 l 624 158 l 656 58 b 760 0 667 15 688 0 l 910 0 b 950 57 951 0 964 19 l 626 935 b 678 1057 661 964 678 1007 b 481 1240 678 1169 597 1240 b 278 1057 363 1240 278 1174 z m 536 1054 b 481 999 536 1019 513 999 b 418 1054 443 999 418 1022 b 481 1111 418 1089 443 1111 b 536 1054 513 1111 536 1089 z m 511 539 l 561 376 l 388 376 l 438 540 b 465 731 465 633 465 731 l 479 731 b 511 539 479 731 483 633 z "},"ǻ":{"ha":954,"x_min":0,"x_max":0,"o":"m 501 1364 l 328 1286 b 313 1242 304 1276 292 1261 l 349 1206 b 410 1201 363 1193 378 1194 l 644 1260 b 651 1300 675 1267 674 1279 l 588 1363 b 501 1364 563 1385 532 1378 z m 276 1001 b 325 897 276 960 294 922 l 6 57 b 43 0 -10 19 0 0 l 189 0 b 290 58 258 0 276 15 l 322 158 l 622 158 l 654 58 b 758 0 665 15 686 0 l 908 0 b 949 57 950 0 964 19 l 631 897 b 678 1001 663 924 678 960 b 479 1183 678 1113 596 1183 b 276 1001 363 1183 276 1117 z m 535 1004 b 481 947 535 969 511 947 b 419 1004 443 947 419 972 b 481 1061 419 1039 443 1061 b 535 1004 511 1061 535 1039 z m 508 539 l 560 376 l 386 376 l 438 540 b 464 733 465 633 464 733 l 478 733 b 508 539 478 733 481 633 z "},"ã":{"ha":956,"x_min":0,"x_max":0,"o":"m 681 1263 l 597 1263 b 571 1236 576 1263 571 1256 b 550 1206 571 1214 563 1206 b 361 1263 504 1206 468 1263 b 229 1092 281 1263 229 1224 b 261 1060 229 1071 238 1060 l 346 1060 b 372 1088 365 1060 372 1068 b 393 1118 372 1108 381 1118 b 578 1060 439 1118 475 1060 b 714 1231 665 1060 714 1101 b 681 1263 714 1253 707 1263 z m 950 57 l 629 940 b 557 986 615 976 597 986 l 399 986 b 326 938 358 986 340 978 l 7 57 b 44 0 -7 19 1 0 l 190 0 b 292 58 260 0 278 15 l 324 158 l 624 158 l 656 58 b 760 0 667 15 688 0 l 910 0 b 950 57 951 0 964 19 z m 510 539 l 561 376 l 388 376 l 439 540 b 465 733 467 633 465 733 l 479 733 b 510 539 479 733 482 633 z "},"æ":{"ha":1257,"x_min":0,"x_max":0,"o":"m 1164 243 l 881 243 l 881 376 l 1079 376 b 1138 436 1122 376 1138 392 l 1138 561 b 1079 619 1138 604 1122 619 l 881 619 l 881 743 l 1153 743 b 1211 803 1197 743 1211 758 l 1211 928 b 1153 986 1211 971 1197 986 l 646 986 b 574 938 606 986 596 974 l -1 57 b 36 0 -21 22 -7 0 l 179 0 b 288 51 253 0 265 15 l 347 146 l 625 146 l 625 58 b 685 0 625 15 640 0 l 1164 0 b 1222 58 1208 0 1222 15 l 1222 185 b 1164 243 1222 229 1208 243 z m 625 356 l 482 356 l 625 582 z "},"ǽ":{"ha":1257,"x_min":0,"x_max":0,"o":"m 906 1269 l 710 1157 b 706 1104 686 1143 685 1131 l 744 1058 b 808 1051 758 1039 775 1042 l 1060 1129 b 1068 1185 1094 1142 1093 1157 l 997 1265 b 906 1269 969 1296 938 1288 z m 1164 243 l 881 243 l 881 376 l 1079 376 b 1138 436 1122 376 1138 392 l 1138 561 b 1079 619 1138 604 1122 619 l 881 619 l 881 743 l 1153 743 b 1211 803 1197 743 1211 758 l 1211 928 b 1153 986 1211 971 1197 986 l 646 986 b 574 938 606 986 596 974 l -1 57 b 36 0 -21 22 -7 0 l 179 0 b 288 51 253 0 265 15 l 347 146 l 625 146 l 625 58 b 685 0 625 15 640 0 l 1164 0 b 1222 58 1208 0 1222 15 l 1222 185 b 1164 243 1222 229 1208 243 z m 625 356 l 482 356 l 625 582 z "},"b":{"ha":914,"x_min":0,"x_max":0,"o":"m 536 988 l 129 988 b 69 928 85 988 69 972 l 69 58 b 129 0 69 15 85 0 l 542 0 b 883 275 738 0 883 96 b 743 514 883 396 832 475 l 743 519 b 843 724 814 568 843 631 b 536 988 843 893 728 988 z m 564 686 b 479 611 564 632 535 611 l 344 611 l 344 764 l 479 764 b 564 686 535 764 564 740 z m 594 307 b 506 225 594 249 565 225 l 344 225 l 344 388 l 506 388 b 594 307 565 388 594 363 z "},"c":{"ha":904,"x_min":0,"x_max":0,"o":"m 46 618 l 46 368 b 474 -21 46 128 200 -21 b 879 222 688 -21 821 67 b 842 297 893 263 883 283 l 693 350 b 618 313 651 365 635 356 b 474 222 596 253 551 222 b 321 367 364 222 321 269 l 321 619 b 474 764 321 717 364 764 b 618 674 551 764 593 736 b 693 636 633 631 650 624 l 842 689 b 879 764 883 703 893 724 b 474 1007 821 919 688 1007 b 46 618 200 1007 46 858 z "},"ć":{"ha":904,"x_min":0,"x_max":0,"o":"m 490 1269 l 294 1157 b 290 1104 269 1143 269 1131 l 329 1058 b 393 1051 343 1039 360 1042 l 644 1129 b 653 1185 678 1142 676 1157 l 582 1265 b 490 1269 554 1296 522 1288 z m 46 618 l 46 368 b 474 -21 46 128 200 -21 b 879 222 688 -21 821 67 b 842 297 893 263 883 283 l 693 350 b 618 313 651 365 635 356 b 474 222 596 253 551 222 b 321 367 364 222 321 269 l 321 619 b 474 764 321 717 364 764 b 618 674 551 764 593 736 b 693 636 633 631 650 624 l 842 689 b 879 764 883 703 893 724 b 474 1007 821 919 688 1007 b 46 618 200 1007 46 858 z "},"č":{"ha":904,"x_min":0,"x_max":0,"o":"m 719 1278 l 614 1278 b 522 1247 563 1278 546 1274 l 482 1200 l 439 1247 b 349 1278 418 1274 403 1278 l 232 1278 b 215 1229 186 1278 193 1251 l 356 1088 b 457 1047 393 1050 404 1047 l 494 1047 b 599 1088 550 1047 561 1050 l 738 1229 b 719 1278 760 1251 765 1278 z m 46 618 l 46 368 b 474 -21 46 128 200 -21 b 879 222 688 -21 821 67 b 842 297 893 263 883 283 l 693 350 b 618 313 651 365 635 356 b 474 222 596 253 551 222 b 321 367 364 222 321 269 l 321 619 b 474 764 321 717 364 764 b 618 674 551 764 593 736 b 693 636 633 631 650 624 l 842 689 b 879 764 883 703 893 724 b 474 1007 821 919 688 1007 b 46 618 200 1007 46 858 z "},"ç":{"ha":904,"x_min":0,"x_max":0,"o":"m 842 297 l 693 350 b 618 313 651 365 635 356 b 474 222 596 253 551 222 b 321 367 364 222 321 269 l 321 619 b 474 764 321 717 364 764 b 618 674 551 764 593 736 b 693 636 633 631 650 624 l 842 689 b 879 764 883 703 893 724 b 474 1007 821 919 688 1007 b 46 618 200 1007 46 858 l 46 368 b 401 -17 46 150 174 7 l 357 -118 b 375 -160 343 -147 349 -160 l 404 -160 b 463 -190 450 -161 463 -169 b 415 -222 463 -208 450 -222 b 338 -201 382 -222 363 -214 b 294 -224 307 -185 294 -197 l 294 -282 b 332 -325 294 -303 303 -314 b 435 -340 367 -337 403 -340 b 644 -201 532 -340 632 -311 b 529 -64 653 -126 608 -65 l 517 -64 l 535 -18 b 879 222 713 -4 826 81 b 842 297 893 263 883 283 z "},"ĉ":{"ha":904,"x_min":0,"x_max":0,"o":"m 504 1278 l 460 1278 b 353 1236 401 1278 390 1274 l 211 1094 b 233 1047 190 1072 188 1047 l 342 1047 b 432 1078 394 1047 410 1050 l 476 1126 l 515 1076 b 608 1047 536 1050 553 1047 l 725 1047 b 746 1094 769 1047 768 1072 l 603 1236 b 504 1278 565 1274 554 1278 z m 46 618 l 46 368 b 474 -21 46 128 200 -21 b 879 222 688 -21 821 67 b 842 297 893 263 883 283 l 693 350 b 618 313 651 365 635 356 b 474 222 596 253 551 222 b 321 367 364 222 321 269 l 321 619 b 474 764 321 717 364 764 b 618 674 551 764 593 736 b 693 636 633 631 650 624 l 842 689 b 879 764 883 703 893 724 b 474 1007 821 919 688 1007 b 46 618 200 1007 46 858 z "},"ċ":{"ha":904,"x_min":0,"x_max":0,"o":"m 481 1271 l 472 1271 b 367 1167 390 1271 367 1247 l 367 1156 b 472 1051 367 1075 390 1051 l 481 1051 b 583 1156 561 1051 583 1075 l 583 1167 b 481 1271 583 1247 561 1271 z m 46 618 l 46 368 b 474 -21 46 128 200 -21 b 879 222 688 -21 821 67 b 842 297 893 263 883 283 l 693 350 b 618 313 651 365 635 356 b 474 222 596 253 551 222 b 321 367 364 222 321 269 l 321 619 b 474 764 321 717 364 764 b 618 674 551 764 593 736 b 693 636 633 631 650 624 l 842 689 b 879 764 883 703 893 724 b 474 1007 821 919 688 1007 b 46 618 200 1007 46 858 z "},"d":{"ha":940,"x_min":0,"x_max":0,"o":"m 468 986 l 129 986 b 69 928 85 986 69 971 l 69 58 b 129 0 69 15 85 0 l 468 0 b 894 389 742 0 894 150 l 894 597 b 468 986 894 838 742 986 z m 619 593 l 619 393 b 458 243 619 294 571 243 l 344 243 l 344 743 l 458 743 b 619 593 571 743 619 692 z "},"ð":{"ha":981,"x_min":0,"x_max":0,"o":"m 508 986 l 169 986 b 111 928 126 986 111 971 l 111 589 l 47 589 b 13 553 24 589 13 581 l 13 447 b 47 411 13 418 21 411 l 111 411 l 111 58 b 169 0 111 15 126 0 l 508 0 b 936 389 783 0 936 150 l 936 597 b 508 986 936 838 783 986 z m 661 593 l 661 393 b 499 243 661 294 613 243 l 386 243 l 386 411 l 500 411 b 533 447 526 411 533 418 l 533 553 b 500 589 533 581 526 589 l 386 589 l 386 743 l 499 743 b 661 593 613 743 661 692 z "},"ď":{"ha":940,"x_min":0,"x_max":0,"o":"m 683 1278 l 578 1278 b 486 1247 525 1278 508 1274 l 444 1200 l 403 1247 b 311 1278 381 1274 367 1278 l 194 1278 b 178 1229 150 1278 157 1251 l 318 1088 b 419 1047 356 1050 367 1047 l 458 1047 b 561 1088 513 1047 524 1050 l 701 1229 b 683 1278 722 1251 728 1278 z m 468 986 l 129 986 b 69 928 85 986 69 971 l 69 58 b 129 0 69 15 85 0 l 468 0 b 894 389 742 0 894 150 l 894 597 b 468 986 894 838 742 986 z m 619 593 l 619 393 b 458 243 619 294 571 243 l 344 243 l 344 743 l 458 743 b 619 593 571 743 619 692 z "},"đ":{"ha":981,"x_min":0,"x_max":0,"o":"m 508 986 l 169 986 b 111 928 126 986 111 971 l 111 589 l 47 589 b 13 553 24 589 13 581 l 13 447 b 47 411 13 418 21 411 l 111 411 l 111 58 b 169 0 111 15 126 0 l 508 0 b 936 389 783 0 936 150 l 936 597 b 508 986 936 838 783 986 z m 661 593 l 661 393 b 499 243 661 294 613 243 l 386 243 l 386 411 l 500 411 b 533 447 526 411 533 418 l 533 553 b 500 589 533 581 526 589 l 386 589 l 386 743 l 499 743 b 661 593 613 743 661 692 z "},"e":{"ha":817,"x_min":0,"x_max":0,"o":"m 711 986 l 129 986 b 69 928 85 986 69 971 l 69 58 b 129 0 69 15 85 0 l 724 0 b 782 58 767 0 782 15 l 782 185 b 724 243 782 229 767 243 l 344 243 l 344 376 l 638 376 b 697 436 682 376 697 392 l 697 561 b 638 619 697 604 682 619 l 344 619 l 344 743 l 711 743 b 771 803 756 743 771 758 l 771 928 b 711 986 771 971 756 986 z "},"é":{"ha":817,"x_min":0,"x_max":0,"o":"m 435 1269 l 239 1157 b 235 1104 215 1143 214 1131 l 274 1058 b 338 1051 288 1039 304 1042 l 589 1129 b 597 1185 624 1142 622 1157 l 526 1265 b 435 1269 499 1296 467 1288 z m 711 986 l 129 986 b 69 928 85 986 69 971 l 69 58 b 129 0 69 15 85 0 l 724 0 b 782 58 767 0 782 15 l 782 185 b 724 243 782 229 767 243 l 344 243 l 344 376 l 638 376 b 697 436 682 376 697 392 l 697 561 b 638 619 697 604 682 619 l 344 619 l 344 743 l 711 743 b 771 803 756 743 771 758 l 771 928 b 711 986 771 971 756 986 z "},"ĕ":{"ha":817,"x_min":0,"x_max":0,"o":"m 667 1194 b 643 1243 676 1221 669 1233 l 546 1279 b 496 1261 517 1288 510 1285 b 421 1215 478 1231 456 1215 b 344 1261 385 1215 361 1231 b 292 1278 331 1285 322 1289 l 200 1243 b 176 1194 174 1232 167 1221 b 421 1047 211 1100 299 1047 b 667 1194 544 1047 631 1100 z m 711 986 l 129 986 b 69 928 85 986 69 971 l 69 58 b 129 0 69 15 85 0 l 724 0 b 782 58 767 0 782 15 l 782 185 b 724 243 782 229 767 243 l 344 243 l 344 376 l 638 376 b 697 436 682 376 697 392 l 697 561 b 638 619 697 604 682 619 l 344 619 l 344 743 l 711 743 b 771 803 756 743 771 758 l 771 928 b 711 986 771 971 756 986 z "},"ě":{"ha":817,"x_min":0,"x_max":0,"o":"m 665 1278 l 560 1278 b 468 1247 507 1278 490 1274 l 426 1200 l 385 1247 b 293 1278 363 1274 349 1278 l 176 1278 b 160 1229 131 1278 138 1251 l 300 1088 b 401 1047 338 1050 349 1047 l 439 1047 b 543 1088 494 1047 506 1050 l 682 1229 b 665 1278 704 1251 710 1278 z m 711 986 l 129 986 b 69 928 85 986 69 971 l 69 58 b 129 0 69 15 85 0 l 724 0 b 782 58 767 0 782 15 l 782 185 b 724 243 782 229 767 243 l 344 243 l 344 376 l 638 376 b 697 436 682 376 697 392 l 697 561 b 638 619 697 604 682 619 l 344 619 l 344 743 l 711 743 b 771 803 756 743 771 758 l 771 928 b 711 986 771 971 756 986 z "},"ê":{"ha":817,"x_min":0,"x_max":0,"o":"m 449 1278 l 404 1278 b 299 1236 346 1278 335 1274 l 157 1094 b 178 1047 135 1072 132 1047 l 286 1047 b 378 1078 339 1047 354 1050 l 421 1126 l 461 1076 b 553 1047 481 1050 497 1047 l 669 1047 b 690 1094 714 1047 713 1072 l 549 1236 b 449 1278 510 1274 499 1278 z m 711 986 l 129 986 b 69 928 85 986 69 971 l 69 58 b 129 0 69 15 85 0 l 724 0 b 782 58 767 0 782 15 l 782 185 b 724 243 782 229 767 243 l 344 243 l 344 376 l 638 376 b 697 436 682 376 697 392 l 697 561 b 638 619 697 604 682 619 l 344 619 l 344 743 l 711 743 b 771 803 756 743 771 758 l 771 928 b 711 986 771 971 756 986 z "},"ë":{"ha":817,"x_min":0,"x_max":0,"o":"m 276 1269 l 265 1269 b 165 1171 189 1269 165 1246 l 165 1153 b 265 1054 165 1079 189 1054 l 276 1054 b 378 1153 353 1054 378 1079 l 378 1171 b 276 1269 378 1246 353 1269 z m 575 1269 l 565 1269 b 463 1171 488 1269 463 1246 l 463 1153 b 565 1054 463 1079 488 1054 l 575 1054 b 675 1153 651 1054 675 1079 l 675 1171 b 575 1269 675 1246 651 1269 z m 711 986 l 129 986 b 69 928 85 986 69 971 l 69 58 b 129 0 69 15 85 0 l 724 0 b 782 58 767 0 782 15 l 782 185 b 724 243 782 229 767 243 l 344 243 l 344 376 l 638 376 b 697 436 682 376 697 392 l 697 561 b 638 619 697 604 682 619 l 344 619 l 344 743 l 711 743 b 771 803 756 743 771 758 l 771 928 b 711 986 771 971 756 986 z "},"ė":{"ha":817,"x_min":0,"x_max":0,"o":"m 276 1269 l 265 1269 b 165 1171 189 1269 165 1246 l 165 1153 b 265 1054 165 1079 189 1054 l 276 1054 b 378 1153 353 1054 378 1079 l 378 1171 b 276 1269 378 1246 353 1269 z m 575 1269 l 565 1269 b 463 1171 488 1269 463 1246 l 463 1153 b 565 1054 463 1079 488 1054 l 575 1054 b 675 1153 651 1054 675 1079 l 675 1171 b 575 1269 675 1246 651 1269 z m 711 986 l 129 986 b 69 928 85 986 69 971 l 69 58 b 129 0 69 15 85 0 l 724 0 b 782 58 767 0 782 15 l 782 185 b 724 243 782 229 767 243 l 344 243 l 344 376 l 638 376 b 697 436 682 376 697 392 l 697 561 b 638 619 697 604 682 619 l 344 619 l 344 743 l 711 743 b 771 803 756 743 771 758 l 771 928 b 711 986 771 971 756 986 z "},"è":{"ha":817,"x_min":0,"x_max":0,"o":"m 319 1269 l 249 1186 b 256 1131 225 1157 222 1142 l 508 1053 b 572 1058 542 1042 557 1040 l 610 1106 b 607 1158 632 1131 632 1144 l 411 1274 b 319 1269 379 1292 346 1300 z m 711 986 l 129 986 b 69 928 85 986 69 971 l 69 58 b 129 0 69 15 85 0 l 724 0 b 782 58 767 0 782 15 l 782 185 b 724 243 782 229 767 243 l 344 243 l 344 376 l 638 376 b 697 436 682 376 697 392 l 697 561 b 638 619 697 604 682 619 l 344 619 l 344 743 l 711 743 b 771 803 756 743 771 758 l 771 928 b 711 986 771 971 756 986 z "},"ē":{"ha":817,"x_min":0,"x_max":0,"o":"m 589 1239 l 251 1239 b 201 1189 215 1239 201 1229 l 201 1131 b 251 1081 201 1090 211 1081 l 589 1081 b 640 1131 629 1081 640 1090 l 640 1189 b 589 1239 640 1229 629 1239 z m 711 986 l 129 986 b 69 928 85 986 69 971 l 69 58 b 129 0 69 15 85 0 l 724 0 b 782 58 767 0 782 15 l 782 185 b 724 243 782 229 767 243 l 344 243 l 344 376 l 638 376 b 697 436 682 376 697 392 l 697 561 b 638 619 697 604 682 619 l 344 619 l 344 743 l 711 743 b 771 803 756 743 771 758 l 771 928 b 711 986 771 971 756 986 z "},"ę":{"ha":817,"x_min":0,"x_max":0,"o":"m 711 986 l 129 986 b 69 928 85 986 69 971 l 69 58 b 129 0 69 15 85 0 l 579 0 b 472 -246 506 -69 456 -164 b 621 -339 488 -318 553 -339 b 775 -292 678 -339 735 -324 b 782 -250 788 -281 790 -271 l 754 -185 b 721 -176 747 -171 736 -167 b 697 -183 713 -182 706 -183 b 672 -160 683 -183 674 -174 b 768 13 664 -103 717 -47 b 782 58 778 24 782 36 l 782 185 b 724 243 782 229 767 243 l 344 243 l 344 376 l 638 376 b 697 436 682 376 697 392 l 697 561 b 638 619 697 604 682 619 l 344 619 l 344 743 l 711 743 b 771 803 756 743 771 758 l 771 928 b 711 986 771 971 756 986 z "},"f":{"ha":799,"x_min":0,"x_max":0,"o":"m 711 986 l 129 986 b 69 928 85 986 69 971 l 69 58 b 129 0 69 15 85 0 l 286 0 b 344 58 331 0 344 15 l 344 339 l 638 339 b 697 399 682 339 697 354 l 697 524 b 638 582 697 567 682 582 l 344 582 l 344 743 l 711 743 b 771 803 756 743 771 758 l 771 928 b 711 986 771 971 756 986 z "},"g":{"ha":940,"x_min":0,"x_max":0,"o":"m 842 567 l 490 567 b 432 507 447 567 432 551 l 432 403 b 490 344 432 358 447 344 l 624 344 l 624 317 b 474 222 624 257 567 222 b 321 367 364 222 321 269 l 321 619 b 474 764 321 717 364 764 b 618 674 551 764 593 736 b 693 636 633 631 650 622 l 842 689 b 879 764 883 703 893 724 b 474 1007 821 919 688 1007 b 46 618 200 1007 46 858 l 46 368 b 474 -21 46 128 200 -21 b 900 324 747 -21 900 128 l 900 507 b 842 567 900 551 886 567 z "},"ğ":{"ha":940,"x_min":0,"x_max":0,"o":"m 719 1208 b 696 1257 729 1235 722 1247 l 599 1293 b 549 1275 569 1301 563 1299 b 474 1229 531 1244 508 1229 b 397 1275 438 1229 414 1244 b 344 1292 383 1299 375 1303 l 253 1257 b 229 1208 226 1246 219 1235 b 474 1061 264 1114 351 1061 b 719 1208 597 1061 683 1114 z m 842 567 l 490 567 b 432 507 447 567 432 551 l 432 403 b 490 344 432 358 447 344 l 624 344 l 624 317 b 474 222 624 257 567 222 b 321 367 364 222 321 269 l 321 619 b 474 764 321 717 364 764 b 618 674 551 764 593 736 b 693 636 633 631 650 622 l 842 689 b 879 764 883 703 893 724 b 474 1007 821 919 688 1007 b 46 618 200 1007 46 858 l 46 368 b 474 -21 46 128 200 -21 b 900 324 747 -21 900 128 l 900 507 b 842 567 900 551 886 567 z "},"ĝ":{"ha":940,"x_min":0,"x_max":0,"o":"m 501 1292 l 457 1292 b 351 1250 399 1292 388 1288 l 210 1108 b 231 1061 188 1086 185 1061 l 339 1061 b 431 1092 392 1061 407 1064 l 474 1140 l 514 1090 b 606 1061 533 1064 550 1061 l 722 1061 b 743 1108 767 1061 765 1086 l 601 1250 b 501 1292 563 1288 551 1292 z m 842 567 l 490 567 b 432 507 447 567 432 551 l 432 403 b 490 344 432 358 447 344 l 624 344 l 624 317 b 474 222 624 257 567 222 b 321 367 364 222 321 269 l 321 619 b 474 764 321 717 364 764 b 618 674 551 764 593 736 b 693 636 633 631 650 622 l 842 689 b 879 764 883 703 893 724 b 474 1007 821 919 688 1007 b 46 618 200 1007 46 858 l 46 368 b 474 -21 46 128 200 -21 b 900 324 747 -21 900 128 l 900 507 b 842 567 900 551 886 567 z "},"ģ":{"ha":940,"x_min":0,"x_max":0,"o":"m 842 567 l 490 567 b 432 507 447 567 432 551 l 432 403 b 490 344 432 358 447 344 l 624 344 l 624 317 b 474 222 624 257 567 222 b 321 367 364 222 321 269 l 321 619 b 474 764 321 717 364 764 b 618 674 551 764 593 736 b 693 636 633 631 650 622 l 842 689 b 879 764 883 703 893 724 b 474 1007 821 919 688 1007 b 46 618 200 1007 46 858 l 46 368 b 474 -21 46 128 200 -21 b 900 324 747 -21 900 128 l 900 507 b 842 567 900 551 886 567 z m 542 -315 l 608 -125 b 561 -67 622 -89 610 -67 l 436 -67 b 375 -125 394 -67 381 -83 l 353 -319 b 390 -361 349 -350 360 -361 l 478 -361 b 542 -315 515 -361 531 -347 z "},"ġ":{"ha":940,"x_min":0,"x_max":0,"o":"m 478 1285 l 469 1285 b 365 1181 389 1285 365 1261 l 365 1169 b 469 1065 365 1089 389 1065 l 478 1065 b 581 1169 558 1065 581 1089 l 581 1181 b 478 1285 581 1261 558 1285 z m 842 567 l 490 567 b 432 507 447 567 432 551 l 432 403 b 490 344 432 358 447 344 l 624 344 l 624 317 b 474 222 624 257 567 222 b 321 367 364 222 321 269 l 321 619 b 474 764 321 717 364 764 b 618 674 551 764 593 736 b 693 636 633 631 650 622 l 842 689 b 879 764 883 703 893 724 b 474 1007 821 919 688 1007 b 46 618 200 1007 46 858 l 46 368 b 474 -21 46 128 200 -21 b 900 324 747 -21 900 128 l 900 507 b 842 567 900 551 886 567 z "},"h":{"ha":958,"x_min":0,"x_max":0,"o":"m 831 988 l 672 988 b 614 928 629 988 614 972 l 614 621 l 344 621 l 344 928 b 286 988 344 972 331 988 l 129 988 b 69 928 85 988 69 972 l 69 58 b 129 0 69 15 85 0 l 286 0 b 344 58 331 0 344 15 l 344 378 l 614 378 l 614 58 b 672 0 614 15 629 0 l 831 0 b 889 58 874 0 889 15 l 889 928 b 831 988 889 972 874 988 z "},"ħ":{"ha":1003,"x_min":0,"x_max":0,"o":"m 963 874 l 910 874 l 910 928 b 851 988 910 972 896 988 l 694 988 b 635 928 650 988 635 972 l 635 874 l 367 874 l 367 928 b 307 988 367 972 351 988 l 150 988 b 92 928 106 988 92 972 l 92 874 l 40 874 b 7 838 18 874 7 865 l 7 763 b 40 726 7 733 14 726 l 92 726 l 92 58 b 150 0 92 15 106 0 l 307 0 b 367 58 351 0 367 15 l 367 378 l 635 378 l 635 58 b 694 0 635 15 650 0 l 851 0 b 910 58 896 0 910 15 l 910 726 l 963 726 b 996 763 989 726 996 733 l 996 838 b 963 874 996 865 989 874 z m 635 621 l 367 621 l 367 726 l 635 726 z "},"ĥ":{"ha":958,"x_min":0,"x_max":0,"o":"m 508 1278 l 464 1278 b 357 1236 404 1278 394 1274 l 215 1094 b 236 1047 193 1072 192 1047 l 346 1047 b 436 1078 397 1047 413 1050 l 479 1126 l 519 1076 b 613 1047 540 1050 557 1047 l 728 1047 b 750 1094 774 1047 771 1072 l 607 1236 b 508 1278 569 1274 557 1278 z m 831 988 l 672 988 b 614 928 629 988 614 972 l 614 621 l 344 621 l 344 928 b 286 988 344 972 331 988 l 129 988 b 69 928 85 988 69 972 l 69 58 b 129 0 69 15 85 0 l 286 0 b 344 58 331 0 344 15 l 344 378 l 614 378 l 614 58 b 672 0 614 15 629 0 l 831 0 b 889 58 874 0 889 15 l 889 928 b 831 988 889 972 874 988 z "},"i":{"ha":415,"x_min":0,"x_max":0,"o":"m 69 931 l 69 56 b 125 0 69 14 83 0 l 289 0 b 344 56 331 0 344 14 l 344 931 b 289 986 344 972 331 986 l 125 986 b 69 931 83 986 69 972 z "},"ı":{"ha":415,"x_min":0,"x_max":0,"o":"m 69 931 l 69 56 b 125 0 69 14 83 0 l 289 0 b 344 56 331 0 344 14 l 344 931 b 289 986 344 972 331 986 l 125 986 b 69 931 83 986 69 972 z "},"í":{"ha":415,"x_min":0,"x_max":0,"o":"m 222 1269 l 26 1157 b 22 1104 1 1143 1 1131 l 61 1058 b 125 1051 75 1039 92 1042 l 376 1129 b 385 1185 410 1142 408 1157 l 314 1265 b 222 1269 286 1296 254 1288 z m 69 931 l 69 56 b 125 0 69 14 83 0 l 289 0 b 344 56 331 0 344 14 l 344 931 b 289 986 344 972 331 986 l 125 986 b 69 931 83 986 69 972 z "},"ĭ":{"ha":415,"x_min":0,"x_max":0,"o":"m 454 1194 b 431 1243 464 1221 457 1233 l 332 1279 b 283 1261 304 1288 297 1285 b 208 1215 265 1231 243 1215 b 132 1261 172 1215 149 1231 b 79 1278 118 1285 108 1289 l -12 1243 b -36 1194 -39 1232 -47 1221 b 208 1047 -1 1100 86 1047 b 454 1194 331 1047 418 1100 z m 69 931 l 69 56 b 125 0 69 14 83 0 l 289 0 b 344 56 331 0 344 14 l 344 931 b 289 986 344 972 331 986 l 125 986 b 69 931 83 986 69 972 z "},"î":{"ha":415,"x_min":0,"x_max":0,"o":"m 236 1278 l 192 1278 b 85 1236 133 1278 122 1274 l -57 1094 b -35 1047 -78 1072 -81 1047 l 74 1047 b 164 1078 126 1047 142 1050 l 208 1126 l 247 1076 b 340 1047 268 1050 285 1047 l 457 1047 b 478 1094 501 1047 500 1072 l 335 1236 b 236 1278 297 1274 286 1278 z m 69 931 l 69 56 b 125 0 69 14 83 0 l 289 0 b 344 56 331 0 344 14 l 344 931 b 289 986 344 972 331 986 l 125 986 b 69 931 83 986 69 972 z "},"ï":{"ha":415,"x_min":0,"x_max":0,"o":"m 64 1269 l 53 1269 b -47 1171 -25 1269 -47 1246 l -47 1153 b 53 1054 -47 1079 -25 1054 l 64 1054 b 165 1153 140 1054 165 1079 l 165 1171 b 64 1269 165 1246 140 1269 z m 363 1269 l 353 1269 b 250 1171 275 1269 250 1246 l 250 1153 b 353 1054 250 1079 275 1054 l 363 1054 b 463 1153 439 1054 463 1079 l 463 1171 b 363 1269 463 1246 439 1269 z m 69 931 l 69 56 b 125 0 69 14 83 0 l 289 0 b 344 56 331 0 344 14 l 344 931 b 289 986 344 972 331 986 l 125 986 b 69 931 83 986 69 972 z "},"ì":{"ha":415,"x_min":0,"x_max":0,"o":"m 107 1269 l 36 1186 b 43 1131 13 1157 10 1142 l 296 1053 b 360 1058 328 1042 344 1040 l 397 1106 b 394 1158 419 1131 419 1144 l 199 1274 b 107 1269 167 1292 133 1300 z m 69 931 l 69 56 b 125 0 69 14 83 0 l 289 0 b 344 56 331 0 344 14 l 344 931 b 289 986 344 972 331 986 l 125 986 b 69 931 83 986 69 972 z "},"ĳ":{"ha":1228,"x_min":0,"x_max":0,"o":"m 1108 988 l 947 988 b 890 929 904 988 890 972 l 890 342 b 789 222 890 261 857 222 b 681 307 733 222 704 251 b 603 340 664 349 644 356 l 458 289 b 421 214 417 274 407 254 b 782 -21 476 65 592 -21 b 1165 343 1035 -21 1165 115 l 1165 929 b 1108 988 1165 972 1150 988 z m 69 931 l 69 56 b 125 0 69 14 83 0 l 289 0 b 344 56 331 0 344 14 l 344 931 b 289 986 344 972 331 986 l 125 986 b 69 931 83 986 69 972 z "},"ī":{"ha":415,"x_min":0,"x_max":0,"o":"m 376 1239 l 38 1239 b -11 1189 3 1239 -11 1229 l -11 1131 b 38 1081 -11 1090 -1 1081 l 376 1081 b 428 1131 417 1081 428 1090 l 428 1189 b 376 1239 428 1229 417 1239 z m 69 931 l 69 56 b 125 0 69 14 83 0 l 289 0 b 344 56 331 0 344 14 l 344 931 b 289 986 344 972 331 986 l 125 986 b 69 931 83 986 69 972 z "},"į":{"ha":415,"x_min":0,"x_max":0,"o":"m 360 -251 l 331 -186 b 299 -178 325 -172 313 -168 b 272 -186 289 -183 281 -186 b 247 -161 258 -186 250 -176 b 326 6 243 -131 254 -69 b 344 56 340 17 344 31 l 344 931 b 289 986 344 972 331 986 l 125 986 b 69 931 83 986 69 972 l 69 63 b 149 0 69 18 83 0 b 49 -249 76 -74 32 -165 b 197 -342 64 -326 132 -342 b 351 -293 253 -342 313 -324 b 360 -251 365 -283 368 -272 z "},"ĩ":{"ha":415,"x_min":0,"x_max":0,"o":"m 411 1263 l 328 1263 b 300 1236 307 1263 300 1256 b 281 1206 300 1214 293 1206 b 92 1263 235 1206 197 1263 b -42 1092 11 1263 -42 1224 b -10 1060 -42 1071 -33 1060 l 76 1060 b 103 1088 96 1060 103 1068 b 124 1118 103 1108 110 1118 b 307 1060 169 1118 204 1060 b 443 1231 396 1060 443 1101 b 411 1263 443 1253 436 1263 z m 69 931 l 69 56 b 125 0 69 14 83 0 l 289 0 b 344 56 331 0 344 14 l 344 931 b 289 986 344 972 331 986 l 125 986 b 69 931 83 986 69 972 z "},"j":{"ha":815,"x_min":0,"x_max":0,"o":"m 694 988 l 535 988 b 476 929 490 988 476 972 l 476 342 b 375 222 476 261 443 222 b 267 307 319 222 290 251 b 189 340 250 349 231 356 l 44 289 b 8 214 4 274 -7 254 b 369 -21 63 65 178 -21 b 751 343 621 -21 751 115 l 751 929 b 694 988 751 972 738 988 z "},"ȷ":{"ha":815,"x_min":0,"x_max":0,"o":"m 694 988 l 535 988 b 476 929 490 988 476 972 l 476 342 b 375 222 476 261 443 222 b 267 307 319 222 290 251 b 189 340 250 349 231 356 l 44 289 b 8 214 4 274 -7 254 b 369 -21 63 65 178 -21 b 751 343 621 -21 751 115 l 751 929 b 694 988 751 972 738 988 z "},"ĵ":{"ha":815,"x_min":0,"x_max":0,"o":"m 643 1278 l 599 1278 b 492 1236 540 1278 529 1274 l 350 1094 b 371 1047 328 1072 326 1047 l 481 1047 b 571 1078 532 1047 547 1050 l 614 1126 l 654 1076 b 747 1047 675 1050 692 1047 l 864 1047 b 885 1094 908 1047 907 1072 l 742 1236 b 643 1278 704 1274 692 1278 z m 694 988 l 535 988 b 476 929 490 988 476 972 l 476 342 b 375 222 476 261 443 222 b 267 307 319 222 290 251 b 189 340 250 349 231 356 l 44 289 b 8 214 4 274 -7 254 b 369 -21 63 65 178 -21 b 751 343 621 -21 751 115 l 751 929 b 694 988 751 972 738 988 z "},"k":{"ha":910,"x_min":0,"x_max":0,"o":"m 894 68 l 711 415 b 626 522 688 463 661 497 l 879 925 b 846 986 901 961 888 986 l 686 986 b 575 935 614 986 601 978 l 375 619 l 344 619 l 344 928 b 286 986 344 971 331 986 l 129 986 b 69 928 85 986 69 971 l 69 58 b 129 0 69 15 85 0 l 286 0 b 344 58 331 0 344 15 l 344 376 l 369 376 b 464 307 422 376 442 351 l 585 58 b 708 0 608 10 635 0 l 858 0 b 894 68 904 0 914 31 z "},"ķ":{"ha":910,"x_min":0,"x_max":0,"o":"m 894 68 l 711 415 b 626 522 688 463 661 497 l 879 925 b 846 986 901 961 888 986 l 686 986 b 575 935 614 986 601 978 l 375 619 l 344 619 l 344 928 b 286 986 344 971 331 986 l 129 986 b 69 928 85 986 69 971 l 69 58 b 129 0 69 15 85 0 l 286 0 b 344 58 331 0 344 15 l 344 376 l 369 376 b 464 307 422 376 442 351 l 585 58 b 708 0 608 10 635 0 l 858 0 b 894 68 904 0 914 31 z m 519 -315 l 586 -125 b 539 -67 600 -89 588 -67 l 415 -67 b 353 -125 372 -67 358 -83 l 331 -319 b 368 -361 328 -350 338 -361 l 457 -361 b 519 -315 493 -361 508 -347 z "},"ĸ":{"ha":910,"x_min":0,"x_max":0,"o":"m 894 68 l 711 415 b 626 522 688 463 661 497 l 879 925 b 846 986 901 961 888 986 l 686 986 b 575 935 614 986 601 978 l 375 619 l 344 619 l 344 928 b 286 986 344 971 331 986 l 129 986 b 69 928 85 986 69 971 l 69 58 b 129 0 69 15 85 0 l 286 0 b 344 58 331 0 344 15 l 344 376 l 369 376 b 464 307 422 376 442 351 l 585 58 b 708 0 608 10 635 0 l 858 0 b 894 68 904 0 914 31 z "},"l":{"ha":753,"x_min":0,"x_max":0,"o":"m 286 986 l 129 986 b 69 928 85 986 69 971 l 69 58 b 129 0 69 15 85 0 l 679 0 b 738 58 722 0 738 15 l 738 185 b 679 243 738 229 722 243 l 344 243 l 344 928 b 286 986 344 971 331 986 z "},"ĺ":{"ha":753,"x_min":0,"x_max":0,"o":"m 222 1269 l 26 1157 b 22 1104 1 1143 1 1131 l 61 1058 b 125 1051 75 1039 92 1042 l 376 1129 b 385 1185 410 1142 408 1157 l 314 1265 b 222 1269 286 1296 254 1288 z m 286 986 l 129 986 b 69 928 85 986 69 971 l 69 58 b 129 0 69 15 85 0 l 679 0 b 738 58 722 0 738 15 l 738 185 b 679 243 738 229 722 243 l 344 243 l 344 928 b 286 986 344 971 331 986 z "},"ľ":{"ha":757,"x_min":0,"x_max":0,"o":"m 285 986 l 128 986 b 69 928 83 986 69 971 l 69 58 b 128 0 69 15 83 0 l 678 0 b 736 58 722 0 736 15 l 736 185 b 678 243 736 229 722 243 l 344 243 l 344 928 b 285 986 344 971 329 986 z m 614 713 l 694 932 b 647 986 707 968 696 986 l 522 986 b 461 932 479 986 465 974 l 435 701 b 468 665 432 674 438 665 l 549 665 b 614 713 589 665 600 676 z "},"ļ":{"ha":753,"x_min":0,"x_max":0,"o":"m 286 986 l 129 986 b 69 928 85 986 69 971 l 69 58 b 129 0 69 15 85 0 l 679 0 b 738 58 722 0 738 15 l 738 185 b 679 243 738 229 722 243 l 344 243 l 344 928 b 286 986 344 971 331 986 z m 444 -315 l 511 -125 b 464 -67 525 -89 514 -67 l 340 -67 b 279 -125 299 -67 283 -83 l 256 -319 b 293 -361 253 -350 263 -361 l 382 -361 b 444 -315 418 -361 433 -347 z "},"ŀ":{"ha":757,"x_min":0,"x_max":0,"o":"m 286 986 l 129 986 b 69 928 85 986 69 971 l 69 58 b 129 0 69 15 85 0 l 679 0 b 738 58 722 0 738 15 l 738 185 b 679 243 738 229 722 243 l 344 243 l 344 928 b 286 986 344 971 331 986 z m 582 694 l 532 694 b 429 592 454 694 429 669 l 429 539 b 532 436 429 461 454 436 l 582 436 b 685 539 660 436 685 461 l 685 592 b 582 694 685 669 660 694 z "},"ł":{"ha":819,"x_min":0,"x_max":0,"o":"m 744 243 l 411 243 l 411 468 l 640 571 b 658 621 663 581 669 597 l 624 690 b 567 708 613 714 599 724 l 411 639 l 411 928 b 351 986 411 971 396 986 l 194 986 b 136 928 150 986 136 971 l 136 517 l 7 458 b -11 408 -15 449 -22 431 l 24 338 b 81 321 36 314 49 306 l 136 344 l 136 58 b 194 0 136 15 150 0 l 744 0 b 803 58 789 0 803 15 l 803 185 b 744 243 803 229 789 243 z "},"m":{"ha":1146,"x_min":0,"x_max":0,"o":"m 1017 988 l 878 988 b 800 943 832 988 819 981 l 571 494 l 342 944 b 260 988 322 979 308 988 l 129 988 b 69 929 85 988 69 974 l 69 57 b 129 0 69 14 85 0 l 271 0 b 331 57 315 0 331 14 l 331 254 b 274 619 331 350 324 419 l 288 619 b 374 390 301 571 344 443 l 456 233 b 522 193 471 203 485 193 l 615 193 b 682 233 653 193 667 206 l 760 390 b 853 619 789 447 839 574 l 868 619 b 807 256 815 435 807 347 l 807 57 b 865 0 807 14 821 0 l 1017 0 b 1076 57 1061 0 1076 14 l 1076 929 b 1017 988 1076 974 1061 988 z "},"n":{"ha":972,"x_min":0,"x_max":0,"o":"m 844 986 l 703 986 b 644 928 658 986 644 971 l 644 700 b 707 349 644 558 663 492 l 696 349 b 579 603 651 454 640 507 l 351 958 b 293 986 339 978 325 986 l 129 986 b 69 928 85 986 69 971 l 69 58 b 129 0 69 15 85 0 l 269 0 b 329 58 314 0 329 15 l 329 285 b 283 643 329 439 313 510 l 294 643 b 417 357 332 518 356 453 l 631 28 b 688 0 643 8 658 0 l 844 0 b 903 58 888 0 903 15 l 903 928 b 844 986 903 971 888 986 z "},"ń":{"ha":972,"x_min":0,"x_max":0,"o":"m 504 1269 l 308 1157 b 306 1104 285 1143 283 1131 l 343 1058 b 407 1051 358 1039 374 1042 l 660 1129 b 667 1185 693 1142 692 1157 l 596 1265 b 504 1269 568 1296 536 1288 z m 844 986 l 703 986 b 644 928 658 986 644 971 l 644 700 b 707 349 644 558 663 492 l 696 349 b 579 603 651 454 640 507 l 351 958 b 293 986 339 978 325 986 l 129 986 b 69 928 85 986 69 971 l 69 58 b 129 0 69 15 85 0 l 269 0 b 329 58 314 0 329 15 l 329 285 b 283 643 329 439 313 510 l 294 643 b 417 357 332 518 356 453 l 631 28 b 688 0 643 8 658 0 l 844 0 b 903 58 888 0 903 15 l 903 928 b 844 986 903 971 888 986 z "},"ŉ":{"ha":972,"x_min":0,"x_max":0,"o":"m 844 986 l 703 986 b 644 928 658 986 644 971 l 644 700 b 707 349 644 558 663 492 l 696 349 b 579 603 651 454 640 507 l 351 958 b 293 986 339 978 325 986 l 129 986 b 69 928 85 986 69 971 l 69 58 b 129 0 69 15 85 0 l 269 0 b 329 58 314 0 329 15 l 329 285 b 283 643 329 439 313 510 l 294 643 b 417 357 332 518 356 453 l 631 28 b 688 0 643 8 658 0 l 844 0 b 903 58 888 0 903 15 l 903 928 b 844 986 903 971 888 986 z "},"ň":{"ha":972,"x_min":0,"x_max":0,"o":"m 735 1278 l 629 1278 b 538 1247 576 1278 560 1274 l 496 1200 l 454 1247 b 363 1278 432 1274 418 1278 l 246 1278 b 229 1229 201 1278 208 1251 l 369 1088 b 471 1047 407 1050 418 1047 l 510 1047 b 613 1088 564 1047 575 1050 l 753 1229 b 735 1278 774 1251 779 1278 z m 844 986 l 703 986 b 644 928 658 986 644 971 l 644 700 b 707 349 644 558 663 492 l 696 349 b 579 603 651 454 640 507 l 351 958 b 293 986 339 978 325 986 l 129 986 b 69 928 85 986 69 971 l 69 58 b 129 0 69 15 85 0 l 269 0 b 329 58 314 0 329 15 l 329 285 b 283 643 329 439 313 510 l 294 643 b 417 357 332 518 356 453 l 631 28 b 688 0 643 8 658 0 l 844 0 b 903 58 888 0 903 15 l 903 928 b 844 986 903 971 888 986 z "},"ņ":{"ha":972,"x_min":0,"x_max":0,"o":"m 844 986 l 703 986 b 644 928 658 986 644 971 l 644 700 b 707 349 644 558 663 492 l 696 349 b 579 603 651 454 640 507 l 351 958 b 293 986 339 978 325 986 l 129 986 b 69 928 85 986 69 971 l 69 58 b 129 0 69 15 85 0 l 269 0 b 329 58 314 0 329 15 l 329 285 b 283 643 329 439 313 510 l 294 643 b 417 357 332 518 356 453 l 631 28 b 688 0 643 8 658 0 l 844 0 b 903 58 888 0 903 15 l 903 928 b 844 986 903 971 888 986 z m 544 -315 l 611 -125 b 564 -67 625 -89 614 -67 l 440 -67 b 379 -125 399 -67 383 -83 l 356 -319 b 393 -361 353 -350 363 -361 l 482 -361 b 544 -315 518 -361 533 -347 z "},"ŋ":{"ha":972,"x_min":0,"x_max":0,"o":"m 844 986 l 703 986 b 644 928 658 986 644 971 l 644 700 b 707 349 644 558 663 492 l 696 349 b 579 603 651 454 640 507 l 351 958 b 293 986 339 978 325 986 l 129 986 b 69 928 85 986 69 971 l 69 58 b 129 0 69 15 85 0 l 269 0 b 329 58 314 0 329 15 l 329 285 b 283 643 329 439 313 510 l 294 643 b 417 357 332 518 356 453 l 640 15 l 640 3 b 550 -92 640 -58 617 -92 b 494 -147 508 -92 494 -106 l 494 -265 b 550 -319 494 -306 508 -319 b 903 -14 783 -319 903 -226 l 903 928 b 844 986 903 971 888 986 z "},"ñ":{"ha":972,"x_min":0,"x_max":0,"o":"m 693 1263 l 610 1263 b 583 1236 589 1263 583 1256 b 563 1206 583 1214 575 1206 b 374 1263 517 1206 481 1263 b 242 1092 293 1263 242 1224 b 274 1060 242 1071 250 1060 l 358 1060 b 385 1088 378 1060 385 1068 b 406 1118 385 1108 393 1118 b 590 1060 451 1118 488 1060 b 726 1231 678 1060 726 1101 b 693 1263 726 1253 719 1263 z m 844 986 l 703 986 b 644 928 658 986 644 971 l 644 700 b 707 349 644 558 663 492 l 696 349 b 579 603 651 454 640 507 l 351 958 b 293 986 339 978 325 986 l 129 986 b 69 928 85 986 69 971 l 69 58 b 129 0 69 15 85 0 l 269 0 b 329 58 314 0 329 15 l 329 285 b 283 643 329 439 313 510 l 294 643 b 417 357 332 518 356 453 l 631 28 b 688 0 643 8 658 0 l 844 0 b 903 58 888 0 903 15 l 903 928 b 844 986 903 971 888 986 z "},"o":{"ha":947,"x_min":0,"x_max":0,"o":"m 46 618 l 46 368 b 474 -21 46 128 199 -21 b 900 368 747 -21 900 128 l 900 618 b 474 1007 900 858 747 1007 b 46 618 199 1007 46 858 z m 625 631 l 625 356 b 474 222 625 268 569 222 b 321 356 376 222 321 268 l 321 631 b 474 764 321 718 376 764 b 625 631 569 764 625 718 z "},"ó":{"ha":947,"x_min":0,"x_max":0,"o":"m 488 1283 l 292 1171 b 288 1118 268 1157 267 1144 l 326 1072 b 390 1065 340 1053 357 1056 l 642 1143 b 650 1199 676 1156 675 1171 l 579 1279 b 488 1283 551 1310 519 1301 z m 46 618 l 46 368 b 474 -21 46 128 199 -21 b 900 368 747 -21 900 128 l 900 618 b 474 1007 900 858 747 1007 b 46 618 199 1007 46 858 z m 625 631 l 625 356 b 474 222 625 268 569 222 b 321 356 376 222 321 268 l 321 631 b 474 764 321 718 376 764 b 625 631 569 764 625 718 z "},"ŏ":{"ha":947,"x_min":0,"x_max":0,"o":"m 719 1208 b 696 1257 729 1235 722 1247 l 599 1293 b 549 1275 569 1301 563 1299 b 474 1229 531 1244 508 1229 b 397 1275 438 1229 414 1244 b 344 1292 383 1299 375 1303 l 253 1257 b 229 1208 226 1246 219 1235 b 474 1061 264 1114 351 1061 b 719 1208 597 1061 683 1114 z m 46 618 l 46 368 b 474 -21 46 128 199 -21 b 900 368 747 -21 900 128 l 900 618 b 474 1007 900 858 747 1007 b 46 618 199 1007 46 858 z m 625 631 l 625 356 b 474 222 625 268 569 222 b 321 356 376 222 321 268 l 321 631 b 474 764 321 718 376 764 b 625 631 569 764 625 718 z "},"ô":{"ha":947,"x_min":0,"x_max":0,"o":"m 501 1292 l 457 1292 b 351 1250 399 1292 388 1288 l 210 1108 b 231 1061 188 1086 185 1061 l 339 1061 b 431 1092 392 1061 407 1064 l 474 1140 l 514 1090 b 606 1061 533 1064 550 1061 l 722 1061 b 743 1108 767 1061 765 1086 l 601 1250 b 501 1292 563 1288 551 1292 z m 46 618 l 46 368 b 474 -21 46 128 199 -21 b 900 368 747 -21 900 128 l 900 618 b 474 1007 900 858 747 1007 b 46 618 199 1007 46 858 z m 625 631 l 625 356 b 474 222 625 268 569 222 b 321 356 376 222 321 268 l 321 631 b 474 764 321 718 376 764 b 625 631 569 764 625 718 z "},"ö":{"ha":947,"x_min":0,"x_max":0,"o":"m 329 1283 l 318 1283 b 218 1185 242 1283 218 1260 l 218 1167 b 318 1068 218 1093 242 1068 l 329 1068 b 431 1167 406 1068 431 1093 l 431 1185 b 329 1283 431 1260 406 1283 z m 628 1283 l 618 1283 b 515 1185 540 1283 515 1260 l 515 1167 b 618 1068 515 1093 540 1068 l 628 1068 b 728 1167 704 1068 728 1093 l 728 1185 b 628 1283 728 1260 704 1283 z m 46 618 l 46 368 b 474 -21 46 128 199 -21 b 900 368 747 -21 900 128 l 900 618 b 474 1007 900 858 747 1007 b 46 618 199 1007 46 858 z m 625 631 l 625 356 b 474 222 625 268 569 222 b 321 356 376 222 321 268 l 321 631 b 474 764 321 718 376 764 b 625 631 569 764 625 718 z "},"ò":{"ha":947,"x_min":0,"x_max":0,"o":"m 372 1283 l 301 1200 b 308 1144 278 1171 275 1156 l 561 1067 b 625 1072 594 1056 610 1054 l 663 1119 b 660 1172 685 1144 685 1158 l 464 1288 b 372 1283 432 1306 399 1314 z m 46 618 l 46 368 b 474 -21 46 128 199 -21 b 900 368 747 -21 900 128 l 900 618 b 474 1007 900 858 747 1007 b 46 618 199 1007 46 858 z m 625 631 l 625 356 b 474 222 625 268 569 222 b 321 356 376 222 321 268 l 321 631 b 474 764 321 718 376 764 b 625 631 569 764 625 718 z "},"ő":{"ha":947,"x_min":0,"x_max":0,"o":"m 318 1260 l 219 1128 b 236 1075 203 1104 201 1082 l 299 1064 b 360 1085 322 1057 333 1063 l 517 1217 b 501 1275 543 1240 539 1267 l 408 1296 b 318 1260 367 1304 342 1293 z m 593 1260 l 488 1126 b 504 1074 469 1104 469 1081 l 565 1060 b 626 1081 590 1054 601 1060 l 796 1208 b 781 1268 825 1231 818 1257 l 685 1293 b 593 1260 643 1304 619 1292 z m 46 618 l 46 368 b 474 -21 46 128 199 -21 b 900 368 747 -21 900 128 l 900 618 b 474 1007 900 858 747 1007 b 46 618 199 1007 46 858 z m 625 631 l 625 356 b 474 222 625 268 569 222 b 321 356 376 222 321 268 l 321 631 b 474 764 321 718 376 764 b 625 631 569 764 625 718 z "},"ō":{"ha":947,"x_min":0,"x_max":0,"o":"m 642 1253 l 304 1253 b 254 1203 268 1253 254 1243 l 254 1144 b 304 1094 254 1104 264 1094 l 642 1094 b 693 1144 682 1094 693 1104 l 693 1203 b 642 1253 693 1243 682 1253 z m 46 618 l 46 368 b 474 -21 46 128 199 -21 b 900 368 747 -21 900 128 l 900 618 b 474 1007 900 858 747 1007 b 46 618 199 1007 46 858 z m 625 631 l 625 356 b 474 222 625 268 569 222 b 321 356 376 222 321 268 l 321 631 b 474 764 321 718 376 764 b 625 631 569 764 625 718 z "},"ø":{"ha":947,"x_min":0,"x_max":0,"o":"m 908 1046 l 775 1046 b 728 1024 749 1046 742 1044 l 690 967 b 474 1007 631 993 558 1007 b 46 618 199 1007 46 858 l 46 368 b 129 111 46 264 75 176 l 36 -32 b 47 -58 26 -46 29 -58 l 178 -58 b 226 -36 210 -58 213 -57 l 261 17 b 474 -21 319 -8 392 -21 b 900 368 747 -19 900 128 l 900 618 b 821 869 900 719 874 806 l 921 1021 b 908 1046 929 1035 926 1046 z m 556 747 l 324 392 b 321 428 322 404 321 415 l 321 631 b 474 764 321 718 376 764 b 556 747 506 764 533 758 z m 396 236 l 624 586 b 625 553 625 576 625 564 l 625 356 b 474 222 625 268 569 222 b 396 236 443 222 418 228 z "},"ǿ":{"ha":947,"x_min":0,"x_max":0,"o":"m 489 1283 l 293 1171 b 289 1118 268 1157 267 1144 l 326 1072 b 392 1065 342 1053 358 1056 l 643 1143 b 651 1199 676 1156 675 1171 l 581 1279 b 489 1283 551 1310 521 1301 z m 908 1046 l 775 1046 b 728 1024 749 1046 742 1044 l 690 967 b 474 1007 631 993 558 1007 b 46 618 199 1007 46 858 l 46 368 b 129 111 46 264 75 176 l 36 -32 b 47 -58 26 -46 29 -58 l 178 -58 b 226 -36 210 -58 213 -57 l 261 17 b 474 -21 319 -8 392 -21 b 900 368 747 -19 900 128 l 900 618 b 821 869 900 719 874 806 l 921 1021 b 908 1046 929 1035 926 1046 z m 556 747 l 324 392 b 321 428 322 404 321 415 l 321 631 b 474 764 321 718 376 764 b 556 747 506 764 533 758 z m 396 236 l 624 586 b 625 553 625 576 625 564 l 625 356 b 474 222 625 268 569 222 b 396 236 443 222 418 228 z "},"õ":{"ha":947,"x_min":0,"x_max":0,"o":"m 676 1276 l 593 1276 b 567 1250 572 1276 567 1269 b 546 1219 567 1228 558 1219 b 357 1276 500 1219 464 1276 b 224 1106 276 1276 224 1238 b 257 1074 224 1085 232 1074 l 342 1074 b 368 1101 361 1074 368 1082 b 389 1132 368 1122 376 1132 b 574 1074 435 1132 471 1074 b 708 1244 661 1074 708 1115 b 676 1276 708 1267 701 1276 z m 46 618 l 46 368 b 474 -21 46 128 199 -21 b 900 368 747 -21 900 128 l 900 618 b 474 1007 900 858 747 1007 b 46 618 199 1007 46 858 z m 625 631 l 625 356 b 474 222 625 268 569 222 b 321 356 376 222 321 268 l 321 631 b 474 764 321 718 376 764 b 625 631 569 764 625 718 z "},"œ":{"ha":1228,"x_min":0,"x_max":0,"o":"m 1135 243 l 832 243 l 832 376 l 1049 376 b 1108 436 1093 376 1108 392 l 1108 561 b 1049 619 1108 604 1093 619 l 832 619 l 832 743 l 1124 743 b 1182 803 1167 743 1182 758 l 1182 928 b 1124 986 1182 971 1167 986 l 635 986 b 474 1007 588 1000 533 1007 b 46 618 199 1007 46 858 l 46 368 b 474 -21 46 128 199 -21 b 646 0 538 -21 592 -17 l 1135 0 b 1193 58 1179 0 1193 15 l 1193 185 b 1135 243 1193 229 1179 243 z m 321 356 l 321 631 b 474 764 321 718 376 764 b 557 747 506 764 533 758 l 557 239 b 474 222 533 228 506 222 b 321 356 376 222 321 268 z "},"p":{"ha":899,"x_min":0,"x_max":0,"o":"m 513 986 l 129 986 b 69 928 85 986 69 971 l 69 58 b 129 0 69 15 85 0 l 286 0 b 344 58 331 0 344 15 l 344 296 l 515 296 b 871 639 731 296 871 419 b 513 986 871 860 729 986 z m 482 539 l 344 539 l 344 743 l 482 743 b 586 640 547 743 586 701 b 482 539 586 579 547 539 z "},"þ":{"ha":883,"x_min":0,"x_max":0,"o":"m 493 861 l 343 861 l 343 928 b 285 986 343 971 329 986 l 128 986 b 69 928 83 986 69 971 l 69 58 b 128 0 69 15 83 0 l 285 0 b 343 58 329 0 343 15 l 343 139 l 493 139 b 861 499 717 139 861 275 b 493 861 861 724 717 861 z m 458 382 l 343 382 l 343 618 l 458 618 b 576 500 532 618 576 567 b 458 382 576 432 532 382 z "},"q":{"ha":965,"x_min":0,"x_max":0,"o":"m 913 49 l 836 139 b 900 368 879 200 900 276 l 900 618 b 474 1007 900 858 747 1007 b 46 618 199 1007 46 858 l 46 368 b 474 -21 46 128 199 -21 b 631 -1 532 -21 585 -14 l 721 -108 b 803 -115 749 -142 771 -143 l 906 -35 b 913 49 939 -4 940 15 z m 321 356 l 321 631 b 474 764 321 718 376 764 b 625 631 569 764 625 718 l 625 356 b 474 222 625 268 569 222 b 321 356 376 222 321 268 z "},"r":{"ha":918,"x_min":0,"x_max":0,"o":"m 525 986 l 129 986 b 69 928 85 986 69 971 l 69 58 b 129 0 69 15 85 0 l 286 0 b 344 58 331 0 344 15 l 344 328 l 376 328 b 481 257 433 328 457 304 l 569 67 b 697 0 592 18 624 0 l 847 0 b 883 68 893 0 903 31 l 758 306 b 721 365 747 328 735 347 b 871 651 815 418 871 515 b 525 986 871 867 735 986 z m 586 653 b 494 560 586 596 553 560 l 344 560 l 344 743 l 494 743 b 586 653 554 743 586 708 z "},"ŕ":{"ha":918,"x_min":0,"x_max":0,"o":"m 457 1269 l 261 1157 b 257 1104 236 1143 235 1131 l 294 1058 b 360 1051 310 1039 326 1042 l 611 1129 b 619 1185 644 1142 643 1157 l 549 1265 b 457 1269 519 1296 489 1288 z m 525 986 l 129 986 b 69 928 85 986 69 971 l 69 58 b 129 0 69 15 85 0 l 286 0 b 344 58 331 0 344 15 l 344 328 l 376 328 b 481 257 433 328 457 304 l 569 67 b 697 0 592 18 624 0 l 847 0 b 883 68 893 0 903 31 l 758 306 b 721 365 747 328 735 347 b 871 651 815 418 871 515 b 525 986 871 867 735 986 z m 586 653 b 494 560 586 596 553 560 l 344 560 l 344 743 l 494 743 b 586 653 554 743 586 708 z "},"ř":{"ha":918,"x_min":0,"x_max":0,"o":"m 686 1278 l 581 1278 b 489 1247 529 1278 513 1274 l 449 1200 l 406 1247 b 314 1278 385 1274 369 1278 l 197 1278 b 182 1229 153 1278 160 1251 l 322 1088 b 424 1047 358 1050 371 1047 l 461 1047 b 565 1088 517 1047 528 1050 l 704 1229 b 686 1278 726 1251 732 1278 z m 525 986 l 129 986 b 69 928 85 986 69 971 l 69 58 b 129 0 69 15 85 0 l 286 0 b 344 58 331 0 344 15 l 344 328 l 376 328 b 481 257 433 328 457 304 l 569 67 b 697 0 592 18 624 0 l 847 0 b 883 68 893 0 903 31 l 758 306 b 721 365 747 328 735 347 b 871 651 815 418 871 515 b 525 986 871 867 735 986 z m 586 653 b 494 560 586 596 553 560 l 344 560 l 344 743 l 494 743 b 586 653 554 743 586 708 z "},"ŗ":{"ha":918,"x_min":0,"x_max":0,"o":"m 525 986 l 129 986 b 69 928 85 986 69 971 l 69 58 b 129 0 69 15 85 0 l 286 0 b 344 58 331 0 344 15 l 344 328 l 376 328 b 481 257 433 328 457 304 l 569 67 b 697 0 592 18 624 0 l 847 0 b 883 68 893 0 903 31 l 758 306 b 721 365 747 328 735 347 b 871 651 815 418 871 515 b 525 986 871 867 735 986 z m 586 653 b 494 560 586 596 553 560 l 344 560 l 344 743 l 494 743 b 586 653 554 743 586 708 z m 526 -315 l 594 -125 b 547 -67 607 -89 596 -67 l 422 -67 b 361 -125 381 -67 367 -83 l 339 -319 b 375 -361 335 -350 346 -361 l 464 -361 b 526 -315 501 -361 515 -347 z "},"s":{"ha":899,"x_min":0,"x_max":0,"o":"m 39 696 b 429 375 39 426 267 397 b 592 293 521 363 592 347 b 443 214 592 233 536 214 b 286 288 365 214 311 239 b 204 318 265 328 246 332 l 74 271 b 36 194 33 256 21 236 b 440 -21 89 50 233 -21 b 871 296 686 -21 871 92 b 501 619 871 558 663 597 b 319 704 401 632 319 644 b 451 776 319 753 357 776 b 592 704 515 776 565 757 b 667 675 614 664 629 658 l 806 735 b 839 813 847 751 858 772 b 451 1007 774 946 657 1007 b 39 696 186 1007 39 879 z "},"ś":{"ha":899,"x_min":0,"x_max":0,"o":"m 464 1283 l 268 1171 b 264 1118 243 1157 243 1144 l 303 1072 b 367 1065 317 1053 333 1056 l 618 1143 b 626 1199 651 1156 650 1171 l 556 1279 b 464 1283 528 1310 496 1301 z m 39 696 b 429 375 39 426 267 397 b 592 293 521 363 592 347 b 443 214 592 233 536 214 b 286 288 365 214 311 239 b 204 318 265 328 246 332 l 74 271 b 36 194 33 256 21 236 b 440 -21 89 50 233 -21 b 871 296 686 -21 871 92 b 501 619 871 558 663 597 b 319 704 401 632 319 644 b 451 776 319 753 357 776 b 592 704 515 776 565 757 b 667 675 614 664 629 658 l 806 735 b 839 813 847 751 858 772 b 451 1007 774 946 657 1007 b 39 696 186 1007 39 879 z "},"š":{"ha":899,"x_min":0,"x_max":0,"o":"m 693 1292 l 588 1292 b 496 1261 536 1292 519 1288 l 456 1214 l 413 1261 b 322 1292 392 1288 376 1292 l 206 1292 b 189 1243 160 1292 167 1265 l 329 1101 b 431 1061 367 1064 378 1061 l 468 1061 b 572 1101 524 1061 535 1064 l 711 1243 b 693 1292 733 1265 739 1292 z m 39 696 b 429 375 39 426 267 397 b 592 293 521 363 592 347 b 443 214 592 233 536 214 b 286 288 365 214 311 239 b 204 318 265 328 246 332 l 74 271 b 36 194 33 256 21 236 b 440 -21 89 50 233 -21 b 871 296 686 -21 871 92 b 501 619 871 558 663 597 b 319 704 401 632 319 644 b 451 776 319 753 357 776 b 592 704 515 776 565 757 b 667 675 614 664 629 658 l 806 735 b 839 813 847 751 858 772 b 451 1007 774 946 657 1007 b 39 696 186 1007 39 879 z "},"ş":{"ha":897,"x_min":0,"x_max":0,"o":"m 501 619 b 319 704 401 632 319 644 b 450 776 319 753 357 776 b 592 704 514 776 564 757 b 667 675 613 664 628 658 l 806 735 b 839 813 847 751 858 772 b 450 1007 772 946 656 1007 b 39 696 186 1007 39 879 b 429 375 39 426 267 397 b 592 293 519 363 592 347 b 442 214 592 233 536 214 b 286 288 364 214 310 239 b 204 318 264 328 246 332 l 72 271 b 36 194 32 256 21 236 b 397 -19 85 61 213 -11 l 353 -118 b 372 -160 340 -147 346 -160 l 400 -160 b 458 -190 446 -161 458 -169 b 411 -222 458 -208 446 -222 b 335 -201 378 -222 358 -214 b 290 -224 303 -185 290 -197 l 292 -282 b 328 -325 292 -303 299 -314 b 432 -340 363 -337 399 -340 b 640 -201 529 -340 628 -311 b 526 -64 649 -126 604 -65 l 513 -64 l 532 -15 b 871 296 732 10 871 118 b 501 619 871 558 661 597 z "},"ŝ":{"ha":899,"x_min":0,"x_max":0,"o":"m 478 1292 l 433 1292 b 326 1250 375 1292 364 1288 l 185 1108 b 207 1061 164 1086 161 1061 l 315 1061 b 406 1092 368 1061 383 1064 l 450 1140 l 489 1090 b 582 1061 510 1064 526 1061 l 699 1061 b 719 1108 743 1061 742 1086 l 576 1250 b 478 1292 539 1288 528 1292 z m 39 696 b 429 375 39 426 267 397 b 592 293 521 363 592 347 b 443 214 592 233 536 214 b 286 288 365 214 311 239 b 204 318 265 328 246 332 l 74 271 b 36 194 33 256 21 236 b 440 -21 89 50 233 -21 b 871 296 686 -21 871 92 b 501 619 871 558 663 597 b 319 704 401 632 319 644 b 451 776 319 753 357 776 b 592 704 515 776 565 757 b 667 675 614 664 629 658 l 806 735 b 839 813 847 751 858 772 b 451 1007 774 946 657 1007 b 39 696 186 1007 39 879 z "},"ș":{"ha":899,"x_min":0,"x_max":0,"o":"m 39 696 b 429 375 39 426 267 397 b 592 293 521 363 592 347 b 443 214 592 233 536 214 b 286 288 365 214 311 239 b 204 318 265 328 246 332 l 74 271 b 36 194 33 256 21 236 b 440 -21 89 50 233 -21 b 871 296 686 -21 871 92 b 501 619 871 558 663 597 b 319 704 401 632 319 644 b 451 776 319 753 357 776 b 592 704 515 776 565 757 b 667 675 614 664 629 658 l 806 735 b 839 813 847 751 858 772 b 451 1007 774 946 657 1007 b 39 696 186 1007 39 879 z m 515 -315 l 582 -125 b 535 -67 596 -89 583 -67 l 410 -67 b 349 -125 368 -67 354 -83 l 326 -319 b 364 -361 322 -350 333 -361 l 451 -361 b 515 -315 489 -361 504 -347 z "},"ß":{"ha":818,"x_min":0,"x_max":0,"o":"m 58 732 l 58 58 b 117 0 58 15 72 0 l 257 0 b 317 58 301 0 317 15 l 317 719 b 396 799 317 769 342 799 b 476 724 449 799 476 771 b 413 646 476 671 453 646 l 401 646 b 351 588 364 646 351 632 l 351 468 b 410 408 351 424 365 408 l 429 408 b 507 325 486 408 507 379 b 429 243 507 271 483 244 l 410 243 b 351 185 365 243 351 229 l 351 58 b 410 0 351 15 365 0 l 467 0 b 786 289 667 0 786 94 b 647 542 786 447 728 506 l 647 547 b 747 756 718 596 747 658 b 396 1042 747 938 633 1042 b 58 732 171 1042 58 921 z "},"ſ":{"ha":463,"x_min":0,"x_max":0,"o":"m 118 726 l 118 722 l 74 722 b 19 669 33 722 19 708 l 19 565 b 74 511 19 525 33 511 l 118 511 l 118 53 b 172 0 118 14 132 0 l 322 0 b 376 53 364 0 376 14 l 376 722 b 471 817 376 782 404 817 b 526 872 513 817 526 831 l 526 974 b 471 1028 526 1014 513 1028 b 118 726 239 1028 118 936 z "},"t":{"ha":838,"x_min":0,"x_max":0,"o":"m 763 986 l 75 986 b 17 928 31 986 17 971 l 17 803 b 75 743 17 758 31 743 l 282 743 l 282 58 b 340 0 282 15 296 0 l 497 0 b 557 58 542 0 557 15 l 557 743 l 763 743 b 822 803 807 743 822 758 l 822 928 b 763 986 822 971 807 986 z "},"ŧ":{"ha":853,"x_min":0,"x_max":0,"o":"m 771 986 l 83 986 b 24 928 39 986 24 971 l 24 803 b 83 743 24 758 39 743 l 289 743 l 289 517 l 157 517 b 122 481 133 517 122 508 l 122 388 b 157 350 122 357 131 350 l 289 350 l 289 58 b 349 0 289 15 304 0 l 506 0 b 564 58 550 0 564 15 l 564 350 l 697 350 b 732 388 724 350 732 357 l 732 481 b 697 517 732 508 724 517 l 564 517 l 564 743 l 771 743 b 829 803 815 743 829 758 l 829 928 b 771 986 829 971 815 986 z "},"ť":{"ha":838,"x_min":0,"x_max":0,"o":"m 664 1278 l 558 1278 b 467 1247 506 1278 489 1274 l 425 1200 l 383 1247 b 292 1278 361 1274 347 1278 l 175 1278 b 158 1229 129 1278 136 1251 l 299 1088 b 400 1047 336 1050 347 1047 l 438 1047 b 542 1088 493 1047 504 1050 l 681 1229 b 664 1278 703 1251 708 1278 z m 763 986 l 75 986 b 17 928 31 986 17 971 l 17 803 b 75 743 17 758 31 743 l 282 743 l 282 58 b 340 0 282 15 296 0 l 497 0 b 557 58 542 0 557 15 l 557 743 l 763 743 b 822 803 807 743 822 758 l 822 928 b 763 986 822 971 807 986 z "},"u":{"ha":961,"x_min":0,"x_max":0,"o":"m 338 350 l 338 928 b 278 986 338 971 322 986 l 121 986 b 63 928 76 986 63 971 l 63 363 b 481 -21 63 129 207 -21 b 900 363 756 -21 900 129 l 900 928 b 840 986 900 971 885 986 l 683 986 b 625 928 639 986 625 971 l 625 350 b 481 222 625 268 576 222 b 338 350 385 222 338 268 z "},"ú":{"ha":961,"x_min":0,"x_max":0,"o":"m 494 1269 l 299 1157 b 296 1104 275 1143 274 1131 l 333 1058 b 397 1051 349 1039 365 1042 l 650 1129 b 657 1185 683 1142 682 1157 l 586 1265 b 494 1269 558 1296 526 1288 z m 338 350 l 338 928 b 278 986 338 971 322 986 l 121 986 b 63 928 76 986 63 971 l 63 363 b 481 -21 63 129 207 -21 b 900 363 756 -21 900 129 l 900 928 b 840 986 900 971 885 986 l 683 986 b 625 928 639 986 625 971 l 625 350 b 481 222 625 268 576 222 b 338 350 385 222 338 268 z "},"ŭ":{"ha":961,"x_min":0,"x_max":0,"o":"m 728 1194 b 703 1243 738 1221 731 1233 l 606 1279 b 557 1261 578 1288 571 1285 b 481 1215 539 1231 517 1215 b 406 1261 444 1215 422 1231 b 351 1278 392 1285 382 1289 l 260 1243 b 236 1194 233 1232 226 1221 b 481 1047 272 1100 358 1047 b 728 1194 604 1047 692 1100 z m 338 350 l 338 928 b 278 986 338 971 322 986 l 121 986 b 63 928 76 986 63 971 l 63 363 b 481 -21 63 129 207 -21 b 900 363 756 -21 900 129 l 900 928 b 840 986 900 971 885 986 l 683 986 b 625 928 639 986 625 971 l 625 350 b 481 222 625 268 576 222 b 338 350 385 222 338 268 z "},"û":{"ha":961,"x_min":0,"x_max":0,"o":"m 510 1278 l 465 1278 b 358 1236 406 1278 396 1274 l 217 1094 b 238 1047 194 1072 193 1047 l 347 1047 b 438 1078 399 1047 414 1050 l 481 1126 l 521 1076 b 614 1047 542 1050 558 1047 l 729 1047 b 751 1094 775 1047 772 1072 l 608 1236 b 510 1278 571 1274 558 1278 z m 338 350 l 338 928 b 278 986 338 971 322 986 l 121 986 b 63 928 76 986 63 971 l 63 363 b 481 -21 63 129 207 -21 b 900 363 756 -21 900 129 l 900 928 b 840 986 900 971 885 986 l 683 986 b 625 928 639 986 625 971 l 625 350 b 481 222 625 268 576 222 b 338 350 385 222 338 268 z "},"ü":{"ha":961,"x_min":0,"x_max":0,"o":"m 336 1269 l 326 1269 b 226 1171 249 1269 226 1246 l 226 1153 b 326 1054 226 1079 249 1054 l 336 1054 b 439 1153 414 1054 439 1079 l 439 1171 b 336 1269 439 1246 414 1269 z m 635 1269 l 625 1269 b 524 1171 549 1269 524 1246 l 524 1153 b 625 1054 524 1079 549 1054 l 635 1054 b 736 1153 713 1054 736 1079 l 736 1171 b 635 1269 736 1246 713 1269 z m 338 350 l 338 928 b 278 986 338 971 322 986 l 121 986 b 63 928 76 986 63 971 l 63 363 b 481 -21 63 129 207 -21 b 900 363 756 -21 900 129 l 900 928 b 840 986 900 971 885 986 l 683 986 b 625 928 639 986 625 971 l 625 350 b 481 222 625 268 576 222 b 338 350 385 222 338 268 z "},"ù":{"ha":961,"x_min":0,"x_max":0,"o":"m 379 1269 l 308 1186 b 317 1131 285 1157 283 1142 l 568 1053 b 632 1058 601 1042 618 1040 l 671 1106 b 667 1158 692 1131 692 1144 l 471 1274 b 379 1269 439 1292 406 1300 z m 338 350 l 338 928 b 278 986 338 971 322 986 l 121 986 b 63 928 76 986 63 971 l 63 363 b 481 -21 63 129 207 -21 b 900 363 756 -21 900 129 l 900 928 b 840 986 900 971 885 986 l 683 986 b 625 928 639 986 625 971 l 625 350 b 481 222 625 268 576 222 b 338 350 385 222 338 268 z "},"ű":{"ha":961,"x_min":0,"x_max":0,"o":"m 325 1246 l 226 1114 b 244 1061 210 1090 210 1068 l 306 1050 b 367 1071 331 1043 340 1049 l 524 1203 b 508 1261 551 1226 546 1253 l 415 1282 b 325 1246 374 1290 349 1279 z m 601 1246 l 496 1113 b 511 1060 478 1090 478 1067 l 572 1046 b 635 1067 597 1040 608 1046 l 803 1194 b 789 1254 832 1217 826 1243 l 692 1279 b 601 1246 651 1290 626 1278 z m 338 350 l 338 928 b 278 986 338 971 322 986 l 121 986 b 63 928 76 986 63 971 l 63 363 b 481 -21 63 129 207 -21 b 900 363 756 -21 900 129 l 900 928 b 840 986 900 971 885 986 l 683 986 b 625 928 639 986 625 971 l 625 350 b 481 222 625 268 576 222 b 338 350 385 222 338 268 z "},"ū":{"ha":961,"x_min":0,"x_max":0,"o":"m 650 1239 l 311 1239 b 261 1189 276 1239 261 1229 l 261 1131 b 311 1081 261 1090 272 1081 l 650 1081 b 700 1131 690 1081 700 1090 l 700 1189 b 650 1239 700 1229 690 1239 z m 338 350 l 338 928 b 278 986 338 971 322 986 l 121 986 b 63 928 76 986 63 971 l 63 363 b 481 -21 63 129 207 -21 b 900 363 756 -21 900 129 l 900 928 b 840 986 900 971 885 986 l 683 986 b 625 928 639 986 625 971 l 625 350 b 481 222 625 268 576 222 b 338 350 385 222 338 268 z "},"ț":{"ha":838,"x_min":0,"x_max":0,"o":"m 763 986 l 75 986 b 17 928 31 986 17 971 l 17 803 b 75 743 17 758 31 743 l 282 743 l 282 58 b 340 0 282 15 296 0 l 497 0 b 557 58 542 0 557 15 l 557 743 l 763 743 b 822 803 807 743 822 758 l 822 928 b 763 986 822 971 807 986 z m 465 -315 l 538 -125 b 488 -67 551 -89 539 -67 l 356 -67 b 290 -125 311 -67 296 -83 l 265 -319 b 306 -361 263 -350 274 -361 l 399 -361 b 465 -315 438 -361 454 -347 z "},"ų":{"ha":961,"x_min":0,"x_max":0,"o":"m 840 986 l 683 986 b 625 928 639 986 625 971 l 625 350 b 481 222 625 268 576 222 b 338 350 385 222 338 268 l 338 928 b 278 986 338 971 322 986 l 121 986 b 63 928 76 986 63 971 l 63 363 b 481 -21 63 129 207 -21 b 540 -18 501 -21 521 -21 b 451 -253 476 -90 436 -181 b 590 -342 464 -321 524 -342 b 746 -293 646 -342 706 -324 b 753 -251 758 -283 761 -272 l 725 -186 b 692 -178 718 -172 707 -168 b 667 -186 682 -183 674 -186 b 640 -161 653 -186 643 -176 b 781 72 636 -131 672 -35 b 900 363 858 139 900 239 l 900 928 b 840 986 900 971 885 986 z "},"ů":{"ha":961,"x_min":0,"x_max":0,"o":"m 301 1188 b 483 1026 301 1086 378 1026 b 660 1188 586 1026 660 1088 b 483 1350 660 1288 588 1350 b 301 1188 378 1350 301 1290 z m 531 1188 b 483 1140 531 1158 511 1140 b 431 1188 450 1140 431 1160 b 483 1238 431 1218 450 1238 b 531 1188 511 1238 531 1218 z m 338 350 l 338 928 b 278 986 338 971 322 986 l 121 986 b 63 928 76 986 63 971 l 63 363 b 481 -21 63 129 207 -21 b 900 363 756 -21 900 129 l 900 928 b 840 986 900 971 885 986 l 683 986 b 625 928 639 986 625 971 l 625 350 b 481 222 625 268 576 222 b 338 350 385 222 338 268 z "},"ũ":{"ha":961,"x_min":0,"x_max":0,"o":"m 685 1263 l 600 1263 b 574 1236 581 1263 574 1256 b 553 1206 574 1214 567 1206 b 365 1263 508 1206 471 1263 b 232 1092 285 1263 232 1224 b 264 1060 232 1071 240 1060 l 349 1060 b 376 1088 368 1060 376 1068 b 396 1118 376 1108 383 1118 b 581 1060 442 1118 478 1060 b 717 1231 669 1060 717 1101 b 685 1263 717 1253 710 1263 z m 338 350 l 338 928 b 278 986 338 971 322 986 l 121 986 b 63 928 76 986 63 971 l 63 363 b 481 -21 63 129 207 -21 b 900 363 756 -21 900 129 l 900 928 b 840 986 900 971 885 986 l 683 986 b 625 928 639 986 625 971 l 625 350 b 481 222 625 268 576 222 b 338 350 385 222 338 268 z "},"v":{"ha":947,"x_min":0,"x_max":0,"o":"m 903 986 l 746 986 b 646 928 678 986 657 971 l 514 451 b 485 274 490 369 485 274 l 472 274 b 442 453 472 274 464 371 l 310 928 b 206 986 299 971 276 986 l 47 986 b 7 929 6 986 -7 967 l 315 46 b 388 0 328 10 347 0 l 561 0 b 633 49 601 0 619 8 l 940 929 b 903 986 954 967 944 986 z "},"w":{"ha":1304,"x_min":0,"x_max":0,"o":"m 1249 986 l 1094 986 b 1015 935 1044 986 1024 978 l 957 571 b 936 325 946 494 938 364 l 925 325 b 899 571 924 367 915 492 l 814 935 b 736 986 804 978 779 986 l 586 986 b 508 935 542 986 518 979 l 422 571 b 396 325 406 496 396 367 l 386 325 b 367 571 386 364 379 499 l 306 935 b 228 986 297 978 276 986 l 57 986 b 19 929 14 986 10 968 l 239 46 b 311 0 247 8 271 0 l 471 0 b 543 49 510 0 532 8 l 617 369 b 647 619 636 460 644 540 l 658 619 b 685 369 660 540 667 457 l 760 46 b 832 0 768 10 792 0 l 994 0 b 1065 49 1033 0 1056 8 l 1286 929 b 1249 986 1296 968 1292 986 z "},"ẃ":{"ha":1304,"x_min":0,"x_max":0,"o":"m 675 1269 l 479 1157 b 475 1104 456 1143 454 1131 l 514 1058 b 578 1051 528 1039 544 1042 l 829 1129 b 838 1185 864 1142 863 1157 l 767 1265 b 675 1269 739 1296 707 1288 z m 1249 986 l 1094 986 b 1015 935 1044 986 1024 978 l 957 571 b 936 325 946 494 938 364 l 925 325 b 899 571 924 367 915 492 l 814 935 b 736 986 804 978 779 986 l 586 986 b 508 935 542 986 518 979 l 422 571 b 396 325 406 496 396 367 l 386 325 b 367 571 386 364 379 499 l 306 935 b 228 986 297 978 276 986 l 57 986 b 19 929 14 986 10 968 l 239 46 b 311 0 247 8 271 0 l 471 0 b 543 49 510 0 532 8 l 617 369 b 647 619 636 460 644 540 l 658 619 b 685 369 660 540 667 457 l 760 46 b 832 0 768 10 792 0 l 994 0 b 1065 49 1033 0 1056 8 l 1286 929 b 1249 986 1296 968 1292 986 z "},"ŵ":{"ha":1304,"x_min":0,"x_max":0,"o":"m 689 1278 l 644 1278 b 539 1236 586 1278 575 1274 l 397 1094 b 418 1047 375 1072 372 1047 l 526 1047 b 618 1078 579 1047 594 1050 l 661 1126 l 701 1076 b 793 1047 721 1050 738 1047 l 910 1047 b 931 1094 954 1047 953 1072 l 789 1236 b 689 1278 750 1274 739 1278 z m 1249 986 l 1094 986 b 1015 935 1044 986 1024 978 l 957 571 b 936 325 946 494 938 364 l 925 325 b 899 571 924 367 915 492 l 814 935 b 736 986 804 978 779 986 l 586 986 b 508 935 542 986 518 979 l 422 571 b 396 325 406 496 396 367 l 386 325 b 367 571 386 364 379 499 l 306 935 b 228 986 297 978 276 986 l 57 986 b 19 929 14 986 10 968 l 239 46 b 311 0 247 8 271 0 l 471 0 b 543 49 510 0 532 8 l 617 369 b 647 619 636 460 644 540 l 658 619 b 685 369 660 540 667 457 l 760 46 b 832 0 768 10 792 0 l 994 0 b 1065 49 1033 0 1056 8 l 1286 929 b 1249 986 1296 968 1292 986 z "},"ẅ":{"ha":1304,"x_min":0,"x_max":0,"o":"m 517 1269 l 506 1269 b 406 1171 429 1269 406 1246 l 406 1153 b 506 1054 406 1079 429 1054 l 517 1054 b 618 1153 593 1054 618 1079 l 618 1171 b 517 1269 618 1246 593 1269 z m 815 1269 l 806 1269 b 703 1171 728 1269 703 1246 l 703 1153 b 806 1054 703 1079 728 1054 l 815 1054 b 915 1153 892 1054 915 1079 l 915 1171 b 815 1269 915 1246 892 1269 z m 1249 986 l 1094 986 b 1015 935 1044 986 1024 978 l 957 571 b 936 325 946 494 938 364 l 925 325 b 899 571 924 367 915 492 l 814 935 b 736 986 804 978 779 986 l 586 986 b 508 935 542 986 518 979 l 422 571 b 396 325 406 496 396 367 l 386 325 b 367 571 386 364 379 499 l 306 935 b 228 986 297 978 276 986 l 57 986 b 19 929 14 986 10 968 l 239 46 b 311 0 247 8 271 0 l 471 0 b 543 49 510 0 532 8 l 617 369 b 647 619 636 460 644 540 l 658 619 b 685 369 660 540 667 457 l 760 46 b 832 0 768 10 792 0 l 994 0 b 1065 49 1033 0 1056 8 l 1286 929 b 1249 986 1296 968 1292 986 z "},"ẁ":{"ha":1304,"x_min":0,"x_max":0,"o":"m 560 1269 l 489 1186 b 496 1131 465 1157 463 1142 l 749 1053 b 813 1058 782 1042 797 1040 l 850 1106 b 847 1158 872 1131 872 1144 l 651 1274 b 560 1269 619 1292 586 1300 z m 1249 986 l 1094 986 b 1015 935 1044 986 1024 978 l 957 571 b 936 325 946 494 938 364 l 925 325 b 899 571 924 367 915 492 l 814 935 b 736 986 804 978 779 986 l 586 986 b 508 935 542 986 518 979 l 422 571 b 396 325 406 496 396 367 l 386 325 b 367 571 386 364 379 499 l 306 935 b 228 986 297 978 276 986 l 57 986 b 19 929 14 986 10 968 l 239 46 b 311 0 247 8 271 0 l 471 0 b 543 49 510 0 532 8 l 617 369 b 647 619 636 460 644 540 l 658 619 b 685 369 660 540 667 457 l 760 46 b 832 0 768 10 792 0 l 994 0 b 1065 49 1033 0 1056 8 l 1286 929 b 1249 986 1296 968 1292 986 z "},"x":{"ha":922,"x_min":0,"x_max":0,"o":"m 910 58 l 621 503 l 896 931 b 868 986 915 961 907 986 l 690 986 b 583 938 626 986 610 983 l 460 724 l 335 938 b 219 986 308 981 292 986 l 54 986 b 25 931 14 986 6 961 l 297 503 l 13 58 b 42 0 -10 25 0 0 l 213 0 b 328 51 288 0 301 8 l 456 279 l 588 51 b 701 0 614 4 631 0 l 881 0 b 910 58 924 0 932 28 z "},"y":{"ha":938,"x_min":0,"x_max":0,"o":"m 897 986 l 738 986 b 624 935 669 986 650 983 l 471 651 l 322 935 b 207 986 296 983 276 986 l 40 986 b 11 928 -3 986 -8 960 l 331 382 l 331 58 b 390 0 331 15 346 0 l 547 0 b 606 58 592 0 606 15 l 606 382 l 926 928 b 897 986 944 960 939 986 z "},"ý":{"ha":938,"x_min":0,"x_max":0,"o":"m 488 1269 l 292 1157 b 288 1104 267 1143 267 1131 l 326 1058 b 390 1051 340 1039 357 1042 l 642 1129 b 650 1185 675 1142 674 1157 l 579 1265 b 488 1269 551 1296 519 1288 z m 897 986 l 738 986 b 624 935 669 986 650 983 l 471 651 l 322 935 b 207 986 296 983 276 986 l 40 986 b 11 928 -3 986 -8 960 l 331 382 l 331 58 b 390 0 331 15 346 0 l 547 0 b 606 58 592 0 606 15 l 606 382 l 926 928 b 897 986 944 960 939 986 z "},"ŷ":{"ha":938,"x_min":0,"x_max":0,"o":"m 501 1278 l 457 1278 b 350 1236 399 1278 388 1274 l 208 1094 b 231 1047 188 1072 185 1047 l 339 1047 b 429 1078 392 1047 407 1050 l 474 1126 l 513 1076 b 606 1047 533 1050 550 1047 l 722 1047 b 743 1094 767 1047 765 1072 l 600 1236 b 501 1278 563 1274 551 1278 z m 897 986 l 738 986 b 624 935 669 986 650 983 l 471 651 l 322 935 b 207 986 296 983 276 986 l 40 986 b 11 928 -3 986 -8 960 l 331 382 l 331 58 b 390 0 331 15 346 0 l 547 0 b 606 58 592 0 606 15 l 606 382 l 926 928 b 897 986 944 960 939 986 z "},"ÿ":{"ha":938,"x_min":0,"x_max":0,"o":"m 329 1269 l 318 1269 b 218 1171 240 1269 218 1246 l 218 1153 b 318 1054 218 1079 240 1054 l 329 1054 b 431 1153 406 1054 431 1079 l 431 1171 b 329 1269 431 1246 406 1269 z m 628 1269 l 618 1269 b 515 1171 540 1269 515 1246 l 515 1153 b 618 1054 515 1079 540 1054 l 628 1054 b 728 1153 704 1054 728 1079 l 728 1171 b 628 1269 728 1246 704 1269 z m 897 986 l 738 986 b 624 935 669 986 650 983 l 471 651 l 322 935 b 207 986 296 983 276 986 l 40 986 b 11 928 -3 986 -8 960 l 331 382 l 331 58 b 390 0 331 15 346 0 l 547 0 b 606 58 592 0 606 15 l 606 382 l 926 928 b 897 986 944 960 939 986 z "},"ỳ":{"ha":938,"x_min":0,"x_max":0,"o":"m 372 1269 l 301 1186 b 308 1131 278 1157 275 1142 l 561 1053 b 625 1058 593 1042 610 1040 l 663 1106 b 660 1158 685 1131 685 1144 l 464 1274 b 372 1269 432 1292 399 1300 z m 897 986 l 738 986 b 624 935 669 986 650 983 l 471 651 l 322 935 b 207 986 296 983 276 986 l 40 986 b 11 928 -3 986 -8 960 l 331 382 l 331 58 b 390 0 331 15 346 0 l 547 0 b 606 58 592 0 606 15 l 606 382 l 926 928 b 897 986 944 960 939 986 z "},"z":{"ha":849,"x_min":0,"x_max":0,"o":"m 746 986 l 101 986 b 43 928 58 986 43 971 l 43 803 b 101 743 43 758 58 743 l 440 743 l 56 201 b 36 143 43 185 36 167 l 36 58 b 94 0 36 15 51 0 l 753 0 b 811 58 797 0 811 15 l 811 185 b 753 243 811 229 797 243 l 401 243 l 786 783 b 804 844 799 801 804 818 l 804 928 b 746 986 804 971 790 986 z "},"ź":{"ha":849,"x_min":0,"x_max":0,"o":"m 446 1269 l 250 1157 b 247 1104 226 1143 225 1131 l 285 1058 b 349 1051 300 1039 315 1042 l 601 1129 b 608 1185 635 1142 633 1157 l 538 1265 b 446 1269 510 1296 478 1288 z m 746 986 l 101 986 b 43 928 58 986 43 971 l 43 803 b 101 743 43 758 58 743 l 440 743 l 56 201 b 36 143 43 185 36 167 l 36 58 b 94 0 36 15 51 0 l 753 0 b 811 58 797 0 811 15 l 811 185 b 753 243 811 229 797 243 l 401 243 l 786 783 b 804 844 799 801 804 818 l 804 928 b 746 986 804 971 790 986 z "},"ž":{"ha":849,"x_min":0,"x_max":0,"o":"m 676 1278 l 571 1278 b 479 1247 518 1278 501 1274 l 438 1200 l 396 1247 b 304 1278 374 1274 360 1278 l 188 1278 b 171 1229 143 1278 150 1251 l 311 1088 b 413 1047 349 1050 360 1047 l 451 1047 b 554 1088 506 1047 517 1050 l 694 1229 b 676 1278 715 1251 721 1278 z m 746 986 l 101 986 b 43 928 58 986 43 971 l 43 803 b 101 743 43 758 58 743 l 440 743 l 56 201 b 36 143 43 185 36 167 l 36 58 b 94 0 36 15 51 0 l 753 0 b 811 58 797 0 811 15 l 811 185 b 753 243 811 229 797 243 l 401 243 l 786 783 b 804 844 799 801 804 818 l 804 928 b 746 986 804 971 790 986 z "},"ż":{"ha":849,"x_min":0,"x_max":0,"o":"m 436 1271 l 428 1271 b 324 1167 347 1271 324 1247 l 324 1156 b 428 1051 324 1075 347 1051 l 436 1051 b 540 1156 517 1051 540 1075 l 540 1167 b 436 1271 540 1247 517 1271 z m 746 986 l 101 986 b 43 928 58 986 43 971 l 43 803 b 101 743 43 758 58 743 l 440 743 l 56 201 b 36 143 43 185 36 167 l 36 58 b 94 0 36 15 51 0 l 753 0 b 811 58 797 0 811 15 l 811 185 b 753 243 811 229 797 243 l 401 243 l 786 783 b 804 844 799 801 804 818 l 804 928 b 746 986 804 971 790 986 z "},"ﬁ":{"ha":860,"x_min":0,"x_max":0,"o":"m 749 1028 l 453 1028 b 118 726 243 1028 118 935 l 118 722 l 74 722 b 19 669 33 722 19 708 l 19 565 b 74 511 19 525 33 511 l 118 511 l 118 53 b 172 0 118 14 132 0 l 322 0 b 376 53 364 0 376 14 l 376 511 l 543 511 l 543 53 b 597 0 543 14 557 0 l 749 0 b 803 53 789 0 803 14 l 803 669 b 749 722 803 708 789 722 l 376 722 l 376 728 b 471 817 376 786 406 817 l 749 817 b 803 872 789 817 803 831 l 803 974 b 749 1028 803 1014 789 1028 z "},"ﬂ":{"ha":858,"x_min":0,"x_max":0,"o":"m 743 1028 l 453 1028 b 118 728 243 1028 118 933 l 118 722 l 74 722 b 19 669 33 722 19 708 l 19 565 b 74 511 19 525 33 511 l 118 511 l 118 53 b 172 0 118 14 132 0 l 322 0 b 376 53 364 0 376 14 l 376 511 l 432 511 b 485 565 472 511 485 525 l 485 669 b 432 722 485 708 472 722 l 376 722 l 376 728 b 471 817 376 788 407 817 l 539 817 l 539 53 b 592 0 539 14 553 0 l 744 0 b 797 53 785 0 797 14 l 797 974 b 743 1028 797 1014 785 1028 z "},"ª":{"ha":492,"x_min":0,"x_max":0,"o":"m 61 860 b 82 799 40 831 49 814 l 133 772 b 203 785 167 758 179 761 b 240 804 214 794 225 804 b 265 776 258 804 265 797 l 265 754 b 246 756 258 756 253 756 b 43 621 88 756 43 704 b 243 489 43 540 83 489 b 390 510 310 489 358 499 b 442 579 431 525 442 539 l 442 758 b 246 935 442 861 394 935 b 61 860 168 935 100 910 z m 240 651 l 265 651 l 265 610 b 263 607 265 607 264 607 b 240 606 261 607 253 606 b 215 629 222 606 215 610 b 240 651 215 644 222 651 z "},"º":{"ha":489,"x_min":0,"x_max":0,"o":"m 42 754 l 42 669 b 244 489 42 557 113 489 b 447 669 378 489 447 557 l 447 754 b 244 936 447 867 378 936 b 42 754 113 936 42 867 z m 276 757 l 276 668 b 244 642 276 653 265 642 b 213 668 224 642 213 653 l 213 757 b 244 783 213 772 224 783 b 276 757 265 783 276 772 z "},"А":{"ha":956,"x_min":0,"x_max":0,"o":"m 950 57 l 629 940 b 557 986 615 976 597 986 l 399 986 b 326 938 358 986 340 978 l 7 57 b 44 0 -7 19 1 0 l 190 0 b 292 58 260 0 278 15 l 324 158 l 624 158 l 656 58 b 760 0 667 15 688 0 l 910 0 b 950 57 951 0 964 19 z m 510 539 l 561 376 l 388 376 l 439 540 b 465 733 467 633 465 733 l 479 733 b 510 539 479 733 482 633 z "},"Б":{"ha":890,"x_min":0,"x_max":0,"o":"m 742 988 l 129 988 b 69 928 85 988 69 972 l 69 56 b 128 0 69 14 86 0 l 543 0 b 867 318 739 0 867 122 b 543 638 867 517 739 638 l 344 638 l 344 761 l 742 761 b 800 819 785 761 800 775 l 800 928 b 742 988 800 972 785 988 z m 586 319 b 485 226 586 258 550 226 l 344 226 l 344 411 l 485 411 b 586 319 550 411 586 379 z "},"В":{"ha":914,"x_min":0,"x_max":0,"o":"m 536 988 l 129 988 b 69 928 85 988 69 972 l 69 58 b 129 0 69 15 85 0 l 542 0 b 883 275 738 0 883 96 b 743 514 883 396 832 475 l 743 519 b 843 724 814 568 843 631 b 536 988 843 893 728 988 z m 564 686 b 479 611 564 632 535 611 l 344 611 l 344 764 l 479 764 b 564 686 535 764 564 740 z m 594 307 b 506 225 594 249 565 225 l 344 225 l 344 388 l 506 388 b 594 307 565 388 594 363 z "},"Г":{"ha":738,"x_min":0,"x_max":0,"o":"m 663 986 l 129 986 b 69 928 85 986 69 971 l 69 58 b 129 0 69 15 85 0 l 286 0 b 344 58 331 0 344 15 l 344 743 l 663 743 b 722 803 707 743 722 758 l 722 928 b 663 986 722 971 707 986 z "},"Д":{"ha":1096,"x_min":0,"x_max":0,"o":"m 889 986 l 283 986 b 224 928 239 986 224 971 l 224 611 b 113 243 224 390 183 303 l 82 243 b 24 186 39 243 24 229 l 24 -154 b 82 -212 24 -197 39 -212 l 236 -212 b 294 -154 279 -212 294 -197 l 294 0 l 803 0 l 803 -154 b 863 -212 803 -197 818 -212 l 1015 -212 b 1074 -154 1060 -212 1074 -197 l 1074 186 b 1015 243 1074 229 1060 243 l 949 243 l 949 928 b 889 986 949 971 933 986 z m 493 613 l 493 743 l 674 743 l 674 243 l 428 243 b 493 613 468 328 493 443 z "},"Е":{"ha":817,"x_min":0,"x_max":0,"o":"m 711 986 l 129 986 b 69 928 85 986 69 971 l 69 58 b 129 0 69 15 85 0 l 724 0 b 782 58 767 0 782 15 l 782 185 b 724 243 782 229 767 243 l 344 243 l 344 376 l 638 376 b 697 436 682 376 697 392 l 697 561 b 638 619 697 604 682 619 l 344 619 l 344 743 l 711 743 b 771 803 756 743 771 758 l 771 928 b 711 986 771 971 756 986 z "},"Ё":{"ha":817,"x_min":0,"x_max":0,"o":"m 271 1258 l 260 1258 b 160 1160 183 1258 160 1235 l 160 1142 b 260 1042 160 1068 183 1042 l 271 1042 b 372 1142 347 1042 372 1068 l 372 1160 b 271 1258 372 1235 347 1258 z m 569 1258 l 560 1258 b 457 1160 482 1258 457 1235 l 457 1142 b 560 1042 457 1068 482 1042 l 569 1042 b 669 1142 646 1042 669 1068 l 669 1160 b 569 1258 669 1235 646 1258 z m 711 986 l 129 986 b 69 928 85 986 69 971 l 69 58 b 129 0 69 15 85 0 l 724 0 b 782 58 767 0 782 15 l 782 185 b 724 243 782 229 767 243 l 344 243 l 344 376 l 638 376 b 697 436 682 376 697 392 l 697 561 b 638 619 697 604 682 619 l 344 619 l 344 743 l 711 743 b 771 803 756 743 771 758 l 771 928 b 711 986 771 971 756 986 z "},"Ж":{"ha":1358,"x_min":0,"x_max":0,"o":"m 1293 986 l 1133 986 b 1022 935 1061 986 1044 981 l 858 618 b 828 619 847 619 838 619 l 817 619 l 817 928 b 758 986 817 971 801 986 l 600 986 b 542 928 557 986 542 971 l 542 619 l 531 619 b 500 618 521 619 513 619 l 336 935 b 225 986 314 981 297 986 l 65 986 b 32 925 24 986 14 963 l 254 508 b 192 415 231 483 211 454 l 17 68 b 53 0 -3 31 7 0 l 203 0 b 326 58 276 0 304 10 l 440 314 b 531 378 461 360 478 378 l 542 378 l 542 58 b 600 0 542 15 557 0 l 758 0 b 817 58 801 0 817 15 l 817 378 l 828 378 b 918 314 882 378 897 360 l 1032 58 b 1156 0 1054 10 1082 0 l 1306 0 b 1342 68 1351 0 1361 31 l 1167 415 b 1104 508 1147 454 1128 483 l 1326 925 b 1293 986 1346 961 1335 986 z "},"З":{"ha":901,"x_min":0,"x_max":0,"o":"m 833 718 b 472 1007 833 910 708 1007 b 33 764 231 1007 90 919 b 69 689 18 724 29 703 l 207 640 b 282 678 249 626 265 635 b 446 768 306 740 356 768 b 554 692 518 768 554 744 b 469 615 554 636 526 615 l 360 615 b 300 556 315 615 300 600 l 300 440 b 360 382 300 397 315 382 l 492 382 b 578 300 551 382 578 358 b 451 218 578 244 547 218 b 278 308 357 218 301 249 b 203 346 263 351 244 361 l 67 297 b 29 222 25 283 15 263 b 474 -21 88 67 232 -21 b 867 281 743 -21 867 88 b 725 517 867 381 840 464 b 833 718 799 557 833 619 z "},"И":{"ha":979,"x_min":0,"x_max":0,"o":"m 850 988 l 683 988 b 625 960 651 988 638 979 l 436 636 b 303 347 376 535 358 488 l 293 347 b 344 690 338 494 344 539 l 344 928 b 286 986 344 971 331 986 l 129 986 b 69 928 85 986 69 971 l 69 58 b 129 0 69 15 85 0 l 297 0 b 354 28 328 0 343 7 l 546 354 b 676 640 606 456 625 497 l 688 640 b 635 296 650 489 635 451 l 635 60 b 694 0 635 15 650 0 l 850 0 b 910 58 894 0 910 15 l 910 928 b 850 988 910 972 894 988 z "},"Й":{"ha":979,"x_min":0,"x_max":0,"o":"m 776 1193 b 749 1244 788 1221 779 1233 l 638 1282 b 582 1263 606 1292 599 1288 b 496 1215 561 1231 536 1215 b 410 1263 456 1215 429 1231 b 350 1281 394 1288 383 1292 l 246 1244 b 218 1193 215 1232 207 1221 b 496 1038 260 1092 358 1038 b 776 1193 636 1038 735 1092 z m 850 988 l 683 988 b 625 960 651 988 638 979 l 436 636 b 303 347 376 535 358 488 l 293 347 b 344 690 338 494 344 539 l 344 928 b 286 986 344 971 331 986 l 129 986 b 69 928 85 986 69 971 l 69 58 b 129 0 69 15 85 0 l 297 0 b 354 28 328 0 343 7 l 546 354 b 676 640 606 456 625 497 l 688 640 b 635 296 650 489 635 451 l 635 60 b 694 0 635 15 650 0 l 850 0 b 910 58 894 0 910 15 l 910 928 b 850 988 910 972 894 988 z "},"К":{"ha":910,"x_min":0,"x_max":0,"o":"m 894 68 l 711 415 b 626 522 688 463 661 497 l 879 925 b 846 986 901 961 888 986 l 686 986 b 575 935 614 986 601 978 l 375 619 l 344 619 l 344 928 b 286 986 344 971 331 986 l 129 986 b 69 928 85 986 69 971 l 69 58 b 129 0 69 15 85 0 l 286 0 b 344 58 331 0 344 15 l 344 376 l 369 376 b 464 307 422 376 442 351 l 585 58 b 708 0 608 10 635 0 l 858 0 b 894 68 904 0 914 31 z "},"Л":{"ha":969,"x_min":0,"x_max":0,"o":"m 840 986 l 247 986 b 188 928 203 986 188 971 l 188 611 b 38 240 188 350 121 289 b 10 160 -1 218 -11 199 l 89 18 b 168 -10 110 -21 129 -31 b 458 613 333 72 458 208 l 458 743 l 625 743 l 625 58 b 683 0 625 15 639 0 l 840 0 b 900 58 885 0 900 15 l 900 928 b 840 986 900 971 885 986 z "},"М":{"ha":1146,"x_min":0,"x_max":0,"o":"m 1017 988 l 878 988 b 800 943 832 988 819 981 l 571 494 l 342 944 b 260 988 322 979 308 988 l 129 988 b 69 929 85 988 69 974 l 69 57 b 129 0 69 14 85 0 l 271 0 b 331 57 315 0 331 14 l 331 254 b 274 619 331 350 324 419 l 288 619 b 374 390 301 571 344 443 l 456 233 b 522 193 471 203 485 193 l 615 193 b 682 233 653 193 667 206 l 760 390 b 853 619 789 447 839 574 l 868 619 b 807 256 815 435 807 347 l 807 57 b 865 0 807 14 821 0 l 1017 0 b 1076 57 1061 0 1076 14 l 1076 929 b 1017 988 1076 974 1061 988 z "},"Н":{"ha":958,"x_min":0,"x_max":0,"o":"m 831 988 l 672 988 b 614 928 629 988 614 972 l 614 621 l 344 621 l 344 928 b 286 988 344 972 331 988 l 129 988 b 69 928 85 988 69 972 l 69 58 b 129 0 69 15 85 0 l 286 0 b 344 58 331 0 344 15 l 344 378 l 614 378 l 614 58 b 672 0 614 15 629 0 l 831 0 b 889 58 874 0 889 15 l 889 928 b 831 988 889 972 874 988 z "},"О":{"ha":947,"x_min":0,"x_max":0,"o":"m 46 618 l 46 368 b 474 -21 46 128 199 -21 b 900 368 747 -21 900 128 l 900 618 b 474 1007 900 858 747 1007 b 46 618 199 1007 46 858 z m 625 631 l 625 356 b 474 222 625 268 569 222 b 321 356 376 222 321 268 l 321 631 b 474 764 321 718 376 764 b 625 631 569 764 625 718 z "},"П":{"ha":951,"x_min":0,"x_max":0,"o":"m 824 986 l 129 986 b 69 928 85 986 69 971 l 69 58 b 129 0 69 15 85 0 l 286 0 b 344 58 331 0 344 15 l 344 743 l 607 743 l 607 58 b 665 0 607 15 622 0 l 824 0 b 882 58 867 0 882 15 l 882 928 b 824 986 882 971 867 986 z "},"Р":{"ha":899,"x_min":0,"x_max":0,"o":"m 513 986 l 129 986 b 69 928 85 986 69 971 l 69 58 b 129 0 69 15 85 0 l 286 0 b 344 58 331 0 344 15 l 344 296 l 515 296 b 871 639 731 296 871 419 b 513 986 871 860 729 986 z m 482 539 l 344 539 l 344 743 l 482 743 b 586 640 547 743 586 701 b 482 539 586 579 547 539 z "},"С":{"ha":904,"x_min":0,"x_max":0,"o":"m 46 618 l 46 368 b 474 -21 46 128 200 -21 b 879 222 688 -21 821 67 b 842 297 893 263 883 283 l 693 350 b 618 313 651 365 635 356 b 474 222 596 253 551 222 b 321 367 364 222 321 269 l 321 619 b 474 764 321 717 364 764 b 618 674 551 764 593 736 b 693 636 633 631 650 624 l 842 689 b 879 764 883 703 893 724 b 474 1007 821 919 688 1007 b 46 618 200 1007 46 858 z "},"Т":{"ha":838,"x_min":0,"x_max":0,"o":"m 763 986 l 75 986 b 17 928 31 986 17 971 l 17 803 b 75 743 17 758 31 743 l 282 743 l 282 58 b 340 0 282 15 296 0 l 497 0 b 557 58 542 0 557 15 l 557 743 l 763 743 b 822 803 807 743 822 758 l 822 928 b 763 986 822 971 807 986 z "},"У":{"ha":872,"x_min":0,"x_max":0,"o":"m 832 986 l 667 986 b 569 935 604 986 588 982 l 442 626 l 307 935 b 200 986 288 983 265 986 l 36 986 b 3 928 -7 986 -15 967 l 297 292 l 193 58 b 222 0 176 22 182 0 l 399 0 b 494 51 460 0 476 8 l 861 928 b 832 986 878 967 872 986 z "},"Ф":{"ha":1197,"x_min":0,"x_max":0,"o":"m 676 1021 l 521 1021 b 461 963 476 1021 461 1006 l 461 903 l 419 903 b 22 533 160 903 22 767 l 22 458 b 419 90 22 226 160 90 l 461 90 l 461 31 b 521 -29 461 -14 476 -29 l 676 -29 b 736 31 721 -29 736 -14 l 736 90 l 778 90 b 1175 458 1036 90 1175 226 l 1175 533 b 778 903 1175 767 1036 903 l 736 903 l 736 963 b 676 1021 736 1006 721 1021 z m 432 667 l 461 667 l 461 326 l 432 326 b 303 449 346 326 303 367 l 303 544 b 432 667 303 626 346 667 z m 894 544 l 894 449 b 765 326 894 367 850 326 l 736 326 l 736 667 l 765 667 b 894 544 850 667 894 626 z "},"Х":{"ha":922,"x_min":0,"x_max":0,"o":"m 910 58 l 621 503 l 896 931 b 868 986 915 961 907 986 l 690 986 b 583 938 626 986 610 983 l 460 724 l 335 938 b 219 986 308 981 292 986 l 54 986 b 25 931 14 986 6 961 l 297 503 l 13 58 b 42 0 -10 25 0 0 l 213 0 b 328 51 288 0 301 8 l 456 279 l 588 51 b 701 0 614 4 631 0 l 881 0 b 910 58 924 0 932 28 z "},"Ч":{"ha":914,"x_min":0,"x_max":0,"o":"m 785 986 l 628 986 b 568 928 583 986 568 971 l 568 588 b 468 578 550 583 515 578 b 314 706 365 578 314 619 l 314 928 b 254 986 314 971 299 986 l 97 986 b 39 928 53 986 39 971 l 39 706 b 426 319 39 454 151 319 b 568 329 492 319 540 325 l 568 58 b 628 0 568 15 583 0 l 785 0 b 843 58 829 0 843 15 l 843 928 b 785 986 843 971 829 986 z "},"Ц":{"ha":1017,"x_min":0,"x_max":0,"o":"m 935 243 l 878 243 l 878 928 b 819 986 878 971 864 986 l 663 986 b 603 928 618 986 603 971 l 603 243 l 344 243 l 344 928 b 286 986 344 971 331 986 l 129 986 b 69 928 85 986 69 971 l 69 58 b 129 0 69 15 85 0 l 733 0 l 733 -154 b 792 -214 733 -199 747 -214 l 935 -214 b 994 -154 979 -214 994 -199 l 994 186 b 935 243 994 229 979 243 z "},"Ш":{"ha":1319,"x_min":0,"x_max":0,"o":"m 1192 986 l 1033 986 b 975 928 990 986 975 971 l 975 243 l 797 243 l 797 928 b 739 986 797 971 783 986 l 582 986 b 522 928 538 986 522 971 l 522 243 l 344 243 l 344 928 b 286 986 344 971 331 986 l 129 986 b 69 928 85 986 69 971 l 69 58 b 129 0 69 15 85 0 l 1192 0 b 1250 58 1235 0 1250 15 l 1250 928 b 1192 986 1250 971 1235 986 z "},"Щ":{"ha":1389,"x_min":0,"x_max":0,"o":"m 1307 243 l 1250 243 l 1250 928 b 1192 986 1250 971 1235 986 l 1033 986 b 975 928 990 986 975 971 l 975 243 l 797 243 l 797 928 b 739 986 797 971 783 986 l 582 986 b 522 928 538 986 522 971 l 522 243 l 344 243 l 344 928 b 286 986 344 971 331 986 l 129 986 b 69 928 85 986 69 971 l 69 58 b 129 0 69 15 85 0 l 1104 0 l 1104 -156 b 1164 -214 1104 -200 1119 -214 l 1307 -214 b 1365 -156 1351 -214 1365 -200 l 1365 186 b 1307 243 1365 229 1351 243 z "},"Я":{"ha":917,"x_min":0,"x_max":0,"o":"m 47 651 b 189 369 47 519 99 422 b 150 306 175 350 163 329 l 36 68 b 72 0 17 26 26 0 l 224 0 b 346 58 297 0 325 8 l 428 257 b 535 328 449 310 471 328 l 572 328 l 572 58 b 631 0 572 15 588 0 l 789 0 b 847 58 832 0 847 15 l 847 928 b 789 986 847 971 832 986 l 392 986 b 47 651 182 986 47 867 z m 424 743 l 572 743 l 572 564 l 424 564 b 332 653 364 564 332 596 b 424 743 332 708 364 743 z "},"Ь":{"ha":899,"x_min":0,"x_max":0,"o":"m 129 0 l 513 0 b 871 347 729 0 871 126 b 515 690 871 567 731 690 l 344 690 l 344 928 b 286 986 344 971 331 986 l 129 986 b 69 928 85 986 69 971 l 69 58 b 129 0 69 15 85 0 z m 482 243 l 344 243 l 344 447 l 482 447 b 586 346 547 447 586 407 b 482 243 586 285 547 243 z "},"Ъ":{"ha":1085,"x_min":0,"x_max":0,"o":"m 701 690 l 532 690 l 532 928 b 472 986 532 971 517 986 l 75 986 b 17 928 32 986 17 971 l 17 801 b 75 743 17 757 32 743 l 257 743 l 257 58 b 315 0 257 15 271 0 l 700 0 b 1057 347 915 0 1057 126 b 701 690 1057 567 918 690 z m 668 243 l 532 243 l 532 447 l 668 447 b 772 346 733 447 772 407 b 668 243 772 285 735 243 z "},"Ы":{"ha":1304,"x_min":0,"x_max":0,"o":"m 129 0 l 513 0 b 871 347 729 0 871 126 b 515 690 871 567 731 690 l 344 690 l 344 928 b 286 986 344 971 331 986 l 129 986 b 69 928 85 986 69 971 l 69 58 b 129 0 69 15 85 0 z m 958 931 l 958 56 b 1014 0 958 14 972 0 l 1178 0 b 1233 56 1219 0 1233 14 l 1233 931 b 1178 986 1233 972 1219 986 l 1014 986 b 958 931 972 986 958 972 z m 482 243 l 344 243 l 344 447 l 482 447 b 586 346 547 447 586 407 b 482 243 586 285 547 243 z "},"Э":{"ha":910,"x_min":0,"x_max":0,"o":"m 31 764 b 68 689 17 724 26 703 l 204 640 b 279 678 247 626 264 635 b 436 768 304 740 358 768 b 589 640 533 768 589 725 l 589 617 l 357 617 b 299 557 313 617 299 601 l 299 440 b 357 381 299 396 313 381 l 589 381 l 589 351 b 436 218 589 264 536 218 b 279 308 358 218 303 249 b 204 346 264 351 246 361 l 68 297 b 31 222 26 283 17 263 b 436 -21 89 67 222 -21 b 864 368 710 -21 864 128 l 864 618 b 436 1007 864 858 710 1007 b 31 764 222 1007 89 919 z "},"Ю":{"ha":1346,"x_min":0,"x_max":0,"o":"m 469 649 l 469 621 l 344 621 l 344 928 b 286 986 344 971 331 986 l 129 986 b 69 928 85 986 69 971 l 69 58 b 129 0 69 15 85 0 l 286 0 b 344 58 331 0 344 15 l 344 378 l 468 378 l 468 347 b 882 -21 468 121 624 -21 b 1299 368 1151 -21 1299 128 l 1299 618 b 882 1007 1299 858 1151 1007 b 469 649 625 1007 469 872 z m 1024 632 l 1024 354 b 882 222 1024 268 974 222 b 743 354 793 222 743 268 l 743 632 b 882 764 743 718 793 764 b 1024 632 974 764 1024 718 z "},"а":{"ha":956,"x_min":0,"x_max":0,"o":"m 950 57 l 629 940 b 557 986 615 976 597 986 l 399 986 b 326 938 358 986 340 978 l 7 57 b 44 0 -7 19 1 0 l 190 0 b 292 58 260 0 278 15 l 324 158 l 624 158 l 656 58 b 760 0 667 15 688 0 l 910 0 b 950 57 951 0 964 19 z m 510 539 l 561 376 l 388 376 l 439 540 b 465 733 467 633 465 733 l 479 733 b 510 539 479 733 482 633 z "},"б":{"ha":890,"x_min":0,"x_max":0,"o":"m 742 988 l 129 988 b 69 928 85 988 69 972 l 69 56 b 128 0 69 14 86 0 l 543 0 b 867 318 739 0 867 122 b 543 638 867 517 739 638 l 344 638 l 344 761 l 742 761 b 800 819 785 761 800 775 l 800 928 b 742 988 800 972 785 988 z m 586 319 b 485 226 586 258 550 226 l 344 226 l 344 411 l 485 411 b 586 319 550 411 586 379 z "},"в":{"ha":914,"x_min":0,"x_max":0,"o":"m 536 988 l 129 988 b 69 928 85 988 69 972 l 69 58 b 129 0 69 15 85 0 l 542 0 b 883 275 738 0 883 96 b 743 514 883 396 832 475 l 743 519 b 843 724 814 568 843 631 b 536 988 843 893 728 988 z m 564 686 b 479 611 564 632 535 611 l 344 611 l 344 764 l 479 764 b 564 686 535 764 564 740 z m 594 307 b 506 225 594 249 565 225 l 344 225 l 344 388 l 506 388 b 594 307 565 388 594 363 z "},"г":{"ha":738,"x_min":0,"x_max":0,"o":"m 663 986 l 129 986 b 69 928 85 986 69 971 l 69 58 b 129 0 69 15 85 0 l 286 0 b 344 58 331 0 344 15 l 344 743 l 663 743 b 722 803 707 743 722 758 l 722 928 b 663 986 722 971 707 986 z "},"д":{"ha":1096,"x_min":0,"x_max":0,"o":"m 889 986 l 283 986 b 224 928 239 986 224 971 l 224 611 b 113 243 224 390 183 303 l 82 243 b 24 186 39 243 24 229 l 24 -154 b 82 -212 24 -197 39 -212 l 236 -212 b 294 -154 279 -212 294 -197 l 294 0 l 803 0 l 803 -154 b 863 -212 803 -197 818 -212 l 1015 -212 b 1074 -154 1060 -212 1074 -197 l 1074 186 b 1015 243 1074 229 1060 243 l 949 243 l 949 928 b 889 986 949 971 933 986 z m 493 613 l 493 743 l 674 743 l 674 243 l 428 243 b 493 613 468 328 493 443 z "},"е":{"ha":817,"x_min":0,"x_max":0,"o":"m 711 986 l 129 986 b 69 928 85 986 69 971 l 69 58 b 129 0 69 15 85 0 l 724 0 b 782 58 767 0 782 15 l 782 185 b 724 243 782 229 767 243 l 344 243 l 344 376 l 638 376 b 697 436 682 376 697 392 l 697 561 b 638 619 697 604 682 619 l 344 619 l 344 743 l 711 743 b 771 803 756 743 771 758 l 771 928 b 711 986 771 971 756 986 z "},"ё":{"ha":817,"x_min":0,"x_max":0,"o":"m 271 1258 l 260 1258 b 160 1160 183 1258 160 1235 l 160 1142 b 260 1042 160 1068 183 1042 l 271 1042 b 372 1142 347 1042 372 1068 l 372 1160 b 271 1258 372 1235 347 1258 z m 569 1258 l 560 1258 b 457 1160 482 1258 457 1235 l 457 1142 b 560 1042 457 1068 482 1042 l 569 1042 b 669 1142 646 1042 669 1068 l 669 1160 b 569 1258 669 1235 646 1258 z m 711 986 l 129 986 b 69 928 85 986 69 971 l 69 58 b 129 0 69 15 85 0 l 724 0 b 782 58 767 0 782 15 l 782 185 b 724 243 782 229 767 243 l 344 243 l 344 376 l 638 376 b 697 436 682 376 697 392 l 697 561 b 638 619 697 604 682 619 l 344 619 l 344 743 l 711 743 b 771 803 756 743 771 758 l 771 928 b 711 986 771 971 756 986 z "},"ж":{"ha":1358,"x_min":0,"x_max":0,"o":"m 1293 986 l 1133 986 b 1022 935 1061 986 1044 981 l 858 618 b 828 619 847 619 838 619 l 817 619 l 817 928 b 758 986 817 971 801 986 l 600 986 b 542 928 557 986 542 971 l 542 619 l 531 619 b 500 618 521 619 513 619 l 336 935 b 225 986 314 981 297 986 l 65 986 b 32 925 24 986 14 963 l 254 508 b 192 415 231 483 211 454 l 17 68 b 53 0 -3 31 7 0 l 203 0 b 326 58 276 0 304 10 l 440 314 b 531 378 461 360 478 378 l 542 378 l 542 58 b 600 0 542 15 557 0 l 758 0 b 817 58 801 0 817 15 l 817 378 l 828 378 b 918 314 882 378 897 360 l 1032 58 b 1156 0 1054 10 1082 0 l 1306 0 b 1342 68 1351 0 1361 31 l 1167 415 b 1104 508 1147 454 1128 483 l 1326 925 b 1293 986 1346 961 1335 986 z "},"з":{"ha":901,"x_min":0,"x_max":0,"o":"m 833 718 b 472 1007 833 910 708 1007 b 33 764 231 1007 90 919 b 69 689 18 724 29 703 l 207 640 b 282 678 249 626 265 635 b 446 768 306 740 356 768 b 554 692 518 768 554 744 b 469 615 554 636 526 615 l 360 615 b 300 556 315 615 300 600 l 300 440 b 360 382 300 397 315 382 l 492 382 b 578 300 551 382 578 358 b 451 218 578 244 547 218 b 278 308 357 218 301 249 b 203 346 263 351 244 361 l 67 297 b 29 222 25 283 15 263 b 474 -21 88 67 232 -21 b 867 281 743 -21 867 88 b 725 517 867 381 840 464 b 833 718 799 557 833 619 z "},"и":{"ha":979,"x_min":0,"x_max":0,"o":"m 850 988 l 683 988 b 625 960 651 988 638 979 l 436 636 b 303 347 376 535 358 488 l 293 347 b 344 690 338 494 344 539 l 344 928 b 286 986 344 971 331 986 l 129 986 b 69 928 85 986 69 971 l 69 58 b 129 0 69 15 85 0 l 297 0 b 354 28 328 0 343 7 l 546 354 b 676 640 606 456 625 497 l 688 640 b 635 296 650 489 635 451 l 635 60 b 694 0 635 15 650 0 l 850 0 b 910 58 894 0 910 15 l 910 928 b 850 988 910 972 894 988 z "},"й":{"ha":979,"x_min":0,"x_max":0,"o":"m 776 1193 b 749 1244 788 1221 779 1233 l 638 1282 b 582 1263 606 1292 599 1288 b 496 1215 561 1231 536 1215 b 410 1263 456 1215 429 1231 b 350 1281 394 1288 383 1292 l 246 1244 b 218 1193 215 1232 207 1221 b 496 1038 260 1092 358 1038 b 776 1193 636 1038 735 1092 z m 850 988 l 683 988 b 625 960 651 988 638 979 l 436 636 b 303 347 376 535 358 488 l 293 347 b 344 690 338 494 344 539 l 344 928 b 286 986 344 971 331 986 l 129 986 b 69 928 85 986 69 971 l 69 58 b 129 0 69 15 85 0 l 297 0 b 354 28 328 0 343 7 l 546 354 b 676 640 606 456 625 497 l 688 640 b 635 296 650 489 635 451 l 635 60 b 694 0 635 15 650 0 l 850 0 b 910 58 894 0 910 15 l 910 928 b 850 988 910 972 894 988 z "},"к":{"ha":910,"x_min":0,"x_max":0,"o":"m 894 68 l 711 415 b 626 522 688 463 661 497 l 879 925 b 846 986 901 961 888 986 l 686 986 b 575 935 614 986 601 978 l 375 619 l 344 619 l 344 928 b 286 986 344 971 331 986 l 129 986 b 69 928 85 986 69 971 l 69 58 b 129 0 69 15 85 0 l 286 0 b 344 58 331 0 344 15 l 344 376 l 369 376 b 464 307 422 376 442 351 l 585 58 b 708 0 608 10 635 0 l 858 0 b 894 68 904 0 914 31 z "},"л":{"ha":969,"x_min":0,"x_max":0,"o":"m 840 986 l 247 986 b 188 928 203 986 188 971 l 188 611 b 38 240 188 350 121 289 b 10 160 -1 218 -11 199 l 89 18 b 168 -10 110 -21 129 -31 b 458 613 333 72 458 208 l 458 743 l 625 743 l 625 58 b 683 0 625 15 639 0 l 840 0 b 900 58 885 0 900 15 l 900 928 b 840 986 900 971 885 986 z "},"м":{"ha":1146,"x_min":0,"x_max":0,"o":"m 1017 988 l 878 988 b 800 943 832 988 819 981 l 571 494 l 342 944 b 260 988 322 979 308 988 l 129 988 b 69 929 85 988 69 974 l 69 57 b 129 0 69 14 85 0 l 271 0 b 331 57 315 0 331 14 l 331 254 b 274 619 331 350 324 419 l 288 619 b 374 390 301 571 344 443 l 456 233 b 522 193 471 203 485 193 l 615 193 b 682 233 653 193 667 206 l 760 390 b 853 619 789 447 839 574 l 868 619 b 807 256 815 435 807 347 l 807 57 b 865 0 807 14 821 0 l 1017 0 b 1076 57 1061 0 1076 14 l 1076 929 b 1017 988 1076 974 1061 988 z "},"н":{"ha":958,"x_min":0,"x_max":0,"o":"m 831 988 l 672 988 b 614 928 629 988 614 972 l 614 621 l 344 621 l 344 928 b 286 988 344 972 331 988 l 129 988 b 69 928 85 988 69 972 l 69 58 b 129 0 69 15 85 0 l 286 0 b 344 58 331 0 344 15 l 344 378 l 614 378 l 614 58 b 672 0 614 15 629 0 l 831 0 b 889 58 874 0 889 15 l 889 928 b 831 988 889 972 874 988 z "},"о":{"ha":947,"x_min":0,"x_max":0,"o":"m 46 618 l 46 368 b 474 -21 46 128 199 -21 b 900 368 747 -21 900 128 l 900 618 b 474 1007 900 858 747 1007 b 46 618 199 1007 46 858 z m 625 631 l 625 356 b 474 222 625 268 569 222 b 321 356 376 222 321 268 l 321 631 b 474 764 321 718 376 764 b 625 631 569 764 625 718 z "},"п":{"ha":951,"x_min":0,"x_max":0,"o":"m 824 986 l 129 986 b 69 928 85 986 69 971 l 69 58 b 129 0 69 15 85 0 l 286 0 b 344 58 331 0 344 15 l 344 743 l 607 743 l 607 58 b 665 0 607 15 622 0 l 824 0 b 882 58 867 0 882 15 l 882 928 b 824 986 882 971 867 986 z "},"р":{"ha":899,"x_min":0,"x_max":0,"o":"m 513 986 l 129 986 b 69 928 85 986 69 971 l 69 58 b 129 0 69 15 85 0 l 286 0 b 344 58 331 0 344 15 l 344 296 l 515 296 b 871 639 731 296 871 419 b 513 986 871 860 729 986 z m 482 539 l 344 539 l 344 743 l 482 743 b 586 640 547 743 586 701 b 482 539 586 579 547 539 z "},"с":{"ha":904,"x_min":0,"x_max":0,"o":"m 46 618 l 46 368 b 474 -21 46 128 200 -21 b 879 222 688 -21 821 67 b 842 297 893 263 883 283 l 693 350 b 618 313 651 365 635 356 b 474 222 596 253 551 222 b 321 367 364 222 321 269 l 321 619 b 474 764 321 717 364 764 b 618 674 551 764 593 736 b 693 636 633 631 650 624 l 842 689 b 879 764 883 703 893 724 b 474 1007 821 919 688 1007 b 46 618 200 1007 46 858 z "},"т":{"ha":838,"x_min":0,"x_max":0,"o":"m 763 986 l 75 986 b 17 928 31 986 17 971 l 17 803 b 75 743 17 758 31 743 l 282 743 l 282 58 b 340 0 282 15 296 0 l 497 0 b 557 58 542 0 557 15 l 557 743 l 763 743 b 822 803 807 743 822 758 l 822 928 b 763 986 822 971 807 986 z "},"у":{"ha":872,"x_min":0,"x_max":0,"o":"m 832 986 l 667 986 b 569 935 604 986 588 982 l 442 626 l 307 935 b 200 986 288 983 265 986 l 36 986 b 3 928 -7 986 -15 967 l 297 292 l 193 58 b 222 0 176 22 182 0 l 399 0 b 494 51 460 0 476 8 l 861 928 b 832 986 878 967 872 986 z "},"ф":{"ha":1197,"x_min":0,"x_max":0,"o":"m 676 1021 l 521 1021 b 461 963 476 1021 461 1006 l 461 903 l 419 903 b 22 533 160 903 22 767 l 22 458 b 419 90 22 226 160 90 l 461 90 l 461 31 b 521 -29 461 -14 476 -29 l 676 -29 b 736 31 721 -29 736 -14 l 736 90 l 778 90 b 1175 458 1036 90 1175 226 l 1175 533 b 778 903 1175 767 1036 903 l 736 903 l 736 963 b 676 1021 736 1006 721 1021 z m 432 667 l 461 667 l 461 326 l 432 326 b 303 449 346 326 303 367 l 303 544 b 432 667 303 626 346 667 z m 894 544 l 894 449 b 765 326 894 367 850 326 l 736 326 l 736 667 l 765 667 b 894 544 850 667 894 626 z "},"х":{"ha":922,"x_min":0,"x_max":0,"o":"m 910 58 l 621 503 l 896 931 b 868 986 915 961 907 986 l 690 986 b 583 938 626 986 610 983 l 460 724 l 335 938 b 219 986 308 981 292 986 l 54 986 b 25 931 14 986 6 961 l 297 503 l 13 58 b 42 0 -10 25 0 0 l 213 0 b 328 51 288 0 301 8 l 456 279 l 588 51 b 701 0 614 4 631 0 l 881 0 b 910 58 924 0 932 28 z "},"ч":{"ha":914,"x_min":0,"x_max":0,"o":"m 785 986 l 628 986 b 568 928 583 986 568 971 l 568 588 b 468 578 550 583 515 578 b 314 706 365 578 314 619 l 314 928 b 254 986 314 971 299 986 l 97 986 b 39 928 53 986 39 971 l 39 706 b 426 319 39 454 151 319 b 568 329 492 319 540 325 l 568 58 b 628 0 568 15 583 0 l 785 0 b 843 58 829 0 843 15 l 843 928 b 785 986 843 971 829 986 z "},"ц":{"ha":1017,"x_min":0,"x_max":0,"o":"m 935 243 l 878 243 l 878 928 b 819 986 878 971 864 986 l 663 986 b 603 928 618 986 603 971 l 603 243 l 344 243 l 344 928 b 286 986 344 971 331 986 l 129 986 b 69 928 85 986 69 971 l 69 58 b 129 0 69 15 85 0 l 733 0 l 733 -154 b 792 -214 733 -199 747 -214 l 935 -214 b 994 -154 979 -214 994 -199 l 994 186 b 935 243 994 229 979 243 z "},"ш":{"ha":1319,"x_min":0,"x_max":0,"o":"m 1192 986 l 1033 986 b 975 928 990 986 975 971 l 975 243 l 797 243 l 797 928 b 739 986 797 971 783 986 l 582 986 b 522 928 538 986 522 971 l 522 243 l 344 243 l 344 928 b 286 986 344 971 331 986 l 129 986 b 69 928 85 986 69 971 l 69 58 b 129 0 69 15 85 0 l 1192 0 b 1250 58 1235 0 1250 15 l 1250 928 b 1192 986 1250 971 1235 986 z "},"щ":{"ha":1389,"x_min":0,"x_max":0,"o":"m 1307 243 l 1250 243 l 1250 928 b 1192 986 1250 971 1235 986 l 1033 986 b 975 928 990 986 975 971 l 975 243 l 797 243 l 797 928 b 739 986 797 971 783 986 l 582 986 b 522 928 538 986 522 971 l 522 243 l 344 243 l 344 928 b 286 986 344 971 331 986 l 129 986 b 69 928 85 986 69 971 l 69 58 b 129 0 69 15 85 0 l 1104 0 l 1104 -156 b 1164 -214 1104 -200 1119 -214 l 1307 -214 b 1365 -156 1351 -214 1365 -200 l 1365 186 b 1307 243 1365 229 1351 243 z "},"я":{"ha":917,"x_min":0,"x_max":0,"o":"m 47 651 b 189 369 47 519 99 422 b 150 306 175 350 163 329 l 36 68 b 72 0 17 26 26 0 l 224 0 b 346 58 297 0 325 8 l 428 257 b 535 328 449 310 471 328 l 572 328 l 572 58 b 631 0 572 15 588 0 l 789 0 b 847 58 832 0 847 15 l 847 928 b 789 986 847 971 832 986 l 392 986 b 47 651 182 986 47 867 z m 424 743 l 572 743 l 572 564 l 424 564 b 332 653 364 564 332 596 b 424 743 332 708 364 743 z "},"ь":{"ha":899,"x_min":0,"x_max":0,"o":"m 129 0 l 513 0 b 871 347 729 0 871 126 b 515 690 871 567 731 690 l 344 690 l 344 928 b 286 986 344 971 331 986 l 129 986 b 69 928 85 986 69 971 l 69 58 b 129 0 69 15 85 0 z m 482 243 l 344 243 l 344 447 l 482 447 b 586 346 547 447 586 407 b 482 243 586 285 547 243 z "},"ъ":{"ha":1085,"x_min":0,"x_max":0,"o":"m 701 690 l 532 690 l 532 928 b 472 986 532 971 517 986 l 75 986 b 17 928 32 986 17 971 l 17 801 b 75 743 17 757 32 743 l 257 743 l 257 58 b 315 0 257 15 271 0 l 700 0 b 1057 347 915 0 1057 126 b 701 690 1057 567 918 690 z m 668 243 l 532 243 l 532 447 l 668 447 b 772 346 733 447 772 407 b 668 243 772 285 735 243 z "},"ы":{"ha":1304,"x_min":0,"x_max":0,"o":"m 129 0 l 513 0 b 871 347 729 0 871 126 b 515 690 871 567 731 690 l 344 690 l 344 928 b 286 986 344 971 331 986 l 129 986 b 69 928 85 986 69 971 l 69 58 b 129 0 69 15 85 0 z m 958 931 l 958 56 b 1014 0 958 14 972 0 l 1178 0 b 1233 56 1219 0 1233 14 l 1233 931 b 1178 986 1233 972 1219 986 l 1014 986 b 958 931 972 986 958 972 z m 482 243 l 344 243 l 344 447 l 482 447 b 586 346 547 447 586 407 b 482 243 586 285 547 243 z "},"э":{"ha":910,"x_min":0,"x_max":0,"o":"m 31 764 b 68 689 17 724 26 703 l 204 640 b 279 678 247 626 264 635 b 436 768 304 740 358 768 b 589 640 533 768 589 725 l 589 617 l 357 617 b 299 557 313 617 299 601 l 299 440 b 357 381 299 396 313 381 l 589 381 l 589 351 b 436 218 589 264 536 218 b 279 308 358 218 303 249 b 204 346 264 351 246 361 l 68 297 b 31 222 26 283 17 263 b 436 -21 89 67 222 -21 b 864 368 710 -21 864 128 l 864 618 b 436 1007 864 858 710 1007 b 31 764 222 1007 89 919 z "},"ю":{"ha":1346,"x_min":0,"x_max":0,"o":"m 469 649 l 469 621 l 344 621 l 344 928 b 286 986 344 971 331 986 l 129 986 b 69 928 85 986 69 971 l 69 58 b 129 0 69 15 85 0 l 286 0 b 344 58 331 0 344 15 l 344 378 l 468 378 l 468 347 b 882 -21 468 121 624 -21 b 1299 368 1151 -21 1299 128 l 1299 618 b 882 1007 1299 858 1151 1007 b 469 649 625 1007 469 872 z m 1024 632 l 1024 354 b 882 222 1024 268 974 222 b 743 354 793 222 743 268 l 743 632 b 882 764 743 718 793 764 b 1024 632 974 764 1024 718 z "},"Δ":{"ha":940,"x_min":0,"x_max":0,"o":"m 521 986 l 419 986 b 347 940 381 986 363 976 l 60 238 b 31 128 39 183 31 169 l 31 58 b 90 0 31 15 46 0 l 851 0 b 910 58 896 0 910 15 l 910 128 b 881 238 910 169 903 183 l 593 940 b 521 986 578 976 561 986 z m 524 508 l 628 218 l 308 218 l 411 508 b 460 719 450 614 458 682 l 474 719 b 524 508 476 682 485 615 z "},"Ω":{"ha":1131,"x_min":0,"x_max":0,"o":"m 63 547 b 211 247 63 375 157 288 l 108 247 b 50 188 64 247 50 232 l 50 58 b 108 0 50 15 64 0 l 482 0 b 535 53 519 0 535 15 l 535 164 b 503 213 535 190 522 203 b 329 506 389 272 329 386 b 564 771 329 656 415 771 b 801 506 719 771 801 656 b 626 214 801 382 731 274 b 594 165 608 203 594 190 l 594 53 b 647 0 594 15 610 0 l 1021 0 b 1081 58 1065 0 1081 15 l 1081 188 b 1021 247 1081 232 1065 247 l 915 247 b 1068 550 981 288 1068 375 b 564 1006 1068 818 858 1006 b 63 547 271 1006 63 817 z "},"μ":{"ha":793,"x_min":0,"x_max":0,"o":"m 678 722 l 525 722 b 472 669 486 722 472 708 l 472 231 b 461 218 472 224 468 219 b 407 213 443 214 431 213 b 324 289 350 213 324 235 l 324 669 b 271 722 324 708 311 722 l 118 722 b 65 669 78 722 65 708 l 65 -253 b 118 -306 65 -292 78 -306 l 271 -306 b 324 -253 311 -306 324 -292 l 324 4 b 465 -21 371 -15 415 -21 b 685 38 539 -21 628 1 b 731 114 718 57 731 79 l 731 669 b 678 722 731 708 718 722 z "},"π":{"ha":943,"x_min":0,"x_max":0,"o":"m 861 722 l 240 722 b 25 682 146 722 94 711 b 0 613 -11 665 -17 649 l 49 504 b 118 481 64 468 82 467 b 176 497 151 494 158 496 l 176 53 b 229 0 176 14 190 0 l 382 0 b 435 53 422 0 435 14 l 435 497 l 574 497 l 574 231 b 613 26 574 154 579 103 b 688 0 631 -12 649 -17 l 824 56 b 854 133 865 72 871 96 b 832 246 833 176 832 196 l 832 497 l 861 497 b 914 551 901 497 914 511 l 914 669 b 861 722 914 710 901 722 z "},"⁄":{"ha":367,"x_min":0,"x_max":0,"o":"m 372 938 l -275 58 b -246 0 -299 26 -287 0 l -119 0 b -4 51 -50 0 -37 7 l 642 931 b 614 986 664 963 656 986 l 481 986 b 372 938 417 986 403 981 z "},"½":{"ha":1208,"x_min":0,"x_max":0,"o":"m 317 986 l 272 986 b 206 971 243 986 226 982 l 61 886 b 39 813 26 867 19 846 l 72 757 b 153 738 93 725 114 717 l 189 758 l 189 493 b 247 438 189 453 201 438 l 322 438 b 381 493 368 438 381 453 l 381 928 b 317 986 381 975 371 986 z m 992 986 l 892 986 b 783 938 828 986 815 981 l 136 58 b 167 0 113 26 124 0 l 260 0 b 374 51 329 0 340 7 l 1019 931 b 992 986 1042 963 1033 986 z m 721 428 b 750 353 704 386 713 367 l 819 328 b 889 361 860 313 871 325 b 938 392 901 385 918 392 b 968 361 958 392 968 378 b 919 304 968 329 954 317 l 846 279 b 714 93 742 243 714 196 l 714 47 b 764 0 714 13 726 0 l 1107 0 b 1154 47 1144 0 1154 13 l 1154 113 b 1106 161 1154 149 1143 161 l 943 161 l 943 163 b 972 176 943 169 956 174 l 1032 194 b 1164 382 1132 224 1164 289 b 949 560 1164 489 1085 560 b 721 428 819 560 754 510 z "},"⅓":{"ha":1217,"x_min":0,"x_max":0,"o":"m 992 986 l 892 986 b 783 938 828 986 814 981 l 136 58 b 165 0 113 26 124 0 l 258 0 b 374 51 328 0 340 7 l 1019 931 b 992 986 1042 963 1033 986 z m 317 981 l 272 981 b 206 964 243 981 226 976 l 61 881 b 39 807 26 861 19 840 l 72 751 b 153 732 93 718 114 710 l 189 753 l 189 488 b 247 432 189 447 201 432 l 322 432 b 381 488 368 432 381 447 l 381 921 b 317 981 381 969 371 981 z m 718 426 b 743 364 706 390 719 374 l 794 342 b 867 369 838 324 853 338 b 939 413 883 403 904 413 b 982 382 968 413 982 403 b 939 353 982 360 965 353 l 913 353 b 869 310 875 353 869 343 l 869 240 b 908 200 869 207 876 200 l 947 200 b 990 168 981 200 990 190 b 943 140 990 150 975 140 b 868 176 911 140 883 144 b 796 206 851 213 838 221 l 735 185 b 711 121 704 174 701 153 b 951 -11 742 26 824 -11 b 1179 149 1103 -11 1179 46 b 1108 285 1179 201 1160 253 b 1163 397 1151 315 1163 346 b 951 560 1163 500 1085 560 b 718 426 821 560 750 514 z "},"⅔":{"ha":1296,"x_min":0,"x_max":0,"o":"m 49 875 b 78 799 32 832 40 813 l 147 774 b 217 807 188 758 199 771 b 265 839 229 831 246 839 b 296 807 286 839 296 825 b 247 750 296 775 282 763 l 174 725 b 42 539 69 689 42 642 l 42 493 b 92 446 42 458 54 446 l 435 446 b 482 493 472 446 482 460 l 482 558 b 433 607 482 594 471 607 l 271 607 l 271 610 b 300 624 271 615 283 619 l 360 640 b 492 828 460 669 492 735 b 276 1006 492 936 413 1006 b 49 875 147 1006 82 956 z m 1079 986 l 979 986 b 871 938 915 986 903 981 l 224 58 b 254 0 200 26 211 0 l 347 0 b 461 51 417 0 428 7 l 1107 931 b 1079 986 1129 963 1121 986 z m 803 426 b 828 364 789 390 803 374 l 879 342 b 951 369 922 324 936 338 b 1024 413 968 403 989 413 b 1065 382 1053 413 1065 403 b 1024 353 1065 360 1050 353 l 996 353 b 954 310 960 353 954 343 l 954 240 b 992 200 954 207 961 200 l 1032 200 b 1074 168 1064 200 1074 190 b 1026 140 1074 150 1060 140 b 953 176 994 140 968 144 b 881 206 936 213 922 221 l 819 185 b 796 121 788 174 785 153 b 1035 -11 826 26 908 -11 b 1263 149 1188 -11 1263 46 b 1192 285 1263 201 1244 253 b 1246 397 1235 315 1246 346 b 1035 560 1246 500 1169 560 b 803 426 906 560 833 514 z "},"¼":{"ha":1193,"x_min":0,"x_max":0,"o":"m 1011 986 l 911 986 b 803 938 847 986 833 981 l 156 58 b 185 0 131 26 143 0 l 278 0 b 393 51 347 0 360 7 l 1039 931 b 1011 986 1061 963 1053 986 z m 317 982 l 272 982 b 206 965 243 982 226 978 l 61 882 b 39 808 26 863 19 842 l 72 753 b 153 733 93 719 114 711 l 189 754 l 189 489 b 247 433 189 449 201 433 l 322 433 b 381 489 368 433 381 449 l 381 924 b 317 982 381 971 371 982 z m 1038 549 l 967 549 b 886 514 922 549 911 543 l 664 247 b 646 186 647 226 646 218 l 646 144 b 694 96 646 110 656 96 l 917 96 l 917 47 b 960 0 917 13 925 0 l 1050 0 b 1094 47 1082 0 1094 13 l 1094 96 l 1108 96 b 1156 139 1149 96 1156 106 l 1156 203 b 1108 244 1156 233 1149 244 l 1094 244 l 1094 493 b 1038 549 1094 536 1082 549 z m 917 336 l 917 244 l 840 244 z "},"¾":{"ha":1219,"x_min":0,"x_max":0,"o":"m 46 874 b 71 811 33 836 47 821 l 122 788 b 194 817 165 769 181 783 b 267 858 211 850 232 858 b 310 829 296 858 310 849 b 267 799 310 806 293 799 l 240 799 b 197 756 203 799 197 790 l 197 686 b 236 646 197 653 204 646 l 275 646 b 318 614 308 646 318 636 b 271 588 318 596 303 588 b 196 624 239 588 211 592 b 124 653 179 658 165 668 l 63 631 b 39 567 32 619 29 600 b 279 436 69 472 151 436 b 507 594 431 436 507 492 b 436 732 507 649 488 699 b 490 844 479 763 490 793 b 279 1007 490 946 413 1007 b 46 874 149 1007 78 961 z m 1057 986 l 957 986 b 849 938 893 986 879 981 l 201 58 b 231 0 178 26 189 0 l 324 0 b 439 51 393 0 406 7 l 1085 931 b 1057 986 1107 963 1099 986 z m 1068 549 l 997 549 b 917 514 953 549 942 543 l 694 247 b 675 186 678 226 675 218 l 675 144 b 725 96 675 110 686 96 l 946 96 l 946 47 b 989 0 946 13 956 0 l 1079 0 b 1124 47 1113 0 1124 13 l 1124 96 l 1139 96 b 1185 139 1179 96 1185 106 l 1185 203 b 1139 244 1185 233 1179 244 l 1124 244 l 1124 493 b 1068 549 1124 536 1113 549 z m 871 244 l 946 336 l 946 244 z "},"⅛":{"ha":1240,"x_min":0,"x_max":0,"o":"m 317 986 l 272 986 b 206 971 243 986 226 982 l 61 886 b 39 813 26 867 19 846 l 72 757 b 153 738 93 725 114 717 l 189 758 l 189 493 b 247 438 189 453 201 438 l 322 438 b 381 493 368 438 381 453 l 381 928 b 317 986 381 975 371 986 z m 1000 986 l 900 986 b 792 938 836 986 822 981 l 144 58 b 174 0 121 26 132 0 l 267 0 b 382 51 336 0 349 7 l 1028 931 b 1000 986 1050 963 1042 986 z m 731 396 b 794 269 731 339 758 299 b 714 139 756 244 714 203 b 957 -12 714 49 785 -12 b 1201 161 1129 -12 1201 56 b 1125 294 1201 225 1168 265 b 1185 411 1157 317 1185 354 b 957 561 1185 503 1104 561 b 731 396 818 561 731 500 z m 1000 393 b 969 353 1000 375 986 363 b 915 394 939 364 915 374 b 957 424 915 411 926 424 b 1000 393 993 424 1000 408 z m 1007 156 b 960 124 1007 139 992 124 b 908 157 919 124 908 139 b 947 203 908 175 925 189 b 1007 156 985 189 1007 178 z "},"⅜":{"ha":1288,"x_min":0,"x_max":0,"o":"m 46 874 b 71 811 33 836 47 821 l 122 788 b 194 817 165 769 181 783 b 267 858 211 850 232 858 b 310 829 296 858 310 849 b 267 799 310 806 293 799 l 240 799 b 197 756 203 799 197 790 l 197 686 b 236 646 197 653 204 646 l 275 646 b 318 614 308 646 318 636 b 271 588 318 596 303 588 b 196 624 239 588 211 592 b 124 653 179 658 165 668 l 63 631 b 39 567 32 619 29 600 b 279 436 69 472 151 436 b 507 600 431 436 507 497 b 436 732 507 653 490 703 b 490 844 479 763 490 793 b 279 1007 490 946 413 1007 b 46 874 149 1007 78 961 z m 1061 986 l 961 986 b 854 938 897 986 885 981 l 207 58 b 236 0 182 26 194 0 l 329 0 b 444 51 399 0 410 6 l 1090 931 b 1061 986 1111 961 1103 986 z m 783 396 b 847 269 783 339 811 299 b 767 139 807 244 767 203 b 1010 -12 767 49 838 -12 b 1253 161 1182 -12 1253 56 b 1178 294 1253 225 1221 265 b 1236 411 1210 317 1236 354 b 1010 561 1236 503 1157 561 b 783 396 871 561 783 500 z m 1053 393 b 1022 353 1053 375 1039 363 b 967 394 990 364 967 374 b 1008 424 967 411 979 424 b 1053 393 1044 424 1053 408 z m 1060 156 b 1013 124 1060 139 1044 124 b 960 157 972 124 960 139 b 1000 203 960 175 978 189 b 1060 156 1038 189 1060 178 z "},"⅝":{"ha":1285,"x_min":0,"x_max":0,"o":"m 433 994 l 135 994 b 76 951 94 994 79 985 l 51 733 b 100 685 49 697 58 685 l 267 685 b 318 636 304 685 318 664 b 268 589 318 604 300 589 b 201 632 238 589 217 597 b 131 656 182 672 167 669 l 65 631 b 39 563 33 618 22 603 b 275 435 76 478 143 435 b 497 635 417 435 497 525 b 281 815 497 743 428 815 l 238 815 l 240 851 l 433 851 b 476 890 469 851 476 860 l 476 953 b 433 994 476 985 465 994 z m 1050 986 l 950 986 b 842 938 886 986 872 981 l 194 58 b 224 0 171 26 182 0 l 317 0 b 432 51 386 0 399 7 l 1078 931 b 1050 986 1100 963 1092 986 z m 781 396 b 844 269 781 339 807 299 b 764 139 804 244 764 203 b 1006 -12 764 49 833 -12 b 1250 161 1178 -12 1250 56 b 1174 294 1250 225 1218 265 b 1233 411 1207 317 1233 354 b 1006 561 1233 503 1154 561 b 781 396 867 561 781 500 z m 1050 393 b 1019 353 1050 375 1035 363 b 964 394 988 364 964 374 b 1006 424 964 411 975 424 b 1050 393 1042 424 1050 408 z m 1057 156 b 1008 124 1057 139 1040 124 b 957 157 969 124 957 139 b 996 203 957 175 975 189 b 1057 156 1035 189 1057 178 z "},"⅞":{"ha":1201,"x_min":0,"x_max":0,"o":"m 428 990 l 82 990 b 35 942 44 990 35 982 l 35 876 b 78 828 35 840 40 828 l 257 828 l 103 501 b 136 442 82 458 88 442 l 218 442 b 292 475 269 442 279 449 l 463 846 b 476 901 472 864 476 878 l 476 949 b 428 990 476 982 465 990 z m 951 986 l 851 986 b 743 938 788 986 775 981 l 96 58 b 126 0 72 26 83 0 l 219 0 b 333 51 289 0 300 7 l 979 931 b 951 986 1001 963 993 986 z m 699 396 b 763 269 699 339 725 299 b 682 139 722 244 682 203 b 925 -12 682 49 753 -12 b 1168 161 1097 -12 1168 56 b 1093 294 1168 225 1136 265 b 1151 411 1125 317 1151 354 b 925 561 1151 503 1072 561 b 699 396 786 561 699 500 z m 968 393 b 938 353 968 375 954 363 b 882 394 906 364 882 374 b 924 424 882 411 893 424 b 968 393 960 424 968 408 z m 975 156 b 928 124 975 139 960 124 b 875 157 888 124 875 139 b 915 203 875 175 893 189 b 975 156 953 189 975 178 z "},"₀":{"ha":538,"x_min":0,"x_max":0,"o":"m 38 186 l 38 29 b 269 -178 38 -97 121 -178 b 500 29 417 -178 500 -97 l 500 186 b 269 393 500 313 417 393 b 38 186 121 393 38 313 z m 308 189 l 308 28 b 269 -11 308 1 293 -11 b 229 28 244 -11 229 1 l 229 189 b 269 225 229 215 244 225 b 308 189 293 225 308 215 z "},"₁":{"ha":413,"x_min":0,"x_max":0,"o":"m 294 382 l 249 382 b 183 367 221 382 203 378 l 38 282 b 15 208 3 263 -3 242 l 49 154 b 129 135 69 121 90 113 l 167 154 l 167 -111 b 224 -167 167 -150 178 -167 l 299 -167 b 358 -111 344 -167 358 -150 l 358 324 b 294 382 358 371 349 382 z "},"₂":{"ha":521,"x_min":0,"x_max":0,"o":"m 43 263 b 72 186 26 219 35 200 l 142 161 b 211 194 182 146 192 158 b 260 226 224 219 240 226 b 290 194 281 226 290 213 b 242 139 290 163 276 151 l 168 113 b 36 -74 64 76 36 29 l 36 -119 b 86 -167 36 -153 49 -167 l 429 -167 b 476 -119 467 -167 476 -153 l 476 -54 b 426 -6 476 -18 465 -6 l 265 -6 l 265 -3 b 294 11 265 3 278 7 l 354 28 b 486 217 454 57 486 124 b 269 393 486 324 407 393 b 43 263 142 393 76 344 z "},"₃":{"ha":529,"x_min":0,"x_max":0,"o":"m 36 260 b 61 197 24 224 38 207 l 114 175 b 186 203 156 157 171 171 b 258 246 201 236 224 246 b 300 217 286 246 300 236 b 258 186 300 193 283 186 l 231 186 b 188 143 193 186 188 178 l 188 74 b 226 33 188 40 194 33 l 267 33 b 308 1 299 33 308 24 b 261 -25 308 -17 293 -25 b 188 11 229 -25 203 -21 b 114 40 171 46 156 56 l 53 18 b 31 -46 22 7 19 -12 b 269 -178 61 -140 142 -178 b 497 -12 422 -178 497 -115 b 426 118 497 40 482 90 b 481 231 469 149 481 181 b 269 393 481 333 404 393 b 36 260 140 393 68 349 z "},"₄":{"ha":554,"x_min":0,"x_max":0,"o":"m 479 78 l 464 78 l 464 328 b 408 382 464 369 453 382 l 338 382 b 257 349 293 382 282 376 l 35 81 b 15 21 18 61 15 53 l 15 -22 b 65 -71 15 -57 26 -71 l 286 -71 l 286 -118 b 329 -167 286 -153 296 -167 l 419 -167 b 464 -118 453 -167 464 -153 l 464 -71 l 479 -71 b 525 -28 519 -71 525 -60 l 525 38 b 479 78 525 68 519 78 z m 286 78 l 211 78 l 286 169 z "},"₅":{"ha":524,"x_min":0,"x_max":0,"o":"m 429 382 l 129 382 b 71 340 89 382 75 374 l 47 122 b 96 72 43 86 54 72 l 261 72 b 314 25 300 72 314 51 b 263 -24 314 -7 296 -24 b 196 21 232 -24 213 -15 b 126 44 178 61 161 57 l 60 18 b 35 -49 29 7 18 -8 b 269 -178 72 -135 139 -178 b 492 24 413 -178 492 -86 b 275 204 492 131 424 204 l 232 204 l 236 239 l 429 239 b 471 279 464 239 471 247 l 471 342 b 429 382 471 372 461 382 z "},"₆":{"ha":539,"x_min":0,"x_max":0,"o":"m 228 175 l 228 193 b 282 240 228 232 249 240 b 340 210 311 240 328 224 b 392 201 353 196 364 186 l 472 242 b 492 299 500 256 507 272 b 279 393 460 353 390 393 b 38 189 119 393 38 325 l 38 28 b 272 -178 38 -110 118 -178 b 507 7 417 -178 507 -115 b 297 183 507 118 443 183 b 228 175 272 183 249 181 z m 228 18 l 228 29 b 272 38 243 35 258 38 b 315 6 304 38 315 28 b 272 -26 315 -15 301 -26 b 228 18 243 -26 228 -12 z "},"₇":{"ha":476,"x_min":0,"x_max":0,"o":"m 413 382 l 67 382 b 19 335 29 382 19 374 l 19 268 b 64 219 19 233 25 219 l 242 219 l 88 -107 b 121 -167 67 -150 72 -167 l 204 -167 b 276 -133 254 -167 264 -160 l 449 238 b 461 293 457 256 461 269 l 461 340 b 413 382 461 375 450 382 z "},"₈":{"ha":549,"x_min":0,"x_max":0,"o":"m 47 231 b 111 104 47 174 75 133 b 31 -26 71 79 31 38 b 274 -178 31 -117 101 -178 b 517 -4 446 -178 517 -110 b 442 129 517 60 485 100 b 500 246 474 151 500 189 b 274 396 500 338 421 396 b 47 231 135 396 47 335 z m 317 228 b 286 188 317 210 303 197 b 231 229 254 199 231 208 b 272 258 231 246 243 258 b 317 228 308 258 317 243 z m 324 -10 b 276 -42 324 -26 308 -42 b 224 -8 236 -42 224 -26 b 264 38 224 10 242 24 b 324 -10 301 24 324 13 z "},"₉":{"ha":539,"x_min":0,"x_max":0,"o":"m 311 42 l 311 22 b 257 -25 311 -15 290 -25 b 197 7 228 -25 211 -7 b 147 15 186 19 175 31 l 67 -25 b 47 -82 39 -39 31 -56 b 260 -178 78 -136 149 -178 b 501 28 418 -178 501 -108 l 501 189 b 267 393 501 326 419 393 b 32 210 121 393 32 331 b 242 33 32 99 96 33 b 311 42 267 33 290 36 z m 311 199 l 311 186 b 267 179 296 182 281 179 b 224 210 235 179 224 189 b 267 243 224 232 238 243 b 311 199 296 243 311 229 z "},"⁰":{"ha":538,"x_min":0,"x_max":0,"o":"m 38 924 l 38 767 b 269 560 38 640 121 560 b 500 767 417 560 500 640 l 500 924 b 269 1131 500 1050 417 1131 b 38 924 121 1131 38 1050 z m 308 926 l 308 764 b 269 726 308 739 293 726 b 229 764 244 726 229 739 l 229 926 b 269 963 229 951 244 963 b 308 926 293 963 308 951 z "},"¹":{"ha":413,"x_min":0,"x_max":0,"o":"m 294 1119 l 249 1119 b 183 1104 221 1119 203 1115 l 38 1019 b 15 946 3 1000 -3 979 l 49 890 b 129 871 69 858 90 850 l 167 892 l 167 626 b 224 571 167 586 178 571 l 299 571 b 358 626 344 571 358 586 l 358 1061 b 294 1119 358 1108 349 1119 z "},"²":{"ha":521,"x_min":0,"x_max":0,"o":"m 43 993 b 72 917 26 950 35 931 l 142 892 b 211 925 182 876 192 889 b 260 957 224 950 240 957 b 290 925 281 957 290 943 b 242 869 290 893 276 882 l 168 843 b 36 657 64 807 36 760 l 36 611 b 86 564 36 578 49 564 l 429 564 b 476 611 467 564 476 578 l 476 676 b 426 725 476 713 465 725 l 265 725 l 265 728 b 294 742 265 733 278 738 l 354 758 b 486 947 454 788 486 854 b 269 1124 486 1054 407 1124 b 43 993 142 1124 76 1075 z "},"³":{"ha":528,"x_min":0,"x_max":0,"o":"m 36 997 b 61 935 24 961 38 944 l 113 913 b 185 940 156 894 171 908 b 257 983 201 974 222 983 b 300 954 286 983 300 974 b 257 924 300 931 283 924 l 231 924 b 188 881 193 924 188 914 l 188 811 b 226 771 188 778 194 771 l 265 771 b 308 739 299 771 308 761 b 261 711 308 721 293 711 b 186 749 229 711 201 717 b 114 778 169 783 156 792 l 53 756 b 29 692 22 744 19 725 b 269 560 60 597 142 560 b 497 724 421 560 497 622 b 426 856 497 778 481 828 b 481 968 469 886 481 918 b 269 1131 481 1071 403 1131 b 36 997 139 1131 68 1086 z "},"⁴":{"ha":551,"x_min":0,"x_max":0,"o":"m 476 815 l 461 815 l 461 1064 b 406 1119 461 1107 450 1119 l 338 1119 b 257 1085 293 1119 282 1114 l 35 818 b 15 758 18 799 15 789 l 15 715 b 65 667 15 681 26 667 l 286 667 l 286 618 b 329 571 286 585 296 571 l 417 571 b 461 618 450 571 461 585 l 461 667 l 476 667 b 522 710 517 667 522 678 l 522 774 b 476 815 522 804 517 815 z m 286 815 l 211 815 l 286 907 z "},"⁵":{"ha":522,"x_min":0,"x_max":0,"o":"m 429 1119 l 129 1119 b 71 1078 89 1119 75 1110 l 47 860 b 96 810 43 824 54 810 l 261 810 b 314 763 300 810 314 789 b 263 714 314 731 296 714 b 196 757 232 714 213 722 b 126 782 178 799 161 794 l 60 756 b 35 689 29 744 18 729 b 269 560 72 603 139 560 b 492 761 413 560 492 651 b 275 942 492 868 424 942 l 232 942 l 236 976 l 429 976 b 471 1017 464 976 471 985 l 471 1079 b 429 1119 471 1110 461 1119 z "},"⁶":{"ha":539,"x_min":0,"x_max":0,"o":"m 228 913 l 228 931 b 282 978 228 969 249 978 b 340 947 311 978 328 961 b 392 939 353 933 364 924 l 472 979 b 492 1036 500 993 507 1010 b 279 1131 460 1090 390 1131 b 38 925 119 1131 38 1063 l 38 765 b 272 560 38 628 118 560 b 507 744 417 560 507 622 b 297 921 507 856 443 921 b 228 913 272 921 249 918 z m 228 754 l 228 767 b 272 775 243 771 258 775 b 315 743 304 775 315 765 b 272 711 315 722 301 711 b 228 754 243 711 228 725 z "},"⁷":{"ha":476,"x_min":0,"x_max":0,"o":"m 414 1119 l 68 1119 b 19 1071 31 1119 19 1111 l 19 1006 b 64 957 19 969 26 957 l 242 957 l 88 631 b 121 571 67 588 74 571 l 204 571 b 278 604 256 571 264 578 l 449 975 b 461 1031 458 993 461 1007 l 461 1078 b 414 1119 461 1111 450 1119 z "},"⁸":{"ha":549,"x_min":0,"x_max":0,"o":"m 47 967 b 111 840 47 910 75 869 b 31 710 71 815 31 774 b 274 560 31 619 101 560 b 517 732 446 560 517 626 b 442 865 517 796 485 838 b 500 982 474 888 500 925 b 274 1132 500 1075 421 1132 b 47 967 135 1132 47 1071 z m 317 964 b 286 924 317 946 303 933 b 231 965 254 935 231 944 b 272 994 231 982 243 994 b 317 964 308 994 317 979 z m 324 726 b 276 694 324 710 308 694 b 224 728 236 694 224 711 b 264 774 224 746 242 761 b 324 726 301 760 324 749 z "},"⁹":{"ha":539,"x_min":0,"x_max":0,"o":"m 311 778 l 311 760 b 257 713 311 722 290 713 b 197 743 228 713 211 731 b 147 753 186 757 175 767 l 67 713 b 47 654 39 697 31 681 b 260 560 78 601 149 560 b 501 765 418 560 501 628 l 501 926 b 267 1131 501 1064 419 1131 b 32 947 121 1131 32 1068 b 242 769 32 836 96 769 b 311 778 267 769 290 774 z m 311 936 l 311 924 b 267 917 296 919 281 917 b 224 947 235 917 224 926 b 267 979 224 969 238 979 b 311 936 296 979 311 967 z "},"*":{"ha":485,"x_min":0,"x_max":0,"o":"m 268 944 l 214 944 b 181 904 185 944 175 931 l 197 808 l 111 853 b 61 832 85 867 69 860 l 43 782 b 72 736 35 756 40 740 l 168 721 l 99 653 b 101 600 76 632 78 618 l 149 565 b 199 581 169 549 188 556 l 242 664 l 283 581 b 338 569 297 554 314 553 l 382 600 b 385 653 406 615 404 635 l 317 721 l 413 736 b 442 781 443 740 450 756 l 424 832 b 374 853 414 861 401 868 l 288 808 l 303 904 b 268 944 308 932 300 944 z "},"\\":{"ha":686,"x_min":0,"x_max":0,"o":"m 31 938 l 394 -35 b 465 -83 408 -72 425 -83 l 621 -83 b 656 -35 660 -83 668 -68 l 292 938 b 221 986 278 976 261 986 l 65 986 b 31 938 26 986 18 971 z "},"·":{"ha":390,"x_min":0,"x_max":0,"o":"m 222 567 l 169 567 b 60 457 86 567 60 539 l 60 400 b 169 292 60 318 86 292 l 222 292 b 331 400 304 292 331 318 l 331 457 b 222 567 331 539 304 567 z "},"•":{"ha":550,"x_min":0,"x_max":0,"o":"m 275 158 b 481 367 393 158 481 250 b 275 574 481 485 393 574 b 69 367 157 574 69 485 b 275 158 69 250 157 158 z "},":":{"ha":394,"x_min":0,"x_max":0,"o":"m 224 750 l 171 750 b 61 640 88 750 61 722 l 61 583 b 171 475 61 501 88 475 l 224 475 b 333 583 307 475 333 501 l 333 640 b 224 750 333 722 307 750 z m 224 264 l 171 264 b 61 154 88 264 61 236 l 61 97 b 171 -11 61 15 88 -11 l 224 -11 b 333 97 307 -11 333 15 l 333 154 b 224 264 333 236 307 264 z "},",":{"ha":363,"x_min":0,"x_max":0,"o":"m 214 -117 l 317 188 b 263 258 332 232 319 258 l 133 258 b 63 188 85 258 68 239 l 24 -129 b 63 -169 21 -161 28 -169 l 140 -169 b 214 -117 183 -169 200 -154 z "},"…":{"ha":1110,"x_min":0,"x_max":0,"o":"m 210 264 l 157 264 b 47 154 74 264 47 236 l 47 97 b 157 -11 47 15 74 -11 l 210 -11 b 318 97 292 -11 318 15 l 318 154 b 210 264 318 236 292 264 z m 582 264 l 529 264 b 419 154 446 264 419 236 l 419 97 b 529 -11 419 15 446 -11 l 582 -11 b 690 97 664 -11 690 15 l 690 154 b 582 264 690 236 664 264 z m 954 264 l 901 264 b 792 154 818 264 792 236 l 792 97 b 901 -11 792 15 818 -11 l 954 -11 b 1063 97 1036 -11 1063 15 l 1063 154 b 954 264 1063 236 1036 264 z "},"!":{"ha":394,"x_min":0,"x_max":0,"o":"m 276 1026 l 119 1026 b 65 975 79 1026 64 1014 l 88 376 b 140 324 89 338 100 324 l 254 324 b 306 376 293 324 304 338 l 331 975 b 276 1026 332 1014 317 1026 z m 231 254 l 161 254 b 53 146 79 254 53 228 l 53 97 b 161 -11 53 15 79 -11 l 231 -11 b 340 97 314 -11 340 15 l 340 146 b 231 254 340 228 314 254 z "},"¡":{"ha":385,"x_min":0,"x_max":0,"o":"m 157 467 l 226 467 b 336 576 310 467 336 493 l 336 624 b 226 732 336 707 310 732 l 157 732 b 47 624 74 732 47 707 l 47 576 b 157 467 47 493 74 467 z m 114 -306 l 272 -306 b 325 -253 313 -306 326 -292 l 301 344 b 249 397 300 385 289 397 l 136 397 b 83 344 96 397 85 385 l 61 -253 b 114 -306 60 -292 74 -306 z "},"#":{"ha":1065,"x_min":0,"x_max":0,"o":"m 993 749 l 913 749 l 951 882 b 914 935 964 919 953 935 l 786 935 b 718 882 746 935 731 919 l 679 749 l 557 749 l 596 882 b 557 935 607 919 597 935 l 431 935 b 363 882 392 935 374 919 l 324 749 l 243 749 b 174 700 203 749 185 739 l 138 585 b 178 533 125 547 138 533 l 260 533 l 219 399 l 140 399 b 69 350 99 399 81 388 l 33 235 b 72 182 24 196 33 182 l 154 182 l 117 53 b 154 0 104 15 115 0 l 281 0 b 349 53 321 0 338 15 l 388 182 l 510 182 l 471 53 b 510 0 460 15 469 0 l 638 0 b 704 53 676 0 693 15 l 743 182 l 822 182 b 893 232 864 182 882 194 l 931 347 b 890 399 943 385 931 399 l 807 399 l 847 533 l 928 533 b 999 582 968 533 988 546 l 1032 697 b 993 749 1043 736 1033 749 z m 574 399 l 451 399 l 493 533 l 615 533 z "},".":{"ha":365,"x_min":0,"x_max":0,"o":"m 210 264 l 157 264 b 47 154 74 264 47 236 l 47 97 b 157 -11 47 15 74 -11 l 210 -11 b 318 97 292 -11 318 15 l 318 154 b 210 264 318 236 292 264 z "},"?":{"ha":824,"x_min":0,"x_max":0,"o":"m 35 783 b 71 708 19 743 31 722 l 204 658 b 279 696 246 644 260 653 b 422 814 315 776 349 814 b 518 735 488 814 518 781 b 372 581 518 643 442 624 b 256 357 313 544 256 489 b 313 301 256 314 271 301 l 438 301 b 494 357 479 301 494 314 b 546 433 494 390 515 413 b 790 738 629 490 790 535 b 424 1026 790 907 656 1026 b 35 783 208 1026 93 928 z m 413 254 l 343 254 b 233 146 260 254 233 228 l 233 97 b 343 -11 233 15 260 -11 l 413 -11 b 521 97 494 -11 521 15 l 521 146 b 413 254 521 228 494 254 z "},"¿":{"ha":818,"x_min":0,"x_max":0,"o":"m 410 465 l 479 465 b 589 574 561 465 589 490 l 589 622 b 479 731 589 704 561 731 l 410 731 b 300 622 326 731 300 704 l 300 574 b 410 465 300 490 326 465 z m 786 -65 b 750 11 803 -24 790 -4 l 617 61 b 542 24 576 75 561 67 b 400 -94 506 -57 472 -94 b 303 -15 333 -94 303 -61 b 449 139 303 75 379 94 b 565 363 510 175 565 231 b 510 418 565 404 550 418 l 383 418 b 328 363 342 418 328 404 b 275 286 328 329 306 307 b 32 -19 192 228 32 185 b 399 -307 32 -187 165 -307 b 786 -65 613 -307 729 -208 z "},"\"":{"ha":569,"x_min":0,"x_max":0,"o":"m 246 664 l 276 939 b 228 986 281 979 267 986 l 106 986 b 57 939 65 986 57 979 l 57 664 b 106 619 57 624 65 619 l 190 619 b 246 664 232 619 242 624 z m 499 664 l 528 939 b 479 986 532 979 518 986 l 357 986 b 310 939 318 986 310 979 l 310 664 b 357 619 310 624 318 619 l 442 619 b 499 664 483 619 493 624 z "},"'":{"ha":317,"x_min":0,"x_max":0,"o":"m 246 664 l 276 939 b 228 986 281 979 267 986 l 106 986 b 57 939 65 986 57 979 l 57 664 b 106 619 57 624 65 619 l 190 619 b 246 664 232 619 242 624 z "},";":{"ha":396,"x_min":0,"x_max":0,"o":"m 235 750 l 182 750 b 72 640 100 750 72 722 l 72 583 b 182 475 72 501 100 475 l 235 475 b 344 583 318 475 344 501 l 344 640 b 235 750 344 722 318 750 z m 222 -117 l 325 188 b 271 258 340 232 328 258 l 143 258 b 71 188 94 258 76 239 l 32 -129 b 71 -169 29 -161 38 -169 l 149 -169 b 222 -117 192 -169 208 -154 z "},"/":{"ha":685,"x_min":0,"x_max":0,"o":"m 293 -35 l 654 938 b 619 986 667 972 658 986 l 464 986 b 393 938 424 986 408 976 l 31 -35 b 67 -83 18 -68 26 -83 l 222 -83 b 293 -35 263 -83 278 -72 z "},"_":{"ha":701,"x_min":0,"x_max":0,"o":"m 625 0 l 76 0 b 18 -58 32 0 18 -15 l 18 -176 b 76 -235 18 -221 32 -235 l 625 -235 b 683 -176 669 -235 683 -221 l 683 -58 b 625 0 683 -15 669 0 z "},"{":{"ha":569,"x_min":0,"x_max":0,"o":"m 493 1189 l 356 1189 b 146 989 200 1189 146 1128 l 146 728 b 58 611 146 669 128 611 l 50 611 b 6 558 17 611 6 594 l 6 418 b 50 365 6 381 18 365 l 58 365 b 146 249 128 365 146 308 l 146 -6 b 360 -204 146 -144 199 -204 l 493 -204 b 546 -151 532 -204 546 -190 l 546 -35 b 493 18 546 6 532 18 l 425 18 b 393 50 407 18 393 32 l 393 299 b 286 489 393 392 363 457 b 393 678 346 525 393 586 l 393 935 b 425 967 393 953 407 967 l 493 967 b 546 1019 532 967 546 979 l 546 1136 b 493 1189 546 1175 532 1189 z "},"}":{"ha":569,"x_min":0,"x_max":0,"o":"m 214 1189 l 78 1189 b 25 1136 38 1189 25 1175 l 25 1019 b 78 967 25 979 38 967 l 144 967 b 178 935 164 967 178 953 l 178 678 b 283 489 178 586 225 525 b 178 299 207 457 178 392 l 178 50 b 146 18 178 32 164 18 l 78 18 b 25 -35 38 18 25 6 l 25 -151 b 78 -204 25 -190 38 -204 l 211 -204 b 425 -6 371 -204 425 -144 l 425 249 b 511 365 425 308 442 365 l 519 365 b 564 418 551 365 564 381 l 564 558 b 521 611 564 594 553 611 l 511 611 b 425 728 442 611 425 669 l 425 989 b 214 1189 425 1128 369 1189 z "},"[":{"ha":492,"x_min":0,"x_max":0,"o":"m 417 1189 l 122 1189 b 69 1136 78 1189 69 1179 l 69 -151 b 122 -204 69 -196 78 -204 l 417 -204 b 468 -153 461 -204 468 -197 l 468 -54 b 417 -3 468 -10 461 -3 l 318 -3 l 318 990 l 417 990 b 468 1042 461 990 468 997 l 468 1138 b 417 1189 468 1182 461 1189 z "},"]":{"ha":492,"x_min":0,"x_max":0,"o":"m 369 1189 l 75 1189 b 24 1138 31 1189 24 1182 l 24 1042 b 75 990 24 997 31 990 l 174 990 l 174 -3 l 75 -3 b 24 -54 31 -3 24 -10 l 24 -153 b 75 -204 24 -197 31 -204 l 369 -204 b 422 -151 414 -204 422 -196 l 422 1136 b 369 1189 422 1179 414 1189 z "},"(":{"ha":442,"x_min":0,"x_max":0,"o":"m 57 826 l 57 161 b 268 -208 57 -37 132 -146 b 340 -175 304 -225 321 -212 l 407 -37 b 378 35 425 -1 415 14 b 308 168 329 61 308 96 l 308 819 b 378 953 308 890 329 926 b 407 1025 415 974 424 988 l 340 1161 b 268 1196 321 1200 304 1213 b 57 826 132 1133 57 1025 z "},")":{"ha":442,"x_min":0,"x_max":0,"o":"m 101 1161 l 35 1025 b 64 953 17 988 26 974 b 132 819 113 926 132 890 l 132 168 b 64 35 132 96 113 61 b 35 -37 26 14 17 0 l 101 -175 b 174 -208 121 -212 138 -225 b 383 161 308 -146 383 -37 l 383 826 b 174 1196 383 1025 308 1133 b 101 1161 138 1213 121 1200 z "},"—":{"ha":1082,"x_min":0,"x_max":0,"o":"m 963 489 l 119 489 b 61 429 75 489 61 474 l 61 310 b 119 251 61 265 75 251 l 963 251 b 1021 310 1007 251 1021 265 l 1021 429 b 963 489 1021 474 1007 489 z "},"–":{"ha":789,"x_min":0,"x_max":0,"o":"m 668 488 l 119 488 b 61 429 76 488 61 474 l 61 311 b 119 253 61 267 76 253 l 668 253 b 728 311 713 253 728 267 l 728 429 b 668 488 728 474 713 488 z "},"-":{"ha":558,"x_min":0,"x_max":0,"o":"m 440 485 l 118 485 b 60 426 75 485 60 471 l 60 308 b 118 250 60 264 75 250 l 440 250 b 499 308 483 250 499 264 l 499 426 b 440 485 499 471 483 485 z "}}}
